<svg xmlns="http://www.w3.org/2000/svg" width="900" height="325" fill="none"><g clip-path="url(#a)"><path fill="url(#b)" d="M0 0h900v325H0z"/><g clip-path="url(#c)" opacity=".9"><mask id="d" width="325" height="325" x="0" y="0" maskUnits="userSpaceOnUse" style="mask-type:luminance"><path fill="#fff" d="M0 324.877h325V0H0v324.877Z"/></mask><g mask="url(#d)"><path fill="#DADDF2" d="m.009 163.715 25.276-25.283L.002 113.155l-25.276 25.284L.009 163.715Z"/><path fill="#3B57AA" d="M2.354 217.27 13 206.616l10.653 10.654h-21.3ZM2.352 219.22h22.607l-11.303 11.303L2.351 219.22ZM14.38 205.238l11.304-11.297v22.6L14.38 205.238ZM15.037 231.902l10.647-10.647v21.294l-10.647-10.647ZM27.63 216.549v-22.607l11.304 11.303-11.304 11.304ZM27.632 242.549v-21.301l10.647 10.647-10.647 10.654ZM40.31 257.177l11.627-11.628-12.272-12.272-11.628 11.628 12.272 12.272ZM28.197 138.439l25.278-25.285 25.123 25.122-25.285 25.279-25.116-25.116ZM28.358 219.221H50.96l-11.303 11.297-11.297-11.297Z"/><path fill="#DADDF2" d="m29.008 84.144 10.647-10.653L50.31 84.144h-21.3ZM29.01 192.563h49.258l-24.629 24.628-.325-.325-13-13-11.303-11.303ZM29.01 190.613l24.304-24.303.162.162 24.141 24.141H29.01ZM29.01 86.095h22.607L40.314 97.398 29.01 86.095Z"/><path fill="#3B57AA" d="m29.665 217.27 10.647-10.647 10.647 10.647H29.665Z"/><path fill="#DADDF2" d="m41.034 72.11 11.304-11.296v22.6L41.034 72.111Z"/><path fill="#3B57AA" d="m41.041 231.902 12.272-12.279 12.279 12.279-12.279 12.272-12.272-12.272ZM53.317 270.183l11.628-11.628-11.628-11.629-11.628 11.629 11.628 11.628Z"/><path fill="#DADDF2" d="m41.69 98.775 10.648-10.647v21.294L41.69 98.775ZM54.288 83.414v-22.6L65.592 72.11 54.288 83.414ZM54.288 109.422v-21.3L64.94 98.774l-10.653 10.647Z"/><path fill="#3B57AA" d="M66.32 257.182 78.6 244.91l-11.625-11.631-12.28 12.272 11.626 11.631Z"/><path fill="#DADDF2" d="M54.852 165.095 79 140.954v48.288l-24.148-24.147ZM80.223 296.843l25.154-25.161-25.282-25.275-25.154 25.161 25.282 25.275ZM55.015 218.57 79 194.585v47.964l-12.031-12.025-11.954-11.954ZM55.016 86.095h22.607L66.32 97.398 55.016 86.095ZM56.316 84.144l10.653-10.653 10.654 10.653H56.316ZM80.952 189.885v-49.257l24.628 24.628-24.628 24.629ZM80.95 242.549v-48.607l24.304 24.303-24.304 24.304Z"/><path fill="#3B57AA" d="m82.328 243.934 10.647-10.654 10.654 10.654h-21.3Z"/><path fill="#DADDF2" d="m106.634 216.867-24.303-24.303h48.607l-24.304 24.303Z"/><path fill="#3B57AA" d="M82.453 297.369 93.1 286.716l10.654 10.653h-21.3ZM82.453 299.32h22.594L93.75 310.617 82.453 299.32ZM93.748 257.057l-11.173-11.174h22.347l-11.174 11.174Z"/><path fill="#DADDF2" d="m82.98 190.613 23.979-23.978 23.979 23.978H82.981Z"/><path fill="#3B57AA" d="m94.355 231.902 11.303-11.297v22.6l-11.303-11.303ZM94.478 285.337l11.303-11.297v22.601l-11.303-11.304ZM105.658 268.971l-10.53-10.537 10.53-10.53v21.067ZM95.128 311.995l10.653-10.654v21.307l-10.653-10.653ZM107.609 243.197v-22.6l11.303 11.303-11.303 11.297ZM107.608 269.211v-21.307l10.654 10.653-10.654 10.654ZM107.732 296.635v-22.594l11.297 11.297-11.297 11.297ZM107.732 322.648v-21.3l10.647 10.647-10.647 10.653Z"/><path fill="#DADDF2" d="m120.407 283.961-12.272-12.279.117-.117-.117-.123 25.155-25.155 25.278 25.278-25.278 25.279-12.883-12.883Z"/><path fill="#3B57AA" d="m133.417 110.718 25.278-25.279-25.278-25.278-25.278 25.278 25.278 25.279Z"/><path fill="#DADDF2" d="m92.983 50.554 25.279-25.279L92.983-.003 67.705 25.275l25.278 25.279ZM214.645 216.864l25.279-25.278-25.279-25.278-25.278 25.278 25.278 25.278Z"/><path fill="#3B57AA" d="m119.639 257.18-11.297-11.297h22.588l-11.291 11.297ZM108.458 299.32h22.601l-11.304 11.297-11.297-11.297ZM109.631 243.934l10.653-10.654 10.654 10.654h-21.307ZM109.752 297.369l10.653-10.653 10.654 10.653h-21.307ZM146.865 150.633l11.623-11.623-12.273-12.274-11.624 11.624 12.274 12.273Z"/><path fill="#DADDF2" d="M134.668 244.908v-.007l25.278-25.272 25.279 25.279-25.279 25.272-25.278-25.272ZM134.668 298.222l25.278-25.279 25.279 25.279-25.279 25.278-25.155-25.155-.123-.123ZM134.668 191.589l25.2-25.201.078-.078 25.279 25.279-25.279 25.278-13-13-12.278-12.278ZM120.288 230.523l-11.303-11.303h22.607l-11.304 11.303ZM108.985 217.27l10.647-10.647 10.647 10.647h-21.294ZM121.017 205.244l11.297-11.303v22.6l-11.297-11.297ZM132.314 242.547 121.667 231.9l10.647-10.647v21.294ZM134.265 216.547V193.94l11.303 11.303-11.303 11.304ZM134.265 242.547v-21.301l10.647 10.654-10.647 10.647ZM134.991 219.219h22.601l-11.304 11.297-11.297-11.297ZM136.298 217.27l10.647-10.647 10.647 10.647h-21.294ZM147.588 125.346l12.279-12.272 12.272 12.272-12.272 12.279-12.279-12.279ZM148.238 152.002l11.628-11.622 11.622 11.629-11.544 11.544-.078.078-11.628-11.629Z"/><path fill="#3B57AA" d="m161.246 139.003 12.272-12.279 11.628 11.629-12.278 12.272-11.622-11.622ZM186.61 296.841l25.279-25.279-25.279-25.278-25.278 25.279 25.278 25.278ZM239.923 350.153l25.278-25.278-25.278-25.278-25.279 25.278 25.279 25.278Z"/><path fill="#DADDF2" d="m239.927 296.967 25.276-25.283-25.283-25.277-25.276 25.284 25.283 25.276Z"/></g><g fill="#CFD2E6" clip-path="url(#e)"><path d="M275.999 163.113a1.112 1.112 0 1 1-1.113-1.113c.616 0 1.113.497 1.113 1.113ZM285.992 163.113a1.112 1.112 0 1 1-2.226 0 1.112 1.112 0 1 1 2.226 0ZM295.997 163.113a1.112 1.112 0 1 1-1.113-1.113c.616 0 1.113.497 1.113 1.113ZM306.001 163.113a1.112 1.112 0 1 1-1.113-1.113c.616 0 1.113.497 1.113 1.113ZM315.995 163.113a1.111 1.111 0 1 1-2.225 0 1.111 1.111 0 1 1 2.225 0ZM325.999 163.113a1.112 1.112 0 1 1-1.113-1.113c.616 0 1.113.497 1.113 1.113ZM275.999 172.006c0 .615-.497 1.112-1.113 1.112a1.112 1.112 0 1 1 0-2.225c.616 0 1.113.497 1.113 1.113ZM285.992 172.006c0 .615-.498 1.112-1.113 1.112a1.111 1.111 0 1 1 0-2.225c.615 0 1.113.497 1.113 1.113ZM295.997 172.006c0 .615-.497 1.112-1.113 1.112a1.112 1.112 0 1 1 0-2.225c.616 0 1.113.497 1.113 1.113ZM306.001 172.006c0 .615-.497 1.112-1.113 1.112a1.112 1.112 0 1 1 0-2.225c.616 0 1.113.497 1.113 1.113ZM315.995 172.006c0 .615-.497 1.112-1.113 1.112a1.11 1.11 0 0 1-1.112-1.112 1.111 1.111 0 1 1 2.225 0ZM325.999 172.006c0 .615-.497 1.112-1.113 1.112a1.112 1.112 0 1 1 0-2.225c.616 0 1.113.497 1.113 1.113ZM274.886 181.997a1.113 1.113 0 1 0 0-2.225 1.113 1.113 0 0 0 0 2.225ZM285.992 180.884a1.112 1.112 0 1 1-2.226 0 1.112 1.112 0 1 1 2.226 0ZM294.884 181.997a1.113 1.113 0 1 0 0-2.225 1.113 1.113 0 0 0 0 2.225ZM306.001 180.884a1.112 1.112 0 1 1-1.113-1.113c.616 0 1.113.498 1.113 1.113ZM315.995 180.884a1.111 1.111 0 1 1-2.225 0 1.112 1.112 0 1 1 2.225 0ZM324.886 181.997a1.113 1.113 0 1 0 0-2.225 1.113 1.113 0 0 0 0 2.225ZM274.886 190.89a1.113 1.113 0 1 0 0-2.225 1.113 1.113 0 0 0 0 2.225ZM285.992 189.777a1.112 1.112 0 1 1-2.226 0 1.112 1.112 0 1 1 2.226 0ZM294.884 190.89a1.113 1.113 0 1 0 0-2.225 1.113 1.113 0 0 0 0 2.225ZM306.001 189.777a1.112 1.112 0 1 1-1.113-1.113c.616 0 1.113.497 1.113 1.113ZM315.995 189.777a1.111 1.111 0 1 1-2.225 0 1.111 1.111 0 1 1 2.225 0ZM324.886 190.89a1.113 1.113 0 1 0 0-2.225 1.113 1.113 0 0 0 0 2.225ZM275.999 198.668a1.112 1.112 0 1 1-2.226 0 1.112 1.112 0 1 1 2.226 0ZM285.992 198.668a1.113 1.113 0 1 1-2.225 0 1.113 1.113 0 0 1 2.225 0ZM295.997 198.668a1.112 1.112 0 1 1-2.226 0 1.112 1.112 0 1 1 2.226 0ZM306.001 198.668a1.112 1.112 0 1 1-2.226 0 1.112 1.112 0 1 1 2.226 0ZM315.995 198.668a1.112 1.112 0 1 1-2.225 0 1.111 1.111 0 1 1 2.225 0ZM325.999 198.668a1.112 1.112 0 1 1-2.226 0 1.112 1.112 0 1 1 2.226 0ZM274.886 208.673a1.113 1.113 0 1 0 0-2.225 1.113 1.113 0 0 0 0 2.225ZM285.992 207.56a1.112 1.112 0 1 1-2.226 0 1.112 1.112 0 1 1 2.226 0ZM294.884 208.673a1.113 1.113 0 1 0 0-2.225 1.113 1.113 0 0 0 0 2.225ZM306.001 207.56a1.112 1.112 0 1 1-1.113-1.113c.616 0 1.113.498 1.113 1.113ZM315.995 207.56a1.111 1.111 0 1 1-2.225 0 1.112 1.112 0 1 1 2.225 0ZM324.886 208.673a1.113 1.113 0 1 0 0-2.225 1.113 1.113 0 0 0 0 2.225ZM274.886 217.564a1.113 1.113 0 1 0 0-2.225 1.113 1.113 0 0 0 0 2.225ZM285.992 216.451a1.112 1.112 0 1 1-2.226 0 1.112 1.112 0 1 1 2.226 0ZM294.884 217.564a1.113 1.113 0 1 0 0-2.225 1.113 1.113 0 0 0 0 2.225ZM306.001 216.451a1.112 1.112 0 1 1-1.113-1.113c.616 0 1.113.497 1.113 1.113ZM315.995 216.451a1.111 1.111 0 1 1-2.225 0 1.111 1.111 0 1 1 2.225 0ZM324.886 217.564a1.113 1.113 0 1 0 0-2.225 1.113 1.113 0 0 0 0 2.225ZM275.999 225.332a1.112 1.112 0 1 1-2.226 0 1.112 1.112 0 1 1 2.226 0ZM285.992 225.332a1.113 1.113 0 1 1-2.225 0 1.113 1.113 0 0 1 2.225 0ZM295.997 225.332a1.112 1.112 0 1 1-2.226 0 1.112 1.112 0 1 1 2.226 0ZM306.001 225.332a1.112 1.112 0 1 1-2.226 0 1.112 1.112 0 1 1 2.226 0ZM315.995 225.332a1.112 1.112 0 1 1-2.225 0 1.111 1.111 0 1 1 2.225 0ZM325.999 225.332a1.112 1.112 0 1 1-2.226 0 1.112 1.112 0 1 1 2.226 0ZM274.886 235.337a1.113 1.113 0 1 0 0-2.225 1.113 1.113 0 0 0 0 2.225ZM285.992 234.224a1.112 1.112 0 1 1-2.226 0 1.112 1.112 0 1 1 2.226 0ZM294.884 235.337a1.113 1.113 0 1 0 0-2.225 1.113 1.113 0 0 0 0 2.225ZM306.001 234.224a1.112 1.112 0 1 1-1.113-1.113c.616 0 1.113.498 1.113 1.113ZM315.995 234.224a1.111 1.111 0 1 1-2.225 0 1.112 1.112 0 1 1 2.225 0ZM324.886 235.337a1.113 1.113 0 1 0 0-2.225 1.113 1.113 0 0 0 0 2.225ZM275.999 243.115a1.112 1.112 0 1 1-1.113-1.113c.616 0 1.113.497 1.113 1.113ZM285.992 243.115a1.112 1.112 0 1 1-2.226 0 1.112 1.112 0 1 1 2.226 0ZM295.997 243.115a1.112 1.112 0 1 1-1.113-1.113c.616 0 1.113.497 1.113 1.113ZM306.001 243.115a1.112 1.112 0 1 1-1.113-1.113c.616 0 1.113.497 1.113 1.113ZM315.995 243.115a1.111 1.111 0 1 1-2.225 0 1.111 1.111 0 1 1 2.225 0ZM325.999 243.115a1.112 1.112 0 1 1-1.113-1.113c.616 0 1.113.497 1.113 1.113ZM274.886 253.12a1.113 1.113 0 1 0 0-2.225 1.113 1.113 0 0 0 0 2.225ZM285.992 252.007a1.112 1.112 0 1 1-2.226 0c0-.615.497-1.112 1.113-1.112.615 0 1.113.497 1.113 1.112ZM294.884 253.12a1.113 1.113 0 1 0 0-2.225 1.113 1.113 0 0 0 0 2.225ZM306.001 252.007a1.112 1.112 0 1 1-1.113-1.112c.616 0 1.113.497 1.113 1.112ZM315.995 252.007a1.111 1.111 0 1 1-2.225 0 1.11 1.11 0 0 1 1.112-1.112c.616 0 1.113.497 1.113 1.112ZM324.886 253.12a1.113 1.113 0 1 0 0-2.225 1.113 1.113 0 0 0 0 2.225ZM274.886 261.999a1.113 1.113 0 1 0 0-2.225 1.113 1.113 0 0 0 0 2.225ZM285.992 260.886a1.112 1.112 0 1 1-2.226 0 1.112 1.112 0 1 1 2.226 0ZM294.884 261.999a1.113 1.113 0 1 0 0-2.225 1.113 1.113 0 0 0 0 2.225ZM306.001 260.886a1.112 1.112 0 1 1-1.113-1.113c.616 0 1.113.498 1.113 1.113ZM315.995 260.886a1.111 1.111 0 1 1-2.225 0 1.112 1.112 0 1 1 2.225 0ZM324.886 261.999a1.113 1.113 0 1 0 0-2.225 1.113 1.113 0 0 0 0 2.225Z"/></g></g><g clip-path="url(#f)" opacity=".9"><mask id="g" width="325" height="325" x="575" y="0" maskUnits="userSpaceOnUse" style="mask-type:luminance"><path fill="#fff" d="M900 324.877H575V0h325v324.877Z"/></mask><g mask="url(#g)"><path fill="#DADDF2" d="m899.991 163.715-25.276-25.283 25.283-25.277 25.276 25.284-25.283 25.276Z"/><path fill="#3B57AA" d="m897.646 217.27-10.647-10.654-10.653 10.654h21.3ZM897.648 219.22h-22.607l11.304 11.303 11.303-11.303ZM885.62 205.238l-11.304-11.297v22.6l11.304-11.303ZM884.963 231.902l-10.647-10.647v21.294l10.647-10.647ZM872.37 216.549v-22.607l-11.304 11.303 11.304 11.304ZM872.368 242.549v-21.301l-10.647 10.647 10.647 10.654ZM859.691 257.177l-11.629-11.628 12.273-12.272 11.628 11.628-12.272 12.272ZM871.803 138.439l-25.278-25.285-25.123 25.122 25.285 25.279 25.116-25.116ZM871.642 219.221h-22.601l11.304 11.297 11.297-11.297Z"/><path fill="#DADDF2" d="m870.992 84.144-10.647-10.653-10.654 10.653h21.301ZM870.989 192.563h-49.257l24.629 24.628.325-.325 13-13 11.303-11.303ZM870.99 190.613l-24.304-24.303-.162.162-24.141 24.141h48.607ZM870.99 86.095h-22.607l11.303 11.303 11.304-11.303Z"/><path fill="#3B57AA" d="m870.335 217.27-10.647-10.647-10.647 10.647h21.294Z"/><path fill="#DADDF2" d="m858.966 72.11-11.304-11.296v22.6l11.304-11.303Z"/><path fill="#3B57AA" d="m858.959 231.902-12.272-12.279-12.279 12.279 12.279 12.272 12.272-12.272ZM846.683 270.183l-11.628-11.628 11.628-11.629 11.628 11.629-11.628 11.628Z"/><path fill="#DADDF2" d="m858.309 98.775-10.647-10.647v21.294l10.647-10.647ZM845.712 83.414v-22.6L834.408 72.11l11.304 11.303ZM845.712 109.422v-21.3l-10.653 10.653 10.653 10.647Z"/><path fill="#3B57AA" d="M833.679 257.182 821.4 244.91l11.625-11.631 12.279 12.272-11.625 11.631Z"/><path fill="#DADDF2" d="M845.147 165.095 821 140.954v48.288l24.147-24.147ZM819.777 296.843l-25.154-25.161 25.282-25.275 25.154 25.161-25.282 25.275ZM844.985 218.57 821 194.585v47.964l12.032-12.025 11.953-11.954ZM844.984 86.095h-22.607l11.303 11.303 11.304-11.303ZM843.684 84.144 833.03 73.491l-10.653 10.653h21.307ZM819.048 189.885v-49.257l-24.628 24.628 24.628 24.629ZM819.05 242.549v-48.607l-24.304 24.303 24.304 24.304Z"/><path fill="#3B57AA" d="m817.672 243.934-10.647-10.654-10.654 10.654h21.301Z"/><path fill="#DADDF2" d="m793.366 216.867 24.303-24.303h-48.607l24.304 24.303Z"/><path fill="#3B57AA" d="M817.547 297.369 806.9 286.716l-10.654 10.653h21.301ZM817.547 299.32h-22.594l11.297 11.297 11.297-11.297ZM806.252 257.057l11.173-11.174h-22.347l11.174 11.174Z"/><path fill="#DADDF2" d="m817.02 190.613-23.979-23.978-23.979 23.978h47.958Z"/><path fill="#3B57AA" d="m805.645 231.902-11.303-11.297v22.6l11.303-11.303ZM805.522 285.337l-11.303-11.297v22.601l11.303-11.304ZM794.342 268.971l10.53-10.537-10.53-10.53v21.067ZM804.872 311.995l-10.653-10.654v21.307l10.653-10.653ZM792.391 243.197v-22.6L781.088 231.9l11.303 11.297ZM792.392 269.211v-21.307l-10.654 10.653 10.654 10.654ZM792.268 296.635v-22.594l-11.297 11.297 11.297 11.297ZM792.268 322.648v-21.3l-10.647 10.647 10.647 10.653Z"/><path fill="#DADDF2" d="m779.593 283.961 12.272-12.279-.117-.117.117-.123-25.155-25.155-25.278 25.278 25.278 25.279 12.883-12.883Z"/><path fill="#3B57AA" d="m766.583 110.718-25.278-25.279 25.278-25.278 25.278 25.278-25.278 25.279Z"/><path fill="#DADDF2" d="m807.017 50.554-25.279-25.279L807.017-.003l25.278 25.278-25.278 25.279ZM685.355 216.864l-25.279-25.278 25.279-25.278 25.278 25.278-25.278 25.278Z"/><path fill="#3B57AA" d="m780.361 257.18 11.297-11.297H769.07l11.291 11.297ZM791.542 299.32h-22.601l11.304 11.297 11.297-11.297Z"/><path fill="#DADDF2" d="m779.712 230.523 11.303-11.303h-22.607l11.304 11.303ZM791.015 217.27l-10.647-10.647-10.647 10.647h21.294Z"/><path fill="#3B57AA" d="m790.369 243.934-10.653-10.654-10.654 10.654h21.307ZM790.248 297.369l-10.653-10.653-10.654 10.653h21.307Z"/><path fill="#DADDF2" d="m778.983 205.244-11.297-11.303v22.6l11.297-11.297ZM767.686 242.549l10.647-10.647-10.647-10.647v21.294ZM765.735 216.549v-22.607l-11.303 11.303 11.303 11.304ZM765.735 242.549v-21.301l-10.647 10.654 10.647 10.647Z"/><path fill="#3B57AA" d="m753.135 150.633-11.623-11.623 12.273-12.274 11.624 11.624-12.274 12.273Z"/><path fill="#DADDF2" d="M765.332 244.908v-.007l-25.278-25.272-25.279 25.279 25.279 25.272 25.278-25.272ZM765.332 298.222l-25.278-25.279-25.279 25.279 25.279 25.278 25.155-25.155.123-.123ZM765.332 191.589l-25.2-25.201-.078-.078-25.279 25.279 25.279 25.278 13-13 12.278-12.278ZM765.009 219.221h-22.601l11.304 11.297 11.297-11.297ZM763.702 217.27l-10.647-10.647-10.647 10.647h21.294ZM752.412 125.346l-12.279-12.272-12.272 12.272 12.272 12.279 12.279-12.279ZM751.762 152.002l-11.628-11.622-11.622 11.629 11.544 11.544.078.078 11.628-11.629Z"/><path fill="#3B57AA" d="m738.754 139.003-12.272-12.279-11.628 11.629 12.278 12.272 11.622-11.622ZM713.39 296.841l-25.279-25.279 25.279-25.278 25.278 25.279-25.278 25.278ZM660.077 350.153l-25.278-25.278 25.278-25.278 25.279 25.278-25.279 25.278Z"/><path fill="#DADDF2" d="m660.073 296.967-25.276-25.283 25.283-25.277 25.276 25.284-25.283 25.276Z"/></g><g fill="#CFD2E6" clip-path="url(#h)"><path d="M577.11 159.331a1.11 1.11 0 1 1-2.22.002 1.11 1.11 0 0 1 2.22-.002ZM587.08 159.331a1.11 1.11 0 1 1-2.222.002 1.11 1.11 0 0 1 2.222-.002ZM597.065 159.331a1.11 1.11 0 0 1-1.111 1.111c-.614 0-1.11-.496-1.11-1.111 0-.614.496-1.11 1.11-1.11.615 0 1.111.496 1.111 1.11ZM607.047 159.331c0 .615-.496 1.111-1.11 1.111a1.11 1.11 0 0 1-1.111-1.111c0-.614.496-1.11 1.111-1.11.614 0 1.11.496 1.11 1.11ZM617.018 159.331a1.11 1.11 0 0 1-1.111 1.111c-.614 0-1.11-.496-1.11-1.111 0-.614.496-1.11 1.11-1.11.615 0 1.111.496 1.111 1.11ZM627 159.331c0 .615-.496 1.111-1.11 1.111a1.11 1.11 0 0 1-1.111-1.111c0-.614.496-1.11 1.111-1.11.614 0 1.11.496 1.11 1.11ZM577.11 168.204a1.11 1.11 0 1 1-2.22.002 1.11 1.11 0 0 1 2.22-.002ZM587.08 168.204a1.11 1.11 0 1 1-2.222.002 1.11 1.11 0 0 1 2.222-.002ZM597.065 168.204a1.11 1.11 0 0 1-1.111 1.111c-.614 0-1.11-.496-1.11-1.111 0-.614.496-1.11 1.11-1.11.615 0 1.111.496 1.111 1.11ZM607.047 168.204c0 .615-.496 1.111-1.11 1.111a1.11 1.11 0 0 1-1.111-1.111c0-.614.496-1.11 1.111-1.11.614 0 1.11.496 1.11 1.11ZM617.018 168.204a1.11 1.11 0 0 1-1.111 1.111c-.614 0-1.11-.496-1.11-1.111 0-.614.496-1.11 1.11-1.11.615 0 1.111.496 1.111 1.11ZM627 168.204c0 .615-.496 1.111-1.11 1.111a1.11 1.11 0 0 1-1.111-1.111c0-.614.496-1.11 1.111-1.11.614 0 1.11.496 1.11 1.11ZM575.999 178.174a1.11 1.11 0 1 0 0-2.222 1.11 1.11 0 0 0 0 2.222ZM587.08 177.064a1.11 1.11 0 1 1-1.11-1.111c.614 0 1.11.496 1.11 1.111ZM595.954 178.174a1.11 1.11 0 1 0 .001-2.22 1.11 1.11 0 0 0-.001 2.22ZM605.937 178.174a1.11 1.11 0 1 0 0-2.22 1.11 1.11 0 0 0 0 2.22ZM617.018 177.064c0 .614-.496 1.11-1.111 1.11-.614 0-1.11-.496-1.11-1.11 0-.615.496-1.111 1.11-1.111a1.11 1.11 0 0 1 1.111 1.111ZM627 177.064c0 .614-.496 1.11-1.11 1.11a1.109 1.109 0 0 1-1.111-1.11 1.11 1.11 0 0 1 1.111-1.111c.614 0 1.11.496 1.11 1.111ZM575.999 187.047a1.11 1.11 0 1 0 0-2.222 1.11 1.11 0 0 0 0 2.222ZM587.08 185.937a1.11 1.11 0 1 1-1.11-1.111c.614 0 1.11.496 1.11 1.111ZM595.954 187.047a1.11 1.11 0 1 0 .001-2.22 1.11 1.11 0 0 0-.001 2.22ZM605.937 187.047a1.11 1.11 0 1 0 0-2.22 1.11 1.11 0 0 0 0 2.22ZM617.018 185.937c0 .614-.496 1.11-1.111 1.11-.614 0-1.11-.496-1.11-1.11 0-.615.496-1.111 1.11-1.111a1.11 1.11 0 0 1 1.111 1.111ZM627 185.937c0 .614-.496 1.11-1.11 1.11a1.109 1.109 0 0 1-1.111-1.11 1.11 1.11 0 0 1 1.111-1.111c.614 0 1.11.496 1.11 1.111ZM577.11 194.808a1.11 1.11 0 1 1-2.221 0 1.11 1.11 0 1 1 2.221 0ZM587.08 194.808a1.11 1.11 0 1 1-1.11-1.111c.614 0 1.11.496 1.11 1.111ZM597.065 194.808c0 .614-.496 1.11-1.111 1.11-.614 0-1.11-.496-1.11-1.11 0-.615.496-1.111 1.11-1.111a1.11 1.11 0 0 1 1.111 1.111ZM607.047 194.808c0 .614-.496 1.11-1.11 1.11a1.109 1.109 0 0 1-1.111-1.11 1.11 1.11 0 0 1 1.111-1.111c.614 0 1.11.496 1.11 1.111ZM617.018 194.808c0 .614-.496 1.11-1.111 1.11-.614 0-1.11-.496-1.11-1.11 0-.615.496-1.111 1.11-1.111a1.11 1.11 0 0 1 1.111 1.111ZM627 194.808c0 .614-.496 1.11-1.11 1.11a1.109 1.109 0 0 1-1.111-1.11 1.11 1.11 0 0 1 1.111-1.111c.614 0 1.11.496 1.11 1.111ZM575.999 204.791a1.11 1.11 0 1 0 0-2.222 1.11 1.11 0 0 0 0 2.222ZM587.08 203.681a1.11 1.11 0 1 1-1.11-1.111c.614 0 1.11.496 1.11 1.111ZM595.954 204.791a1.11 1.11 0 1 0 .001-2.22 1.11 1.11 0 0 0-.001 2.22ZM605.937 204.791a1.11 1.11 0 1 0 0-2.22 1.11 1.11 0 0 0 0 2.22ZM617.018 203.681c0 .614-.496 1.11-1.111 1.11-.614 0-1.11-.496-1.11-1.11 0-.615.496-1.111 1.11-1.111a1.11 1.11 0 0 1 1.111 1.111ZM627 203.681c0 .614-.496 1.11-1.11 1.11a1.109 1.109 0 0 1-1.111-1.11 1.11 1.11 0 0 1 1.111-1.111c.614 0 1.11.496 1.11 1.111ZM575.999 213.662a1.11 1.11 0 1 0 0-2.222 1.11 1.11 0 0 0 0 2.222ZM587.08 212.552a1.11 1.11 0 1 1-1.11-1.111c.614 0 1.11.497 1.11 1.111ZM595.954 213.662a1.11 1.11 0 1 0 .001-2.22 1.11 1.11 0 0 0-.001 2.22ZM605.937 213.662a1.11 1.11 0 1 0 0-2.22 1.11 1.11 0 0 0 0 2.22ZM617.018 212.552c0 .614-.496 1.11-1.111 1.11a1.11 1.11 0 1 1 1.111-1.11ZM627 212.552c0 .614-.496 1.11-1.11 1.11a1.11 1.11 0 1 1 1.11-1.11ZM577.11 221.413a1.11 1.11 0 1 1-2.22.002 1.11 1.11 0 0 1 2.22-.002ZM587.08 221.413a1.11 1.11 0 1 1-2.222.002 1.11 1.11 0 0 1 2.222-.002ZM597.065 221.413a1.11 1.11 0 0 1-1.111 1.111c-.614 0-1.11-.496-1.11-1.111 0-.614.496-1.11 1.11-1.11.615 0 1.111.496 1.111 1.11ZM607.047 221.413c0 .615-.496 1.111-1.11 1.111a1.11 1.11 0 0 1-1.111-1.111c0-.614.496-1.11 1.111-1.11.614 0 1.11.496 1.11 1.11ZM617.018 221.413a1.11 1.11 0 0 1-1.111 1.111c-.614 0-1.11-.496-1.11-1.111 0-.614.496-1.11 1.11-1.11.615 0 1.111.496 1.111 1.11ZM627 221.413c0 .615-.496 1.111-1.11 1.111a1.11 1.11 0 0 1-1.111-1.111c0-.614.496-1.11 1.111-1.11.614 0 1.11.496 1.11 1.11ZM575.999 231.395a1.111 1.111 0 1 0 0-2.222 1.111 1.111 0 0 0 0 2.222ZM587.08 230.284a1.11 1.11 0 1 1-2.222.002 1.11 1.11 0 0 1 2.222-.002ZM595.954 231.395a1.11 1.11 0 1 0 .001-2.22 1.11 1.11 0 0 0-.001 2.22ZM605.937 231.395a1.11 1.11 0 1 0 0-2.22 1.11 1.11 0 0 0 0 2.22ZM617.018 230.284a1.11 1.11 0 0 1-1.111 1.111c-.614 0-1.11-.496-1.11-1.111 0-.614.496-1.11 1.11-1.11.615 0 1.111.496 1.111 1.11ZM627 230.284c0 .615-.496 1.111-1.11 1.111a1.11 1.11 0 0 1-1.111-1.111c0-.614.496-1.11 1.111-1.11.614 0 1.11.496 1.11 1.11ZM577.11 239.157a1.11 1.11 0 1 1-2.22.002 1.11 1.11 0 0 1 2.22-.002ZM587.08 239.157a1.11 1.11 0 1 1-2.222.002 1.11 1.11 0 0 1 2.222-.002ZM597.065 239.157a1.11 1.11 0 0 1-1.111 1.111c-.614 0-1.11-.496-1.11-1.111 0-.614.496-1.11 1.11-1.11.615 0 1.111.496 1.111 1.11ZM607.047 239.157c0 .615-.496 1.111-1.11 1.111a1.11 1.11 0 0 1-1.111-1.111c0-.614.496-1.11 1.111-1.11.614 0 1.11.496 1.11 1.11ZM617.018 239.157a1.11 1.11 0 0 1-1.111 1.111c-.614 0-1.11-.496-1.11-1.111 0-.614.496-1.11 1.11-1.11.615 0 1.111.496 1.111 1.11ZM627 239.157c0 .615-.496 1.111-1.11 1.111a1.11 1.11 0 0 1-1.111-1.111c0-.614.496-1.11 1.111-1.11.614 0 1.11.496 1.11 1.11ZM575.999 249.139a1.111 1.111 0 1 0 0-2.222 1.111 1.111 0 0 0 0 2.222ZM587.08 248.028a1.11 1.11 0 1 1-2.222.002 1.11 1.11 0 0 1 2.222-.002ZM595.954 249.139a1.11 1.11 0 1 0 .001-2.22 1.11 1.11 0 0 0-.001 2.22ZM605.937 249.139a1.11 1.11 0 1 0 0-2.22 1.11 1.11 0 0 0 0 2.22ZM617.018 248.028a1.11 1.11 0 0 1-1.111 1.111c-.614 0-1.11-.496-1.11-1.111 0-.614.496-1.11 1.11-1.11.615 0 1.111.496 1.111 1.11ZM627 248.028c0 .615-.496 1.111-1.11 1.111a1.11 1.11 0 0 1-1.111-1.111c0-.614.496-1.11 1.111-1.11.614 0 1.11.496 1.11 1.11ZM575.999 258a1.11 1.11 0 1 0 0-2.222 1.11 1.11 0 0 0 0 2.222ZM587.08 256.89a1.11 1.11 0 1 1-1.11-1.111c.614 0 1.11.496 1.11 1.111ZM595.954 258a1.11 1.11 0 1 0 .001-2.22 1.11 1.11 0 0 0-.001 2.22ZM605.937 258a1.11 1.11 0 1 0 0-2.22 1.11 1.11 0 0 0 0 2.22ZM617.018 256.89c0 .614-.496 1.11-1.111 1.11-.614 0-1.11-.496-1.11-1.11 0-.615.496-1.111 1.11-1.111a1.11 1.11 0 0 1 1.111 1.111ZM627 256.89c0 .614-.496 1.11-1.11 1.11a1.109 1.109 0 0 1-1.111-1.11 1.11 1.11 0 0 1 1.111-1.111c.614 0 1.11.496 1.11 1.111Z"/></g></g><g fill-rule="evenodd" clip-path="url(#i)" clip-rule="evenodd"><path fill="url(#j)" d="M281.908 33.924c-.131-.238-.205-.386-.287-.517-2.526-4.118-5.069-8.235-7.579-12.353-.262-.434-.558-.623-1.066-.64-4.807-.114-9.613-.246-14.412-.377-.188 0-.377.017-.656.033.123.262.205.46.312.64 2.493 4.068 5.003 8.136 7.497 12.205.229.369.443.631.968.648 4.913.106 9.826.262 14.739.402.107 0 .222-.017.476-.033l.008-.008Zm-1.058-.575h-.574c-4.38-.114-8.768-.246-13.148-.352-.517-.008-.804-.222-1.067-.648-2.239-3.667-4.495-7.333-6.742-10.991-.115-.18-.205-.378-.353-.648.304-.017.517-.05.73-.041 4.331.114 8.654.246 12.985.344.525.008.795.23 1.049.648 2.223 3.642 4.463 7.276 6.694 10.917.131.214.237.427.418.771h.008Z"/><path fill="url(#k)" d="M281.5 44.043c-.213-.017-.345-.05-.484-.042-4.919.14-9.837.28-14.763.405-.37.008-.616.115-.821.454a4117.244 4117.244 0 0 1-7.768 12.718c-.057.09-.09.198-.164.38.296.016.534.049.772.04 4.754-.123 9.5-.255 14.254-.379.443-.008.78-.083 1.051-.52 2.594-4.275 5.205-8.534 7.808-12.792.033-.05.041-.1.115-.264Zm-22.933 13.279c.148-.28.247-.504.378-.71 2.225-3.64 4.459-7.263 6.659-10.91.312-.52.673-.727 1.273-.743 4.22-.1 8.432-.223 12.652-.339h.879c-.074.198-.09.306-.148.396-2.356 3.855-4.713 7.709-7.061 11.563-.205.338-.468.43-.829.438-4.418.115-8.827.239-13.244.363-.156 0-.32-.033-.559-.05v-.008Z"/></g><path fill="#073671" d="M341.382 54h-4.216l-4.692-9.588c-1.462-2.992-2.89-7.038-2.89-7.038s.578 4.828.578 7.82V54h-4.76V30.2h4.488l4.284 8.738c1.7 3.468 2.992 7.378 2.992 7.378s-.544-5.202-.544-7.82V30.2h4.76V54Zm20.192-9.01c0 8.16-4.624 9.35-8.228 9.35-3.638 0-8.228-1.292-8.228-9.35 0-7.854 4.454-9.35 8.228-9.35 3.74 0 8.228 1.258 8.228 9.35Zm-4.76 0c0-5.576-1.598-5.984-3.468-5.984-1.87 0-3.468.612-3.468 5.984 0 5.304 1.938 5.95 3.468 5.95s3.468-.612 3.468-5.95Zm32.655-9.01L385.695 54h-6.494l-1.496-7.31c-.51-2.448-1.496-7.888-1.496-7.888s-1.088 5.372-1.53 7.718L373.217 54h-6.494l-3.774-18.02h5.236l1.054 8.398c.272 2.21.748 7.038.748 7.038s.748-4.692 1.224-7.038l1.768-8.398h6.46l1.768 8.398c.442 2.142 1.156 7.038 1.156 7.038s.476-4.896.782-7.038l1.156-8.398h5.168Zm27.527-5.78-6.63 14.858V54h-4.76v-8.942l-6.63-14.858h5.406l3.604 10.812L411.59 30.2h5.406Zm17.128 14.79c0 8.16-4.624 9.35-8.228 9.35-3.638 0-8.228-1.292-8.228-9.35 0-7.854 4.454-9.35 8.228-9.35 3.74 0 8.228 1.258 8.228 9.35Zm-4.76 0c0-5.576-1.598-5.984-3.468-5.984-1.87 0-3.468.612-3.468 5.984 0 5.304 1.938 5.95 3.468 5.95s3.468-.612 3.468-5.95ZM452.669 54h-3.91l-.646-1.904s-2.346 2.244-5.304 2.244c-2.89 0-5.1-1.292-5.1-5.27V35.98h4.76v12.58c0 1.666.816 1.904 1.802 1.904 1.666 0 3.638-1.224 3.638-1.224V35.98h4.76V54Zm27.184-.578s-1.802.918-4.828.918c-3.978 0-8.432-1.258-8.432-12.24 0-11.016 5.61-12.24 8.874-12.24 2.686 0 4.386.85 4.386.85v3.842s-2.312-.816-4.148-.816c-2.312 0-4.352 1.394-4.352 8.364 0 6.222 1.462 8.33 4.012 8.33 2.176 0 4.488-.85 4.488-.85v3.842Zm16.489.578h-4.148l-.51-1.598s-1.768 1.938-4.862 1.938c-2.21 0-5.1-.918-5.1-5.814 0-4.93 4.046-5.78 6.732-5.78h3.128v-1.292c0-1.768-.918-1.972-2.55-1.972-2.55 0-5.678 1.02-5.678 1.02v-3.774s3.094-1.088 6.494-1.088c3.536 0 6.494.884 6.494 5.848V54Zm-4.76-4.08v-4.556l-1.36.034c-2.686.068-3.74.714-3.74 3.026 0 1.87.85 2.38 2.074 2.38 1.666 0 3.026-.884 3.026-.884ZM516.906 54h-4.76V41.284c0-1.292-.51-1.7-2.04-1.7-2.04 0-4.08 1.292-4.08 1.292V54h-4.76V35.98h3.978l.68 1.938s2.686-2.278 5.984-2.278c2.992 0 4.998 1.326 4.998 5.372V54Zm30.771-.884s-4.182 1.224-7.922 1.224c-4.386 0-9.078-1.224-9.078-11.9 0-10.642 5.678-12.58 10.404-12.58 3.4 0 5.576 1.224 5.576 1.224v3.808s-3.162-1.19-5.576-1.19c-2.414 0-5.644 1.292-5.644 8.398 0 7.514 2.516 8.432 4.25 8.432 1.428 0 3.23-.34 3.23-.34v-7.174h-3.23l-.34-3.638h8.33v13.736Zm18.87-8.126-.034 1.564h-10.2c.102 3.536 2.108 4.012 3.604 4.012 2.414 0 5.508-.918 5.508-.918v3.774s-2.584.918-5.508.918c-3.74 0-8.33-.986-8.33-9.35 0-7.582 4.012-9.35 7.65-9.35 3.4 0 7.48 1.632 7.31 9.35Zm-4.658-1.428c-.068-3.876-.918-4.828-2.652-4.828-2.04 0-2.856 1.224-2.924 4.828h5.576Zm18.433 9.996s-2.04.782-4.25.782c-2.448 0-4.93-.612-4.93-4.862V39.176h-3.06V35.98h3.06l.34-3.978 4.42-1.462v5.44h4.08l-.476 3.196h-3.604V49.41c0 1.02.544 1.156 1.156 1.156.782 0 3.264-.612 3.264-.612v3.604Z"/><g fill-rule="evenodd" clip-path="url(#l)" clip-rule="evenodd"><path fill="url(#m)" d="M621.092 33.924c.131-.238.205-.386.287-.517 2.526-4.118 5.069-8.235 7.579-12.353.262-.434.558-.623 1.066-.64 4.807-.114 9.613-.246 14.412-.377.188 0 .377.017.656.033-.123.262-.205.46-.312.64-2.493 4.068-5.003 8.136-7.497 12.205-.229.369-.443.631-.968.648-4.913.106-9.826.262-14.739.402-.107 0-.222-.017-.476-.033l-.008-.008Zm1.058-.575h.574c4.38-.114 8.768-.246 13.148-.352.517-.008.804-.222 1.067-.648 2.239-3.667 4.495-7.333 6.742-10.991.115-.18.205-.378.353-.648-.304-.017-.517-.05-.73-.041-4.331.114-8.654.246-12.985.344-.525.008-.795.23-1.049.648-2.223 3.642-4.463 7.276-6.694 10.917-.131.214-.237.427-.418.771h-.008Z"/><path fill="url(#n)" d="M621.5 44.043c.213-.017.345-.05.484-.042 4.919.14 9.837.28 14.763.405.37.008.616.115.821.454 2.579 4.242 5.173 8.484 7.768 12.718.057.09.09.198.164.38-.296.016-.534.049-.772.04-4.754-.123-9.5-.255-14.254-.379-.443-.008-.78-.083-1.051-.52-2.594-4.275-5.205-8.534-7.808-12.792-.033-.05-.041-.1-.115-.264Zm22.933 13.279c-.148-.28-.247-.504-.378-.71-2.225-3.64-4.459-7.263-6.659-10.91-.312-.52-.673-.727-1.273-.743-4.22-.1-8.432-.223-12.652-.339h-.879c.074.198.09.306.148.396 2.356 3.855 4.713 7.709 7.061 11.563.205.338.468.43.829.438 4.418.115 8.827.239 13.244.363.156 0 .32-.033.559-.05v-.008Z"/></g><path fill="url(#o)" d="M227.842 87.36c0 6.426-3.638 8.228-10.2 8.364V103h-4.76V79.2h5.848c5.576 0 9.112 1.258 9.112 8.16Zm-4.76 0c0-4.148-1.7-4.488-3.876-4.488h-1.564v9.52c3.502-.102 5.44-.714 5.44-5.032Zm21.584-8.16-.34 4.046h-8.33v5.134h7.14v3.672h-7.14v6.902h8.5V103h-13.26V79.2h13.43Zm15.066 19.754L259.29 103h-11.56V79.2h4.76v19.754h7.242Zm14.632-2.584c0 5.814-4.352 6.97-7.752 6.97-3.026 0-5.644-.85-5.644-.85v-4.08s3.332 1.02 4.964 1.02c1.938 0 3.672-.578 3.672-2.89 0-2.108-1.224-2.754-2.856-3.672l-2.142-1.19c-2.006-1.122-3.842-2.856-3.842-6.222 0-5.202 4.284-6.596 7.412-6.596 3.332 0 5.168.918 5.168.918v3.876s-2.55-.986-4.828-.986c-1.7 0-3.06.612-3.06 2.516 0 1.666 1.088 2.346 2.482 3.128l2.04 1.122c2.176 1.19 4.386 2.924 4.386 6.936Zm19.039-.17c0 6.052-3.774 6.8-9.792 6.8h-5.848V79.2h5.848c5.474 0 9.112.85 9.112 6.086 0 3.842-2.38 4.862-4.42 5.338 2.176.442 5.1 1.19 5.1 5.576Zm-5.44-10.642c0-2.618-1.53-2.856-4.182-2.856h-1.258v6.358h1.428c2.584 0 4.012-.408 4.012-3.502Zm.68 10.472c0-3.06-1.632-3.57-4.692-3.57h-1.428v7.038h1.326c2.89 0 4.794-.204 4.794-3.468Zm24.814 6.97h-5.032l-.986-4.624h-6.664l-.986 4.624h-5.032l6.392-23.8h5.916l6.392 23.8Zm-6.8-8.296-1.258-5.916c-.612-2.822-1.292-6.562-1.292-6.562s-.68 3.638-1.292 6.562l-1.258 5.916h5.1ZM331.471 103h-5.406l-1.462-5.406c-.578-2.176-1.462-3.706-2.074-4.352l-1.938.17V103h-4.76V79.2h6.528c5.1 0 8.772 1.19 8.772 6.732 0 3.774-1.7 5.542-4.318 6.46.918.578 1.768 2.108 2.346 3.774l2.312 6.834Zm-5.1-16.966c0-2.278-1.224-3.06-4.25-3.06h-1.53v7.106c3.23-.306 5.78-.544 5.78-4.046ZM350.861 103h-4.216l-4.692-9.588c-1.462-2.992-2.89-7.038-2.89-7.038s.578 4.828.578 7.82V103h-4.76V79.2h4.488l4.284 8.738c1.7 3.468 2.992 7.378 2.992 7.378s-.544-5.202-.544-7.82V79.2h4.76V103Zm11.352-24.82-2.788 11.05h-3.468l.544-11.05h5.712Zm15.996 18.19c0 5.814-4.352 6.97-7.752 6.97-3.026 0-5.644-.85-5.644-.85v-4.08s3.332 1.02 4.964 1.02c1.938 0 3.672-.578 3.672-2.89 0-2.108-1.224-2.754-2.856-3.672l-2.142-1.19c-2.006-1.122-3.842-2.856-3.842-6.222 0-5.202 4.284-6.596 7.412-6.596 3.332 0 5.168.918 5.168.918v3.876s-2.55-.986-4.828-.986c-1.7 0-3.06.612-3.06 2.516 0 1.666 1.088 2.346 2.482 3.128l2.04 1.122c2.176 1.19 4.386 2.924 4.386 6.936Zm28.586-.714c0 4.862-2.006 7.684-7.752 7.684-5.984 0-7.752-2.686-7.752-7.684V79.2h4.76v16.32c0 2.924.782 4.012 2.992 4.012 2.04 0 2.992-1.02 2.992-4.012V79.2h4.76v16.456ZM427.72 103h-4.216l-4.692-9.588c-1.462-2.992-2.89-7.038-2.89-7.038s.578 4.828.578 7.82V103h-4.76V79.2h4.488l4.284 8.738c1.7 3.468 2.992 7.378 2.992 7.378s-.544-5.202-.544-7.82V79.2h4.76V103Zm9.924 0h-4.828V79.2h4.828V103Zm20.732-11.9c0 9.792-3.502 11.764-6.732 12.138l3.162 6.222h-5.44l-1.258-6.222c-3.298-.408-6.732-2.414-6.732-12.138 0-11.492 5.134-12.24 8.5-12.24 3.366 0 8.5.816 8.5 12.24Zm-4.76 0c0-7.14-1.462-8.84-3.74-8.84-2.38 0-3.74 1.564-3.74 8.84 0 7.378 1.734 8.908 3.74 8.908 2.074 0 3.74-1.428 3.74-8.908Zm23.836 4.556c0 4.862-2.006 7.684-7.752 7.684-5.984 0-7.752-2.686-7.752-7.684V79.2h4.76v16.32c0 2.924.782 4.012 2.992 4.012 2.04 0 2.992-1.02 2.992-4.012V79.2h4.76v16.456ZM495.827 79.2l-.34 4.046h-8.33v5.134h7.14v3.672h-7.14v6.902h8.5V103h-13.26V79.2h13.43Zm25.158 23.222s-1.802.918-4.828.918c-3.978 0-8.432-1.258-8.432-12.24 0-11.016 5.61-12.24 8.874-12.24 2.686 0 4.386.85 4.386.85v3.842s-2.312-.816-4.148-.816c-2.312 0-4.352 1.394-4.352 8.364 0 6.222 1.462 8.33 4.012 8.33 2.176 0 4.488-.85 4.488-.85v3.842ZM539.684 91.1c0 11.594-4.93 12.24-8.5 12.24-3.672 0-8.5-.748-8.5-12.24s5.134-12.24 8.5-12.24c3.366 0 8.5.816 8.5 12.24Zm-4.76 0c0-7.14-1.428-8.84-3.74-8.84-2.38 0-3.74 1.564-3.74 8.84 0 7.378 1.734 8.84 3.74 8.84 2.074 0 3.74-1.36 3.74-8.84Zm24.142 0c0 11.594-4.93 12.24-8.5 12.24-3.672 0-8.5-.748-8.5-12.24s5.134-12.24 8.5-12.24c3.366 0 8.5.816 8.5 12.24Zm-4.76 0c0-7.14-1.428-8.84-3.74-8.84-2.38 0-3.74 1.564-3.74 8.84 0 7.378 1.734 8.84 3.74 8.84 2.074 0 3.74-1.36 3.74-8.84Zm20.505 7.854-.442 4.046h-11.56V79.2h4.76v19.754h7.242Zm7.56 4.046h-4.828V79.2h4.828V103Zm21.072 0h-4.216l-4.692-9.588c-1.462-2.992-2.89-7.038-2.89-7.038s.578 4.828.578 7.82V103h-4.76V79.2h4.488l4.284 8.738c1.7 3.468 2.992 7.378 2.992 7.378s-.544-5.202-.544-7.82V79.2h4.76V103Zm21.076-.884s-4.182 1.224-7.922 1.224c-4.386 0-9.078-1.224-9.078-11.9 0-10.642 5.678-12.58 10.404-12.58 3.4 0 5.576 1.224 5.576 1.224v3.808s-3.162-1.19-5.576-1.19c-2.414 0-5.644 1.292-5.644 8.398 0 7.514 2.516 8.432 4.25 8.432 1.428 0 3.23-.34 3.23-.34v-7.174h-3.23l-.34-3.638h8.33v13.736Zm30.423-5.916c0 6.052-3.774 6.8-9.792 6.8h-5.848V79.2h5.848c5.474 0 9.112.85 9.112 6.086 0 3.842-2.38 4.862-4.42 5.338 2.176.442 5.1 1.19 5.1 5.576Zm-5.44-10.642c0-2.618-1.53-2.856-4.182-2.856h-1.258v6.358h1.428c2.584 0 4.012-.408 4.012-3.502Zm.68 10.472c0-3.06-1.632-3.57-4.692-3.57h-1.428v7.038h1.326c2.89 0 4.794-.204 4.794-3.468Zm22.265-16.83-.34 4.046h-8.33v5.134h7.14v3.672h-7.14v6.902h8.5V103h-13.26V79.2h13.43Zm19.044 11.9c0 10.132-4.148 11.9-10.812 11.9h-5.168V79.2h5.168c6.664 0 10.812 1.53 10.812 11.9Zm-4.76 0c0-7.004-1.87-8.194-4.93-8.194h-1.53v16.388h1.258c3.23 0 5.202-1.122 5.202-8.194Z"/><g clip-path="url(#p)"><path fill="#E1F4FC" d="M450.5 117.912 331 218.001l119.5 100.088L570 218.001 450.5 117.912Z"/><path fill="#1B274C" d="M410.449 176v-9.998h1.435c.625 0 1.114.018 1.465.052 1.011.102 1.831.385 2.461.849a4.674 4.674 0 0 1 1.538 1.941c.283.65.425 1.363.425 2.139 0 1.221-.342 2.283-1.025 3.186-.767 1.011-1.729 1.592-2.886 1.743-.469.059-.952.088-1.45.088h-1.963Zm.901-.798h1.018c.61 0 1.059-.022 1.347-.066.982-.142 1.763-.63 2.344-1.465.493-.713.74-1.597.74-2.651 0-1.133-.288-2.068-.864-2.806-.611-.786-1.512-1.24-2.703-1.362a14.545 14.545 0 0 0-1.34-.051h-.542v8.401Zm10.873.798v-9.998h.901V176h-.901Zm5.146-1.904.784-.388c.146.366.273.639.381.82.332.552.83.827 1.494.827.591 0 1.067-.224 1.428-.673.254-.313.381-.716.381-1.209 0-.556-.166-1.025-.498-1.406-.215-.244-.623-.523-1.223-.835-.782-.41-1.311-.74-1.59-.989a2.442 2.442 0 0 1-.63-.871 2.688 2.688 0 0 1-.227-1.084c0-.865.33-1.524.989-1.978.43-.303.955-.454 1.575-.454.854 0 1.516.305 1.985.915.166.215.317.489.454.821l-.791.395a3.546 3.546 0 0 0-.366-.666 1.58 1.58 0 0 0-1.333-.667c-.459 0-.845.157-1.158.469-.283.283-.424.652-.424 1.106 0 .498.178.933.534 1.304.205.215.576.459 1.114.732.815.415 1.384.789 1.706 1.121.542.547.813 1.218.813 2.014 0 .859-.3 1.565-.901 2.117-.464.424-1.074.637-1.831.637-.757 0-1.34-.188-1.75-.564-.381-.352-.686-.85-.916-1.494Zm17.026 1.501a5.644 5.644 0 0 1-2.49.549c-1.651 0-2.979-.595-3.985-1.787-.83-.981-1.245-2.094-1.245-3.339 0-.728.154-1.434.462-2.117a5.264 5.264 0 0 1 1.296-1.773c.957-.854 2.122-1.281 3.494-1.281.879 0 1.701.185 2.468.556v.989c-.806-.498-1.636-.747-2.49-.747-.64 0-1.243.129-1.809.388a4.009 4.009 0 0 0-1.443 1.099c-.674.805-1.011 1.762-1.011 2.871 0 1.294.457 2.363 1.37 3.208.815.757 1.794 1.135 2.937 1.135.815 0 1.631-.254 2.446-.762v1.011Zm8.625-9.741c1.426 0 2.647.505 3.662 1.516a4.993 4.993 0 0 1 1.135 1.685c.269.634.403 1.298.403 1.992 0 1.396-.5 2.59-1.501 3.581-1.021 1.011-2.288 1.516-3.802 1.516-1.513 0-2.766-.52-3.757-1.56a5.236 5.236 0 0 1-1.091-1.728 4.972 4.972 0 0 1-.352-1.824c0-1.015.283-1.97.85-2.864.513-.81 1.223-1.425 2.131-1.845.689-.313 1.463-.469 2.322-.469Zm-.132.798c-1.172 0-2.165.413-2.981 1.238-.815.825-1.223 1.858-1.223 3.098 0 1.172.369 2.166 1.106 2.981.386.425.852.759 1.399 1.004a4.287 4.287 0 0 0 1.758.373c1.201 0 2.234-.447 3.098-1.34.806-.83 1.208-1.804 1.208-2.923 0-.576-.107-1.135-.322-1.677a4.4 4.4 0 0 0-.886-1.435c-.825-.879-1.878-1.319-3.157-1.319Zm9.68-.652h.901v6.145c0 .601.027 1.045.08 1.333.122.635.43 1.126.923 1.473.376.263.852.395 1.428.395 1.084 0 1.829-.395 2.234-1.186.21-.415.315-1.084.315-2.007v-6.153h.901v6.138c0 .659-.039 1.182-.117 1.568-.166.825-.586 1.464-1.26 1.918-.517.347-1.201.52-2.051.52-1.362 0-2.326-.5-2.893-1.501-.307-.542-.461-1.374-.461-2.498v-6.145ZM474.152 176v-10.298l7.068 7.874c.254.293.42.512.498.659-.034-.264-.056-.759-.066-1.487v-6.746h.901v10.401l-6.936-7.778a15.662 15.662 0 0 1-.623-.792c.044.225.066.491.066.799l-.007.447V176h-.901Zm14.894 0v-9.199h-2.497v-.799h5.903v.799h-2.505V176h-.901ZM379.702 209.697v-1.033c3.444-.212 6.12-1.139 8.028-2.782 1.908-1.696 2.862-3.789 2.862-6.279 0-2.491-.61-4.372-1.829-5.644-1.165-1.325-2.702-1.987-4.61-1.987-1.908 0-3.365.318-4.372.954-1.007.583-1.51 1.404-1.51 2.464 0 1.695.821 2.941 2.464 3.736 0 1.112-.344 1.987-1.033 2.623-.689.583-1.51.874-2.464.874s-1.802-.371-2.544-1.113c-.742-.795-1.113-1.801-1.113-3.02 0-2.173 1.087-4.001 3.259-5.485 2.173-1.484 4.928-2.226 8.267-2.226 3.338 0 6.041.769 8.108 2.306 2.119 1.483 3.179 3.603 3.179 6.359 0 5.405-3.974 8.611-11.923 9.618v.238c4.08.212 7.366 1.298 9.856 3.259 2.491 1.961 3.736 4.61 3.736 7.949 0 3.338-1.271 6.094-3.815 8.266-2.491 2.173-6.094 3.259-10.81 3.259-3.074 0-5.697-.848-7.87-2.543-2.172-1.749-3.259-3.895-3.259-6.439 0-1.325.371-2.358 1.113-3.1.795-.742 1.696-1.113 2.703-1.113s1.855.318 2.543.954c.742.583 1.113 1.484 1.113 2.703-1.695.795-2.57 1.987-2.623 3.577 0 1.537.557 2.729 1.669 3.577 1.166.795 2.809 1.192 4.929 1.192 2.119 0 3.895-.874 5.325-2.623 1.484-1.802 2.226-4.266 2.226-7.392 0-6.889-3.868-10.599-11.605-11.129Zm51.191 1.829c0 6.624-1.272 11.711-3.816 15.261-2.543 3.498-6.014 5.246-10.413 5.246-4.345 0-7.789-1.775-10.333-5.325-2.491-3.604-3.736-8.691-3.736-15.262 0-6.624 1.245-11.711 3.736-15.261 2.544-3.551 5.988-5.326 10.333-5.326 4.399-.053 7.87 1.722 10.413 5.326 2.544 3.55 3.816 8.664 3.816 15.341Zm-6.28 4.61v-9.539c0-4.981-.715-8.664-2.146-11.048-1.378-2.385-3.286-3.577-5.723-3.577-2.438 0-4.372 1.192-5.803 3.577-1.378 2.384-2.066 6.067-2.066 11.048v9.539c0 5.034.688 8.743 2.066 11.128 1.431 2.385 3.365 3.577 5.803 3.577 2.384 0 4.292-1.166 5.723-3.497 1.431-2.385 2.146-6.121 2.146-11.208Z"/><path fill="#000" d="M454.247 215.638c-1.385 0-2.492-.523-3.323-1.569-.8-1.077-1.2-2.615-1.2-4.615 0-2.031.4-3.569 1.2-4.616.831-1.046 1.938-1.569 3.323-1.569 1.354 0 2.431.523 3.231 1.569.83 1.047 1.246 2.585 1.246 4.616 0 2-.416 3.538-1.246 4.615-.8 1.046-1.877 1.569-3.231 1.569Zm2.261-4.753v-2.908c0-2.739-.753-4.108-2.261-4.108-1.539 0-2.308 1.369-2.308 4.108v2.908c0 2.769.769 4.153 2.308 4.153 1.508 0 2.261-1.384 2.261-4.153Zm-14.723-5.908c-1.354 0-2.446-.523-3.277-1.569-.8-1.077-1.2-2.631-1.2-4.662 0-2 .4-3.523 1.2-4.569.831-1.046 1.923-1.569 3.277-1.569 1.385 0 2.477.538 3.277 1.615.831 1.046 1.246 2.554 1.246 4.523 0 2.031-.415 3.585-1.246 4.662-.8 1.046-1.892 1.569-3.277 1.569Zm2.308-4.754v-2.861c0-2.77-.769-4.154-2.308-4.154-1.507 0-2.261 1.384-2.261 4.154v2.861c0 2.739.754 4.108 2.261 4.108 1.539 0 2.308-1.369 2.308-4.108Zm10.338-7.477L443.078 215.5h-1.477l11.4-22.754h1.43ZM469.706 204.1c0-3.538 1-6.4 3-8.585 2.031-2.215 4.6-3.338 7.708-3.369 3.107 0 5.661 1.123 7.661 3.369 2.031 2.216 3.046 5.077 3.046 8.585 0 3.508-1 6.385-3 8.631-1.969 2.246-4.538 3.369-7.707 3.369-3.139 0-5.708-1.123-7.708-3.369-2-2.246-3-5.123-3-8.631Zm17.862 2.215v-4.384c0-2.739-.662-4.939-1.985-6.6-1.323-1.662-3.046-2.493-5.169-2.493-2.123 0-3.862.831-5.216 2.493-1.353 1.661-2.03 3.861-2.03 6.6v4.384c0 2.8.677 5.016 2.03 6.647 1.354 1.63 3.093 2.446 5.216 2.446s3.846-.816 5.169-2.446c1.323-1.631 1.985-3.847 1.985-6.647Zm14.056 8.585v.6h-8.354v-.6l2.584-.415v-20.723l-2.584-.416v-.6h17.077v6.923h-.739l-2.215-6.184h-8.4v10.661h4.8l1.661-4.154h.785v9h-.785l-1.661-4.154h-4.8v9.647l2.631.415Zm18.624 0v.6h-8.354v-.6l2.585-.415v-20.723l-2.585-.416v-.6h17.077v6.923h-.738l-2.216-6.184h-8.4v10.661h4.8l1.662-4.154h.784v9h-.784l-1.662-4.154h-4.8v9.647l2.631.415ZM436.635 230.5v-6.665h3.178v.532h-2.578v2.285h2.578v.533h-2.578v3.315h-.6Zm7.853-6.763c.951 0 1.765.337 2.442 1.011.328.322.581.697.757 1.123.179.423.268.866.268 1.328 0 .931-.334 1.727-1.001 2.388-.68.674-1.525 1.011-2.534 1.011s-1.844-.347-2.505-1.04a3.478 3.478 0 0 1-.727-1.153 3.301 3.301 0 0 1-.235-1.216c0-.677.189-1.313.567-1.909.341-.54.815-.95 1.42-1.23a3.694 3.694 0 0 1 1.548-.313Zm-.088.533c-.781 0-1.443.275-1.987.825-.544.55-.815 1.238-.815 2.065 0 .781.245 1.444.737 1.987.257.284.568.507.933.669.374.166.765.249 1.171.249.801 0 1.49-.297 2.066-.893.537-.554.806-1.203.806-1.948a3.02 3.02 0 0 0-.215-1.119 2.95 2.95 0 0 0-.591-.957c-.55-.586-1.252-.878-2.105-.878Zm5.022-.435h.659c.537 0 .89.011 1.06.034.498.069.87.287 1.118.654.211.316.317.682.317 1.099 0 .397-.101.747-.303 1.05-.266.4-.675.631-1.225.693l1.885 3.135h-.694l-1.87-3.135h-.347v3.135h-.6v-6.665Zm.6.532v2.466h.42c.271 0 .461-.007.572-.02.319-.039.561-.174.727-.405.143-.205.215-.467.215-.786 0-.618-.234-1.009-.703-1.172-.16-.055-.444-.083-.855-.083h-.376Zm6.84 4.863.523-.258c.097.244.182.426.254.547.221.367.553.551.996.551.394 0 .711-.149.952-.449.169-.208.254-.477.254-.806 0-.371-.111-.683-.332-.937-.143-.163-.415-.348-.816-.557-.52-.273-.874-.493-1.059-.659a1.619 1.619 0 0 1-.42-.581 1.787 1.787 0 0 1-.152-.723c0-.576.22-1.015.66-1.318.286-.202.636-.303 1.049-.303.57 0 1.011.204 1.324.611.11.143.211.325.302.547l-.527.263a2.385 2.385 0 0 0-.244-.444 1.054 1.054 0 0 0-.889-.444c-.306 0-.563.104-.771.312-.189.189-.283.435-.283.737 0 .332.118.622.356.869.137.144.384.306.742.489.544.276.923.525 1.138.747.361.364.542.812.542 1.343 0 .573-.2 1.043-.601 1.411-.309.283-.716.425-1.22.425-.505 0-.894-.126-1.167-.376-.254-.235-.458-.567-.611-.997Zm4.939-5.395h.6v4.097c0 .4.018.696.054.888.081.423.287.751.615.982.251.176.568.263.952.263.723 0 1.22-.263 1.49-.791.14-.276.21-.722.21-1.337v-4.102h.6v4.092c0 .439-.026.788-.078 1.045-.111.55-.39.976-.84 1.279-.345.231-.8.347-1.367.347-.908 0-1.551-.334-1.929-1.001-.205-.362-.307-.917-.307-1.665v-4.097Zm5.822 6.665 1.128-6.865 2.041 4.746c.15.358.272.664.366.918.124-.348.236-.643.337-.884l2.026-4.78 1.119 6.865h-.606l-.649-4.053a31.85 31.85 0 0 1-.103-.869c-.052.166-.13.378-.234.635l-1.89 4.487-1.924-4.477a12.364 12.364 0 0 1-.244-.645 10.45 10.45 0 0 0-.024.318c-.01.13-.033.307-.069.532l-.654 4.072h-.62Zm7.99 0 1.128-6.865 2.041 4.746c.15.358.272.664.366.918.124-.348.236-.643.337-.884l2.027-4.78 1.118 6.865h-.606l-.649-4.053a42.555 42.555 0 0 1-.103-.869c-.052.166-.13.378-.234.635l-1.89 4.487-1.923-4.477a11.558 11.558 0 0 1-.245-.645 10.45 10.45 0 0 0-.024.318c-.01.13-.032.307-.068.532l-.655 4.072h-.62Zm8.391 0v-6.665h3.232v.532h-2.632v2.285h2.632v.533h-2.632v2.783h2.632v.532h-3.232Zm4.767-6.665h.66c.537 0 .89.011 1.059.034.498.069.871.287 1.118.654.212.316.318.682.318 1.099 0 .397-.101.747-.303 1.05-.267.4-.675.631-1.226.693l1.885 3.135h-.693l-1.87-3.135h-.347v3.135h-.601v-6.665Zm.601.532v2.466h.42a5.6 5.6 0 0 0 .571-.02c.319-.039.562-.174.728-.405.143-.205.215-.467.215-.786 0-.618-.235-1.009-.703-1.172-.16-.055-.445-.083-.855-.083h-.376Zm6.84 4.863.522-.258c.098.244.183.426.254.547.222.367.554.551.996.551.394 0 .712-.149.953-.449.169-.208.253-.477.253-.806 0-.371-.11-.683-.332-.937-.143-.163-.415-.348-.815-.557-.521-.273-.874-.493-1.06-.659a1.619 1.619 0 0 1-.42-.581 1.802 1.802 0 0 1-.151-.723c0-.576.22-1.015.659-1.318.287-.202.637-.303 1.05-.303.57 0 1.011.204 1.323.611.111.143.212.325.303.547l-.527.263a2.445 2.445 0 0 0-.244-.444 1.055 1.055 0 0 0-.889-.444c-.306 0-.563.104-.772.312-.188.189-.283.435-.283.737 0 .332.119.622.357.869.136.144.384.306.742.489.543.276.923.525 1.138.747.361.364.542.812.542 1.343 0 .573-.201 1.043-.601 1.411-.309.283-.716.425-1.221.425-.504 0-.893-.126-1.167-.376-.254-.235-.457-.567-.61-.997Zm5.007 1.27v-6.665h3.232v.532h-2.632v2.285h2.632v.533h-2.632v2.783h2.632v.532h-3.232Zm7.009-6.885 2.89 6.885h-.635l-.839-2.002h-2.793l-.83 2.002h-.635l2.842-6.885Zm1.196 4.365-.591-1.425a29.068 29.068 0 0 1-.601-1.504 29.46 29.46 0 0 1-.517 1.357l-.65 1.572h2.359Zm2.399 1.25.523-.258c.097.244.182.426.254.547.221.367.553.551.996.551.394 0 .711-.149.952-.449.169-.208.254-.477.254-.806 0-.371-.111-.683-.332-.937-.144-.163-.415-.348-.816-.557-.521-.273-.874-.493-1.059-.659a1.619 1.619 0 0 1-.42-.581 1.787 1.787 0 0 1-.152-.723c0-.576.22-1.015.66-1.318.286-.202.636-.303 1.049-.303.57 0 1.011.204 1.324.611.11.143.211.325.302.547l-.527.263a2.385 2.385 0 0 0-.244-.444 1.054 1.054 0 0 0-.889-.444c-.306 0-.563.104-.771.312-.189.189-.283.435-.283.737 0 .332.118.622.356.869.137.144.384.306.742.489.544.276.923.525 1.138.747.361.364.542.812.542 1.343 0 .573-.2 1.043-.601 1.411-.309.283-.716.425-1.22.425-.505 0-.894-.126-1.167-.376-.254-.235-.458-.567-.611-.997Zm8.239-5.493c.951 0 1.765.337 2.442 1.011.329.322.581.697.757 1.123.179.423.268.866.268 1.328 0 .931-.333 1.727-1.001 2.388-.68.674-1.525 1.011-2.534 1.011s-1.844-.347-2.505-1.04a3.494 3.494 0 0 1-.727-1.153 3.301 3.301 0 0 1-.235-1.216c0-.677.189-1.313.567-1.909.342-.54.815-.95 1.421-1.23a3.693 3.693 0 0 1 1.547-.313Zm-.087.533a2.69 2.69 0 0 0-1.988.825c-.543.55-.815 1.238-.815 2.065 0 .781.246 1.444.737 1.987.257.284.568.507.933.669a2.86 2.86 0 0 0 1.172.249c.8 0 1.489-.297 2.065-.893.537-.554.806-1.203.806-1.948a3.02 3.02 0 0 0-.215-1.119 2.95 2.95 0 0 0-.591-.957c-.55-.586-1.252-.878-2.104-.878Zm5.021 6.23v-6.865l4.712 5.249c.169.195.28.342.332.439a10.455 10.455 0 0 1-.044-.991v-4.497h.601v6.934l-4.624-5.186a10.393 10.393 0 0 1-.415-.527c.029.149.044.327.044.532l-.005.298v4.614h-.601Z"/><path fill="#0175BE" d="M554.053 237.558v51.372H351.134v-51.372l-1.689-1.413v54.473h206.297v-54.473l-1.689 1.413ZM351.134 146.307h202.919v51.372l1.689 1.416v-54.476H349.445v54.476l1.689-1.416v-51.372Z"/><path fill="#3B57AA" d="M535.29 244H366l.731.612h167.828l.731-.612ZM524.465 253.064H376.822l.731.612h146.181l.731-.612ZM513.645 262.129H387.646l.731.612h124.537l.731-.612ZM502.82 271.193H398.467l.733.612h102.89l.73-.612ZM491.997 280.258h-82.706l.731.612h81.242l.733-.612ZM481.174 289.324h-61.059l.731.615h59.597l.731-.615ZM470.352 298.389h-39.414l.73.611h37.953l.731-.611Z"/></g></g><defs><clipPath id="a"><path fill="#fff" d="M0 0h900v325H0z"/></clipPath><clipPath id="c"><path fill="#fff" d="M325 325H0V0h325z"/></clipPath><clipPath id="e"><path fill="#fff" d="M273.773 162h102.226v100H273.773z"/></clipPath><clipPath id="f"><path fill="#fff" d="M575 325h325V0H575z"/></clipPath><clipPath id="h"><path fill="#fff" d="M525 158.221h102V258H525z"/></clipPath><clipPath id="i"><path fill="#fff" d="M282.5 20h-25v38h25z"/></clipPath><clipPath id="l"><path fill="#fff" d="M620.5 20h25v38h-25z"/></clipPath><clipPath id="p"><path fill="#fff" d="M331 118h239v200H331z"/></clipPath><linearGradient id="j" x1="281.908" x2="257.908" y1="27.001" y2="27.001" gradientUnits="userSpaceOnUse"><stop stop-color="#00F260"/><stop offset="1" stop-color="#0575E6"/></linearGradient><linearGradient id="k" x1="281.5" x2="257.5" y1="51" y2="51" gradientUnits="userSpaceOnUse"><stop stop-color="#00F260"/><stop offset="1" stop-color="#0575E6"/></linearGradient><linearGradient id="m" x1="621.092" x2="645.092" y1="27.001" y2="27.001" gradientUnits="userSpaceOnUse"><stop stop-color="#00F260"/><stop offset="1" stop-color="#0575E6"/></linearGradient><linearGradient id="n" x1="621.5" x2="645.5" y1="51" y2="51" gradientUnits="userSpaceOnUse"><stop stop-color="#00F260"/><stop offset="1" stop-color="#0575E6"/></linearGradient><linearGradient id="o" x1="210" x2="693" y1="91" y2="91" gradientUnits="userSpaceOnUse"><stop stop-color="#003865"/><stop offset=".16" stop-color="#2D9EE0"/><stop offset=".418" stop-color="#2F80ED"/><stop offset=".625" stop-color="#2D9EE0"/><stop offset=".87" stop-color="#2D9EE0"/><stop offset="1" stop-color="#003865"/></linearGradient><radialGradient id="b" cx="0" cy="0" r="1" gradientTransform="matrix(900 74.1 -94.193 1144.039 0 139.1)" gradientUnits="userSpaceOnUse"><stop offset=".053" stop-color="#D4E4FF"/><stop offset=".367" stop-color="#fff"/><stop offset=".629" stop-color="#fff"/><stop offset=".95" stop-color="#D4E4FF"/></radialGradient></defs></svg>