<svg xmlns="http://www.w3.org/2000/svg" width="440" height="660" fill="none"><g clip-path="url(#a)"><path fill="url(#b)" d="M0 0h440v660H0z"/><g fill-rule="evenodd" clip-path="url(#c)" clip-rule="evenodd"><path fill="url(#d)" d="M80.408 193.924c-.131-.238-.205-.386-.287-.517-2.526-4.118-5.069-8.235-7.579-12.353-.262-.435-.558-.623-1.066-.64-4.807-.114-9.613-.246-14.412-.377-.188 0-.377.017-.656.033.123.262.205.459.312.64 2.493 4.068 5.003 8.136 7.497 12.205.23.369.443.631.968.648 4.913.106 9.826.262 14.74.402.106 0 .22-.017.475-.033l.008-.008Zm-1.058-.575h-.574c-4.38-.114-8.768-.246-13.148-.352-.517-.008-.804-.222-1.067-.648-2.239-3.667-4.495-7.333-6.742-10.991-.115-.181-.205-.378-.353-.648.304-.017.517-.05.73-.041 4.331.115 8.654.246 12.985.344.525.008.795.23 1.05.648 2.222 3.642 4.462 7.276 6.693 10.917.13.214.237.427.418.771h.008Z"/><path fill="url(#e)" d="M80 204.043c-.213-.017-.345-.05-.484-.042-4.919.141-9.837.281-14.763.405-.37.008-.616.115-.821.454a4075.041 4075.041 0 0 1-7.768 12.718c-.057.091-.09.198-.164.379.296.017.534.05.772.042 4.754-.124 9.5-.256 14.254-.38.443-.008.78-.082 1.05-.52 2.595-4.275 5.206-8.534 7.809-12.792.033-.05.041-.099.115-.264Zm-22.933 13.279c.148-.281.247-.504.378-.71 2.225-3.639 4.459-7.263 6.659-10.911.312-.519.673-.726 1.273-.742 4.22-.099 8.432-.223 12.652-.339h.879c-.074.198-.09.306-.148.396-2.356 3.855-4.713 7.709-7.061 11.563-.205.339-.468.429-.83.438-4.417.115-8.826.239-13.243.363-.156 0-.32-.033-.559-.05v-.008Z"/></g><path fill="#073671" d="M122.837 210h-3.72l-4.14-8.46c-1.29-2.64-2.55-6.21-2.55-6.21s.51 4.26.51 6.9V210h-4.2v-21h3.96l3.78 7.71c1.5 3.06 2.64 6.51 2.64 6.51s-.48-4.59-.48-6.9V189h4.2v21Zm17.816-7.95c0 7.2-4.08 8.25-7.26 8.25-3.21 0-7.26-1.14-7.26-8.25 0-6.93 3.93-8.25 7.26-8.25 3.3 0 7.26 1.11 7.26 8.25Zm-4.2 0c0-4.92-1.41-5.28-3.06-5.28-1.65 0-3.06.54-3.06 5.28 0 4.68 1.71 5.25 3.06 5.25s3.06-.54 3.06-5.25Zm28.814-7.95-3.33 15.9h-5.73l-1.32-6.45c-.45-2.16-1.32-6.96-1.32-6.96s-.96 4.74-1.35 6.81l-1.29 6.6h-5.73l-3.33-15.9h4.62l.93 7.41c.24 1.95.66 6.21.66 6.21s.66-4.14 1.08-6.21l1.56-7.41h5.7l1.56 7.41c.39 1.89 1.02 6.21 1.02 6.21s.42-4.32.69-6.21l1.02-7.41h4.56Zm24.288-5.1-5.85 13.11V210h-4.2v-7.89l-5.85-13.11h4.77l3.18 9.54 3.18-9.54h4.77Zm15.113 13.05c0 7.2-4.08 8.25-7.26 8.25-3.21 0-7.26-1.14-7.26-8.25 0-6.93 3.93-8.25 7.26-8.25 3.3 0 7.26 1.11 7.26 8.25Zm-4.2 0c0-4.92-1.41-5.28-3.06-5.28-1.65 0-3.06.54-3.06 5.28 0 4.68 1.71 5.25 3.06 5.25s3.06-.54 3.06-5.25Zm20.564 7.95h-3.45l-.57-1.68s-2.07 1.98-4.68 1.98c-2.55 0-4.5-1.14-4.5-4.65V194.1h4.2v11.1c0 1.47.72 1.68 1.59 1.68 1.47 0 3.21-1.08 3.21-1.08v-11.7h4.2V210Zm23.986-.51s-1.59.81-4.26.81c-3.51 0-7.44-1.11-7.44-10.8 0-9.72 4.95-10.8 7.83-10.8 2.37 0 3.87.75 3.87.75v3.39s-2.04-.72-3.66-.72c-2.04 0-3.84 1.23-3.84 7.38 0 5.49 1.29 7.35 3.54 7.35 1.92 0 3.96-.75 3.96-.75v3.39Zm14.549.51h-3.66l-.45-1.41s-1.56 1.71-4.29 1.71c-1.95 0-4.5-.81-4.5-5.13 0-4.35 3.57-5.1 5.94-5.1h2.76v-1.14c0-1.56-.81-1.74-2.25-1.74-2.25 0-5.01.9-5.01.9v-3.33s2.73-.96 5.73-.96c3.12 0 5.73.78 5.73 5.16V210Zm-4.2-3.6v-4.02l-1.2.03c-2.37.06-3.3.63-3.3 2.67 0 1.65.75 2.1 1.83 2.1 1.47 0 2.67-.78 2.67-.78Zm22.344 3.6h-4.2v-11.22c0-1.14-.45-1.5-1.8-1.5-1.8 0-3.6 1.14-3.6 1.14V210h-4.2v-15.9h3.51l.6 1.71s2.37-2.01 5.28-2.01c2.64 0 4.41 1.17 4.41 4.74V210Zm27.151-.78s-3.69 1.08-6.99 1.08c-3.87 0-8.01-1.08-8.01-10.5 0-9.39 5.01-11.1 9.18-11.1 3 0 4.92 1.08 4.92 1.08v3.36s-2.79-1.05-4.92-1.05-4.98 1.14-4.98 7.41c0 6.63 2.22 7.44 3.75 7.44 1.26 0 2.85-.3 2.85-.3v-6.33h-2.85l-.3-3.21h7.35v12.12Zm16.65-7.17-.03 1.38h-9c.09 3.12 1.86 3.54 3.18 3.54 2.13 0 4.86-.81 4.86-.81v3.33s-2.28.81-4.86.81c-3.3 0-7.35-.87-7.35-8.25 0-6.69 3.54-8.25 6.75-8.25 3 0 6.6 1.44 6.45 8.25Zm-4.11-1.26c-.06-3.42-.81-4.26-2.34-4.26-1.8 0-2.52 1.08-2.58 4.26h4.92Zm16.265 8.82s-1.8.69-3.75.69c-2.16 0-4.35-.54-4.35-4.29v-9.09h-2.7v-2.82h2.7l.3-3.51 3.9-1.29v4.8h3.6l-.42 2.82h-3.18v9.03c0 .9.48 1.02 1.02 1.02.69 0 2.88-.54 2.88-.54v3.18Z"/><g fill-rule="evenodd" clip-path="url(#f)" clip-rule="evenodd"><path fill="url(#g)" d="M359.592 193.924c.131-.238.205-.386.287-.517 2.526-4.118 5.069-8.235 7.579-12.353.262-.435.558-.623 1.066-.64 4.807-.114 9.613-.246 14.412-.377.188 0 .377.017.656.033-.123.262-.205.459-.312.64-2.493 4.068-5.003 8.136-7.497 12.205-.229.369-.443.631-.968.648-4.913.106-9.826.262-14.739.402-.107 0-.222-.017-.476-.033l-.008-.008Zm1.058-.575h.574c4.38-.114 8.768-.246 13.148-.352.517-.008.804-.222 1.067-.648 2.239-3.667 4.495-7.333 6.742-10.991.115-.181.205-.378.353-.648-.304-.017-.517-.05-.73-.041-4.331.115-8.654.246-12.985.344-.525.008-.795.23-1.049.648-2.223 3.642-4.463 7.276-6.694 10.917-.131.214-.237.427-.418.771h-.008Z"/><path fill="url(#h)" d="M360 204.043c.213-.017.345-.05.484-.042 4.919.141 9.837.281 14.763.405.37.008.616.115.821.454 2.579 4.242 5.173 8.484 7.768 12.718.057.091.09.198.164.379-.296.017-.534.05-.772.042-4.754-.124-9.5-.256-14.254-.38-.443-.008-.78-.082-1.051-.52-2.594-4.275-5.205-8.534-7.808-12.792-.033-.05-.041-.099-.115-.264Zm22.933 13.279c-.148-.281-.247-.504-.378-.71-2.225-3.639-4.459-7.263-6.659-10.911-.312-.519-.673-.726-1.273-.742-4.22-.099-8.432-.223-12.652-.339h-.879c.074.198.09.306.148.396 2.356 3.855 4.713 7.709 7.061 11.563.205.339.468.429.829.438 4.418.115 8.827.239 13.244.363.156 0 .32-.033.559-.05v-.008Z"/></g><path fill="url(#i)" d="M35.811 244.12c0 5.292-2.996 6.776-8.4 6.888V257h-3.92v-19.6h4.816c4.592 0 7.504 1.036 7.504 6.72Zm-3.92 0c0-3.416-1.4-3.696-3.192-3.696h-1.288v7.84c2.884-.084 4.48-.588 4.48-4.144Zm17.775-6.72-.28 3.332h-6.86v4.228h5.88v3.024h-5.88v5.684h7V257h-10.92v-19.6h11.06Zm12.407 16.268L61.71 257h-9.52v-19.6h3.92v16.268h5.964Zm12.05-2.128c0 4.788-3.584 5.74-6.384 5.74-2.492 0-4.648-.7-4.648-.7v-3.36s2.744.84 4.088.84c1.596 0 3.024-.476 3.024-2.38 0-1.736-1.008-2.268-2.352-3.024l-1.764-.98c-1.652-.924-3.164-2.352-3.164-5.124 0-4.284 3.528-5.432 6.104-5.432 2.744 0 4.256.756 4.256.756v3.192s-2.1-.812-3.976-.812c-1.4 0-2.52.504-2.52 2.072 0 1.372.896 1.932 2.044 2.576l1.68.924c1.792.98 3.612 2.408 3.612 5.712Zm15.68-.14c0 4.984-3.109 5.6-8.065 5.6h-4.816v-19.6h4.816c4.508 0 7.504.7 7.504 5.012 0 3.164-1.96 4.004-3.64 4.396 1.792.364 4.2.98 4.2 4.592Zm-4.48-8.764c0-2.156-1.26-2.352-3.445-2.352h-1.036v5.236h1.176c2.128 0 3.304-.336 3.304-2.884Zm.56 8.624c0-2.52-1.345-2.94-3.865-2.94h-1.176v5.796h1.092c2.38 0 3.948-.168 3.948-2.856Zm20.435 5.74h-4.144l-.812-3.808h-5.488L95.062 257h-4.144l5.264-19.6h4.872l5.264 19.6Zm-5.6-6.832-1.036-4.872c-.504-2.324-1.064-5.404-1.064-5.404s-.56 2.996-1.064 5.404l-1.036 4.872h4.2ZM121.152 257H116.7l-1.204-4.452c-.476-1.792-1.204-3.052-1.708-3.584l-1.596.14V257h-3.92v-19.6h5.376c4.2 0 7.224.98 7.224 5.544 0 3.108-1.4 4.564-3.556 5.32.756.476 1.456 1.736 1.932 3.108l1.904 5.628Zm-4.2-13.972c0-1.876-1.008-2.52-3.5-2.52h-1.26v5.852c2.66-.252 4.76-.448 4.76-3.332ZM137.121 257h-3.472l-3.864-7.896c-1.204-2.464-2.38-5.796-2.38-5.796s.476 3.976.476 6.44V257h-3.92v-19.6h3.696l3.528 7.196c1.4 2.856 2.464 6.076 2.464 6.076s-.448-4.284-.448-6.44V237.4h3.92V257Zm9.349-20.44-2.296 9.1h-2.856l.448-9.1h4.704Zm13.173 14.98c0 4.788-3.584 5.74-6.384 5.74-2.492 0-4.648-.7-4.648-.7v-3.36s2.744.84 4.088.84c1.596 0 3.024-.476 3.024-2.38 0-1.736-1.008-2.268-2.352-3.024l-1.764-.98c-1.652-.924-3.164-2.352-3.164-5.124 0-4.284 3.528-5.432 6.104-5.432 2.744 0 4.256.756 4.256.756v3.192s-2.1-.812-3.976-.812c-1.4 0-2.52.504-2.52 2.072 0 1.372.896 1.932 2.044 2.576l1.68.924c1.792.98 3.612 2.408 3.612 5.712Zm23.541-.588c0 4.004-1.652 6.328-6.384 6.328-4.928 0-6.384-2.212-6.384-6.328V237.4h3.92v13.44c0 2.408.644 3.304 2.464 3.304 1.68 0 2.464-.84 2.464-3.304V237.4h3.92v13.552ZM200.416 257h-3.472l-3.864-7.896c-1.204-2.464-2.38-5.796-2.38-5.796s.476 3.976.476 6.44V257h-3.92v-19.6h3.696l3.528 7.196c1.4 2.856 2.464 6.076 2.464 6.076s-.448-4.284-.448-6.44V237.4h3.92V257Zm8.173 0h-3.976v-19.6h3.976V257Zm17.073-9.8c0 8.064-2.884 9.688-5.544 9.996l2.604 5.124h-4.48l-1.036-5.124c-2.716-.336-5.544-1.988-5.544-9.996 0-9.464 4.228-10.08 7-10.08 2.772 0 7 .672 7 10.08Zm-3.92 0c0-5.88-1.204-7.28-3.08-7.28-1.96 0-3.08 1.288-3.08 7.28 0 6.076 1.428 7.336 3.08 7.336 1.708 0 3.08-1.176 3.08-7.336Zm19.631 3.752c0 4.004-1.652 6.328-6.384 6.328-4.928 0-6.384-2.212-6.384-6.328V237.4h3.92v13.44c0 2.408.644 3.304 2.464 3.304 1.68 0 2.464-.84 2.464-3.304V237.4h3.92v13.552Zm15.132-13.552-.28 3.332h-6.86v4.228h5.88v3.024h-5.88v5.684h7V257h-10.92v-19.6h11.06Zm20.718 19.124s-1.484.756-3.976.756c-3.276 0-6.944-1.036-6.944-10.08 0-9.072 4.62-10.08 7.308-10.08 2.212 0 3.612.7 3.612.7v3.164s-1.904-.672-3.416-.672c-1.904 0-3.584 1.148-3.584 6.888 0 5.124 1.204 6.86 3.304 6.86 1.792 0 3.696-.7 3.696-.7v3.164Zm15.399-9.324c0 9.548-4.06 10.08-7 10.08-3.024 0-7-.616-7-10.08s4.228-10.08 7-10.08c2.772 0 7 .672 7 10.08Zm-3.92 0c0-5.88-1.176-7.28-3.08-7.28-1.96 0-3.08 1.288-3.08 7.28 0 6.076 1.428 7.28 3.08 7.28 1.708 0 3.08-1.12 3.08-7.28Zm19.882 0c0 9.548-4.06 10.08-7 10.08-3.024 0-7-.616-7-10.08s4.228-10.08 7-10.08c2.772 0 7 .672 7 10.08Zm-3.92 0c0-5.88-1.176-7.28-3.08-7.28-1.96 0-3.08 1.288-3.08 7.28 0 6.076 1.428 7.28 3.08 7.28 1.708 0 3.08-1.12 3.08-7.28Zm16.886 6.468-.364 3.332h-9.52v-19.6h3.92v16.268h5.964Zm6.226 3.332H323.8v-19.6h3.976V257Zm17.353 0h-3.472l-3.864-7.896c-1.204-2.464-2.38-5.796-2.38-5.796s.476 3.976.476 6.44V257h-3.92v-19.6h3.696l3.528 7.196c1.4 2.856 2.464 6.076 2.464 6.076s-.448-4.284-.448-6.44V237.4h3.92V257Zm17.357-.728s-3.444 1.008-6.524 1.008c-3.612 0-7.476-1.008-7.476-9.8 0-8.764 4.676-10.36 8.568-10.36 2.8 0 4.592 1.008 4.592 1.008v3.136s-2.604-.98-4.592-.98c-1.988 0-4.648 1.064-4.648 6.916 0 6.188 2.072 6.944 3.5 6.944 1.176 0 2.66-.28 2.66-.28v-5.908h-2.66l-.28-2.996h6.86v11.312Zm25.055-4.872c0 4.984-3.108 5.6-8.064 5.6h-4.816v-19.6h4.816c4.508 0 7.504.7 7.504 5.012 0 3.164-1.96 4.004-3.64 4.396 1.792.364 4.2.98 4.2 4.592Zm-4.48-8.764c0-2.156-1.26-2.352-3.444-2.352h-1.036v5.236h1.176c2.128 0 3.304-.336 3.304-2.884Zm.56 8.624c0-2.52-1.344-2.94-3.864-2.94h-1.176v5.796h1.092c2.38 0 3.948-.168 3.948-2.856Zm18.335-13.86-.28 3.332h-6.86v4.228h5.88v3.024h-5.88v5.684h7V257h-10.92v-19.6h11.06Zm15.684 9.8c0 8.344-3.416 9.8-8.904 9.8h-4.256v-19.6h4.256c5.488 0 8.904 1.26 8.904 9.8Zm-3.92 0c0-5.768-1.54-6.748-4.06-6.748h-1.26v13.496h1.036c2.66 0 4.284-.924 4.284-6.748Z"/><g clip-path="url(#j)" opacity=".9"><mask id="k" width="220" height="220" x="0" y="0" maskUnits="userSpaceOnUse" style="mask-type:luminance"><path fill="#fff" d="M.084 0v220H220V0H.084Z"/></mask><g mask="url(#k)"><path fill="#DADDF2" d="m109.178.005 17.115 17.11L143.403 0l-17.115-17.11L109.178.005Z"/><path fill="#3B57AA" d="M72.926 1.593 80.137 8.8l-7.211 7.212V1.592ZM71.607 1.591v15.304l-7.652-7.652 7.652-7.652ZM81.072 9.733l7.647 7.652h-15.3l7.653-7.652ZM63.022 10.178l7.207 7.207H55.815l7.207-7.207ZM73.414 18.702h15.303l-7.651 7.651-7.652-7.651ZM55.815 18.705h14.418l-7.207 7.207-7.212-7.207ZM45.912 27.285l7.871 7.871 8.307-8.307-7.87-7.872-8.308 8.308ZM126.289 19.085l17.116 17.112-17.006 17.006-17.112-17.116 17.002-17.002ZM71.606 19.195v15.3l-7.647-7.652 7.647-7.648Z"/><path fill="#DADDF2" d="m163.043 19.636 7.212 7.207-7.212 7.212v-14.42ZM89.652 19.637V52.98L72.981 36.31l.22-.22 8.8-8.8 7.651-7.652ZM90.97 19.638l16.452 16.451-.11.11-16.341 16.342V19.638ZM161.722 19.636V34.94l-7.652-7.652 7.652-7.652Z"/><path fill="#3B57AA" d="m72.926 20.08 7.207 7.207-7.207 7.207V20.08Z"/><path fill="#DADDF2" d="m171.189 27.776 7.647 7.652h-15.299l7.652-7.652Z"/><path fill="#3B57AA" d="m63.022 27.782 8.312 8.307-8.312 8.311-8.307-8.311 8.307-8.307ZM37.109 36.091l7.871 7.872 7.872-7.871-7.871-7.872-7.872 7.871Z"/><path fill="#DADDF2" d="m153.139 28.22 7.207 7.208h-14.414l7.207-7.207ZM163.537 36.749h15.299l-7.647 7.651-7.652-7.651ZM145.932 36.747h14.418l-7.211 7.212-7.207-7.212Z"/><path fill="#3B57AA" d="m45.91 44.893 8.307 8.312 7.873-7.87-8.307-8.311-7.873 7.87Z"/><path fill="#DADDF2" d="m108.244 37.13 16.342 16.347H91.898l16.346-16.346ZM19.061 54.304l17.033 17.028 17.109-17.114L36.17 37.19 19.061 54.305ZM72.046 37.24l16.236 16.237H55.815l8.14-8.145 8.091-8.091ZM161.722 37.242v15.303l-7.652-7.652 7.652-7.651ZM163.043 38.122l7.212 7.211-7.212 7.212V38.122ZM91.465 54.797h33.343L108.136 71.47 91.465 54.797ZM55.815 54.797h32.903L72.266 71.248 55.814 54.796Z"/><path fill="#3B57AA" d="m54.877 55.73 7.212 7.207-7.212 7.211V55.73Z"/><path fill="#DADDF2" d="m73.2 72.183 16.45-16.451v32.903L73.2 72.183Z"/><path fill="#3B57AA" d="m18.705 55.814 7.212 7.207-7.212 7.211V55.814ZM17.386 55.813v15.294L9.738 63.46l7.648-7.647ZM45.994 63.46l7.564-7.564v15.127l-7.564-7.563Z"/><path fill="#DADDF2" d="m90.97 56.172 16.232 16.231-16.231 16.232V56.172Z"/><path fill="#3B57AA" d="m63.023 63.87 7.647 7.652H55.37l7.652-7.652ZM26.85 63.954l7.648 7.652H19.199l7.652-7.652ZM37.93 71.522l7.132-7.129 7.128 7.129H37.93ZM8.805 64.394l7.212 7.212H1.594l7.211-7.212ZM55.375 72.843h15.299l-7.652 7.651-7.647-7.651ZM37.766 72.841h14.423l-7.212 7.212-7.211-7.212ZM19.203 72.925h15.295l-7.648 7.647-7.647-7.647ZM1.594 72.926h14.418l-7.207 7.207-7.211-7.207Z"/><path fill="#DADDF2" d="m27.781 81.505 8.312-8.307.08.08.083-.08 17.028 17.028-17.112 17.112-17.111-17.112 8.72-8.72Z"/><path fill="#3B57AA" d="m145.055 90.312 17.111 17.112 17.112-17.112-17.112-17.111-17.111 17.111Z"/><path fill="#DADDF2" d="m185.781 62.941 17.112 17.112 17.111-17.112-17.111-17.111-17.112 17.111ZM73.201 145.299l17.112 17.111 17.111-17.111-17.112-17.112-17.111 17.112Z"/><path fill="#3B57AA" d="m45.91 80.986 7.647-7.647v15.29l-7.647-7.643ZM17.386 73.418v15.299l-7.648-7.652 7.648-7.647ZM54.877 74.212l7.212 7.211-7.212 7.212V74.212ZM18.705 74.294l7.212 7.211-7.212 7.212V74.294ZM118.034 99.415l7.868 7.868 8.309-8.308-7.869-7.868-8.308 8.308Z"/><path fill="#DADDF2" d="M54.218 91.16h.005L71.33 108.27 54.22 125.383 37.11 108.271 54.22 91.16ZM18.13 91.16l17.11 17.111-17.11 17.112-17.112-17.112 17.028-17.028.083-.083ZM90.31 91.16l17.06 17.058.052.053-17.111 17.112-17.112-17.112 8.8-8.8 8.312-8.311ZM63.955 81.427l7.652-7.652v15.303l-7.652-7.651ZM72.928 73.775l7.207 7.207-7.207 7.207V73.775ZM81.067 81.92l7.652 7.646h-15.3l7.648-7.647ZM55.816 89.566l7.208-7.207 7.207 7.207H55.816ZM73.416 90.888h15.303l-7.651 7.651-7.652-7.651ZM55.816 90.886h14.42l-7.212 7.208-7.208-7.207ZM71.608 91.379v15.299l-7.647-7.652 7.647-7.647ZM72.928 92.263l7.207 7.207-7.207 7.208V92.263ZM135.151 99.905l8.308 8.311-8.308 8.307-8.311-8.307 8.311-8.311ZM117.108 100.345l7.867 7.872-7.871 7.867-7.815-7.814-.053-.053 7.872-7.872Z"/><path fill="#3B57AA" d="m125.906 109.151 8.312 8.307-7.872 7.872-8.307-8.312 7.867-7.867ZM19.062 126.32l17.112 17.112 17.111-17.112-17.111-17.111-17.112 17.111ZM-17.026 162.408.086 179.52l17.111-17.112L.086 145.297l-17.112 17.111Z"/><path fill="#DADDF2" d="m18.977 162.411 17.115 17.11 17.11-17.114-17.115-17.11-17.11 17.114Z"/></g></g><g clip-path="url(#l)" opacity=".9"><mask id="m" width="220" height="220" x="220" y="0" maskUnits="userSpaceOnUse" style="mask-type:luminance"><path fill="#fff" d="M439.916 0v220H220V0h219.916Z"/></mask><g mask="url(#m)"><path fill="#DADDF2" d="m330.822.005-17.115 17.11L296.597 0l17.115-17.11L330.822.005Z"/><path fill="#3B57AA" d="M367.074 1.593 359.863 8.8l7.211 7.212V1.592ZM368.393 1.591v15.304l7.652-7.652-7.652-7.652ZM358.928 9.733l-7.647 7.652h15.299l-7.652-7.652ZM376.978 10.178l-7.207 7.207h14.415l-7.208-7.207ZM366.586 18.702h-15.303l7.651 7.651 7.652-7.651ZM384.186 18.705h-14.419l7.207 7.207 7.212-7.207ZM394.088 27.285l-7.871 7.871-8.308-8.307 7.872-7.872 8.307 8.308ZM313.711 19.085l-17.116 17.112 17.006 17.006 17.112-17.116-17.002-17.002ZM368.394 19.195v15.3l7.647-7.652-7.647-7.648Z"/><path fill="#DADDF2" d="m276.957 19.636-7.212 7.207 7.212 7.212v-14.42ZM350.348 19.637V52.98L367.02 36.31l-.22-.22-8.8-8.8-7.652-7.652ZM349.029 19.638l-16.451 16.451.11.11 16.341 16.342V19.638ZM278.278 19.636V34.94l7.652-7.652-7.652-7.652Z"/><path fill="#3B57AA" d="m367.074 20.08-7.207 7.207 7.207 7.207V20.08Z"/><path fill="#DADDF2" d="m268.811 27.776-7.647 7.652h15.299l-7.652-7.652Z"/><path fill="#3B57AA" d="m376.978 27.782-8.312 8.307 8.312 8.311 8.307-8.311-8.307-8.307ZM402.891 36.091l-7.871 7.872-7.872-7.871 7.872-7.872 7.871 7.871Z"/><path fill="#DADDF2" d="m286.861 28.22-7.207 7.208h14.414l-7.207-7.207ZM276.463 36.749h-15.299l7.647 7.651 7.652-7.651ZM294.068 36.747H279.65l7.211 7.212 7.207-7.212Z"/><path fill="#3B57AA" d="m394.09 44.893-8.307 8.312-7.873-7.87 8.307-8.311 7.873 7.87Z"/><path fill="#DADDF2" d="m331.756 37.13-16.342 16.347h32.688L331.756 37.13ZM420.939 54.304l-17.033 17.028-17.109-17.114L403.83 37.19l17.109 17.114ZM367.954 37.24l-16.236 16.237h32.468l-8.14-8.145-8.092-8.091ZM278.278 37.242v15.303l7.652-7.652-7.652-7.651ZM276.957 38.122l-7.212 7.211 7.212 7.212V38.122ZM348.535 54.797h-33.343l16.672 16.672 16.671-16.672ZM384.186 54.797h-32.904l16.452 16.451 16.452-16.452Z"/><path fill="#3B57AA" d="m385.123 55.73-7.212 7.207 7.212 7.211V55.73Z"/><path fill="#DADDF2" d="m366.801 72.183-16.452-16.451v32.903l16.452-16.452Z"/><path fill="#3B57AA" d="m421.295 55.814-7.212 7.207 7.212 7.211V55.814ZM422.615 55.813v15.294l7.647-7.647-7.647-7.647ZM394.006 63.46l-7.564-7.564v15.127l7.564-7.563Z"/><path fill="#DADDF2" d="m349.029 56.172-16.231 16.231 16.231 16.232V56.172Z"/><path fill="#3B57AA" d="m376.977 63.87-7.647 7.652h15.299l-7.652-7.652ZM413.149 63.954l-7.647 7.652h15.299l-7.652-7.652ZM402.07 71.522l-7.132-7.129-7.128 7.129h14.26ZM431.195 64.394l-7.212 7.212h14.423l-7.211-7.212ZM384.625 72.843h-15.299l7.652 7.651 7.647-7.651ZM402.234 72.841h-14.423l7.212 7.212 7.211-7.212ZM420.797 72.925h-15.295l7.648 7.647 7.647-7.647ZM438.406 72.926h-14.419l7.208 7.207 7.211-7.207Z"/><path fill="#DADDF2" d="m412.219 81.505-8.312-8.307-.079.08-.084-.08-17.028 17.028 17.112 17.112 17.111-17.112-8.72-8.72Z"/><path fill="#3B57AA" d="m294.945 90.312-17.111 17.112-17.112-17.112 17.112-17.111 17.111 17.111Z"/><path fill="#DADDF2" d="m254.219 62.941-17.112 17.112-17.111-17.112 17.111-17.111 17.112 17.111ZM366.799 145.299l-17.111 17.111-17.112-17.111 17.112-17.112 17.111 17.112Z"/><path fill="#3B57AA" d="m394.09 80.986-7.647-7.647v15.29l7.647-7.643ZM422.615 73.418v15.299l7.647-7.652-7.647-7.647ZM385.123 74.212l-7.212 7.211 7.212 7.212V74.212ZM421.295 74.294l-7.212 7.211 7.212 7.212V74.294ZM321.966 99.415l-7.868 7.868-8.309-8.308 7.869-7.868 8.308 8.308Z"/><path fill="#DADDF2" d="M385.781 91.16h-.004L368.67 108.27l17.111 17.112 17.108-17.112-17.108-17.111ZM421.871 91.16l-17.112 17.111 17.112 17.112 17.111-17.112-17.028-17.028-.083-.083ZM349.689 91.16l-17.059 17.058-.052.053 17.111 17.112 17.112-17.112-8.8-8.8-8.312-8.311ZM376.045 81.427l-7.652-7.652v15.303l7.652-7.651ZM367.072 73.775l-7.207 7.207 7.207 7.207V73.775ZM358.933 81.92l-7.652 7.646h15.299l-7.647-7.647ZM384.184 89.566l-7.208-7.207-7.207 7.207h14.415ZM366.584 90.888h-15.303l7.651 7.651 7.652-7.651ZM384.184 90.886h-14.419l7.211 7.208 7.208-7.207ZM368.392 91.379v15.299l7.647-7.652-7.647-7.647ZM367.072 92.263l-7.207 7.207 7.207 7.208V92.263ZM304.849 99.905l-8.308 8.311 8.308 8.307 8.311-8.307-8.311-8.311ZM322.892 100.345l-7.867 7.872 7.871 7.867 7.815-7.814.053-.053-7.872-7.872Z"/><path fill="#3B57AA" d="m314.094 109.151-8.312 8.307 7.872 7.872 8.307-8.312-7.867-7.867ZM420.938 126.32l-17.112 17.112-17.111-17.112 17.111-17.111 17.112 17.111ZM457.026 162.408l-17.112 17.112-17.111-17.112 17.111-17.111 17.112 17.111Z"/><path fill="#DADDF2" d="m421.023 162.411-17.115 17.11-17.11-17.114 17.115-17.11 17.11 17.114Z"/></g></g><g clip-path="url(#n)" opacity=".9"><mask id="o" width="220" height="220" x="0" y="440" maskUnits="userSpaceOnUse" style="mask-type:luminance"><path fill="#fff" d="M.084 660V440H220v220H.084Z"/></mask><g mask="url(#o)"><path fill="#DADDF2" d="m109.178 659.995 17.115-17.11L143.403 660l-17.115 17.11-17.11-17.115Z"/><path fill="#3B57AA" d="m72.926 658.407 7.211-7.207-7.211-7.212v14.419ZM71.607 658.409v-15.304l-7.652 7.652 7.652 7.652ZM81.072 650.267l7.647-7.652h-15.3l7.653 7.652ZM63.022 649.822l7.207-7.207H55.815l7.207 7.207ZM73.414 641.298h15.303l-7.651-7.652-7.652 7.652ZM55.815 641.295h14.418l-7.207-7.207-7.212 7.207ZM45.912 632.715l7.871-7.871 8.307 8.307-7.87 7.872-8.308-8.308ZM126.289 640.914l17.116-17.111-17.006-17.006-17.112 17.116 17.002 17.001ZM71.606 640.805v-15.299l-7.647 7.651 7.647 7.648Z"/><path fill="#DADDF2" d="m163.043 640.364 7.212-7.207-7.212-7.212v14.419ZM89.652 640.363V607.02l-16.671 16.671.22.22 8.8 8.8 7.651 7.652ZM90.97 640.364l16.452-16.451-.11-.11-16.341-16.342v32.903ZM161.722 640.364v-15.303l-7.652 7.651 7.652 7.652Z"/><path fill="#3B57AA" d="m72.926 639.92 7.207-7.207-7.207-7.207v14.414Z"/><path fill="#DADDF2" d="m171.189 632.224 7.647-7.652h-15.299l7.652 7.652Z"/><path fill="#3B57AA" d="m63.022 632.218 8.312-8.307-8.312-8.311-8.307 8.311 8.307 8.307ZM37.109 623.909l7.871-7.872 7.872 7.872-7.871 7.871-7.872-7.871Z"/><path fill="#DADDF2" d="m153.139 631.779 7.207-7.207h-14.414l7.207 7.207ZM163.537 623.251h15.299l-7.647-7.651-7.652 7.651ZM145.932 623.253h14.418l-7.211-7.212-7.207 7.212Z"/><path fill="#3B57AA" d="m45.91 615.107 8.307-8.312 7.873 7.869-8.307 8.312-7.873-7.869Z"/><path fill="#DADDF2" d="m108.244 622.869 16.342-16.346H91.898l16.346 16.346ZM19.061 605.696l17.033-17.028 17.109 17.114-17.033 17.027-17.109-17.113ZM72.046 622.759l16.236-16.236H55.815l8.14 8.145 8.091 8.091ZM161.722 622.758v-15.303l-7.652 7.652 7.652 7.651ZM163.043 621.878l7.212-7.211-7.212-7.212v14.423ZM91.465 605.203h33.343l-16.672-16.672-16.671 16.672ZM55.815 605.204h32.903l-16.452-16.452-16.452 16.452Z"/><path fill="#3B57AA" d="m54.877 604.27 7.212-7.207-7.212-7.211v14.418Z"/><path fill="#DADDF2" d="m73.2 587.817 16.45 16.451v-32.903L73.2 587.817Z"/><path fill="#3B57AA" d="m18.705 604.186 7.212-7.207-7.212-7.211v14.418ZM17.386 604.187v-15.294l-7.648 7.647 7.648 7.647ZM45.994 596.54l7.564 7.564v-15.127l-7.564 7.563Z"/><path fill="#DADDF2" d="m90.97 603.83 16.232-16.231-16.231-16.232v32.463Z"/><path fill="#3B57AA" d="m63.023 596.13 7.647-7.651H55.37l7.652 7.651ZM26.85 596.046l7.648-7.651H19.199l7.652 7.651ZM37.93 588.479l7.132 7.128 7.128-7.128H37.93ZM8.805 595.606l7.212-7.211H1.594l7.211 7.211ZM55.375 587.157h15.299l-7.652-7.651-7.647 7.651ZM37.766 587.159h14.423l-7.212-7.212-7.211 7.212ZM19.203 587.075h15.295l-7.648-7.647-7.647 7.647ZM1.594 587.074h14.418l-7.207-7.207-7.211 7.207Z"/><path fill="#DADDF2" d="m27.781 578.495 8.312 8.307.08-.079.083.079 17.028-17.028-17.112-17.112-17.111 17.112 8.72 8.721Z"/><path fill="#3B57AA" d="m145.055 569.688 17.111-17.112 17.112 17.112-17.112 17.111-17.111-17.111Z"/><path fill="#DADDF2" d="m185.781 597.059 17.112-17.112 17.111 17.112-17.111 17.111-17.112-17.111ZM73.201 514.701l17.112-17.111 17.111 17.111-17.112 17.112-17.111-17.112Z"/><path fill="#3B57AA" d="m45.91 579.014 7.647 7.647v-15.29l-7.647 7.643ZM17.386 586.584v-15.299l-7.648 7.652 7.648 7.647ZM54.877 585.79l7.212-7.211-7.212-7.212v14.423ZM18.705 585.708l7.212-7.211-7.212-7.212v14.423ZM118.034 560.585l7.868-7.868 8.309 8.308-7.869 7.868-8.308-8.308Z"/><path fill="#DADDF2" d="M54.218 568.84h.005l17.107-17.111-17.111-17.112-17.108 17.112L54.22 568.84ZM18.13 568.84l17.11-17.111-17.11-17.112-17.112 17.112 17.028 17.028.083.083ZM90.31 568.84l17.06-17.058.052-.053-17.111-17.112-17.112 17.112 8.8 8.8 8.312 8.311ZM63.955 578.575l7.652 7.652v-15.303l-7.652 7.651ZM72.928 586.227l7.207-7.207-7.207-7.208v14.415ZM81.067 578.083l7.652-7.647h-15.3l7.648 7.647ZM55.816 570.436l7.208 7.207 7.207-7.207H55.816ZM73.416 569.114h15.303l-7.651-7.651-7.652 7.651ZM55.816 569.115h14.42l-7.212-7.207-7.208 7.207ZM71.608 568.623v-15.299l-7.647 7.652 7.647 7.647ZM72.928 567.739l7.207-7.208-7.207-7.207v14.415ZM135.151 560.095l8.308-8.311-8.308-8.307-8.311 8.307 8.311 8.311ZM117.108 559.655l7.867-7.872-7.871-7.867-7.815 7.814-.053.053 7.872 7.872Z"/><path fill="#3B57AA" d="m125.906 550.851 8.312-8.308-7.872-7.871-8.307 8.311 7.867 7.868ZM19.062 533.68l17.112-17.112 17.111 17.112-17.111 17.111-17.112-17.111ZM-17.026 497.592.086 480.48l17.111 17.112L.086 514.703l-17.112-17.111Z"/><path fill="#DADDF2" d="m18.977 497.589 17.115-17.11 17.11 17.114-17.115 17.11-17.11-17.114Z"/></g></g><g clip-path="url(#p)" opacity=".9"><mask id="q" width="220" height="220" x="220" y="440" maskUnits="userSpaceOnUse" style="mask-type:luminance"><path fill="#fff" d="M439.916 660V440H220v220h219.916Z"/></mask><g mask="url(#q)"><path fill="#DADDF2" d="m330.822 659.995-17.115-17.11L296.597 660l17.115 17.11 17.11-17.115Z"/><path fill="#3B57AA" d="m367.074 658.407-7.211-7.207 7.211-7.212v14.419ZM368.393 658.409v-15.304l7.652 7.652-7.652 7.652ZM358.928 650.267l-7.647-7.652h15.299l-7.652 7.652ZM376.978 649.822l-7.207-7.207h14.415l-7.208 7.207ZM366.586 641.298h-15.303l7.651-7.652 7.652 7.652ZM384.186 641.295h-14.419l7.207-7.207 7.212 7.207ZM394.088 632.715l-7.871-7.871-8.308 8.307 7.872 7.872 8.307-8.308ZM313.711 640.914l-17.116-17.111 17.006-17.006 17.112 17.116-17.002 17.001ZM368.394 640.805v-15.299l7.647 7.651-7.647 7.648Z"/><path fill="#DADDF2" d="m276.957 640.364-7.212-7.207 7.212-7.212v14.419ZM350.348 640.363V607.02l16.672 16.671-.22.22-8.8 8.8-7.652 7.652ZM349.029 640.364l-16.451-16.451.11-.11 16.341-16.342v32.903ZM278.278 640.364v-15.303l7.652 7.651-7.652 7.652Z"/><path fill="#3B57AA" d="m367.074 639.92-7.207-7.207 7.207-7.207v14.414Z"/><path fill="#DADDF2" d="m268.811 632.224-7.647-7.652h15.299l-7.652 7.652Z"/><path fill="#3B57AA" d="m376.978 632.218-8.312-8.307 8.312-8.311 8.307 8.311-8.307 8.307ZM402.891 623.909l-7.871-7.872-7.872 7.872 7.872 7.871 7.871-7.871Z"/><path fill="#DADDF2" d="m286.861 631.779-7.207-7.207h14.414l-7.207 7.207ZM276.463 623.251h-15.299l7.647-7.651 7.652 7.651ZM294.068 623.253H279.65l7.211-7.212 7.207 7.212Z"/><path fill="#3B57AA" d="m394.09 615.107-8.307-8.312-7.873 7.869 8.307 8.312 7.873-7.869Z"/><path fill="#DADDF2" d="m331.756 622.869-16.342-16.346h32.688l-16.346 16.346ZM420.939 605.696l-17.033-17.028-17.109 17.114 17.033 17.027 17.109-17.113ZM367.954 622.759l-16.236-16.236h32.468l-8.14 8.145-8.092 8.091ZM278.278 622.758v-15.303l7.652 7.652-7.652 7.651ZM276.957 621.878l-7.212-7.211 7.212-7.212v14.423ZM348.535 605.203h-33.343l16.672-16.672 16.671 16.672ZM384.186 605.204h-32.904l16.452-16.452 16.452 16.452Z"/><path fill="#3B57AA" d="m385.123 604.27-7.212-7.207 7.212-7.211v14.418Z"/><path fill="#DADDF2" d="m366.801 587.817-16.452 16.451v-32.903l16.452 16.452Z"/><path fill="#3B57AA" d="m421.295 604.186-7.212-7.207 7.212-7.211v14.418ZM422.615 604.187v-15.294l7.647 7.647-7.647 7.647ZM394.006 596.54l-7.564 7.564v-15.127l7.564 7.563Z"/><path fill="#DADDF2" d="m349.029 603.83-16.231-16.231 16.231-16.232v32.463Z"/><path fill="#3B57AA" d="m376.977 596.13-7.647-7.651h15.299l-7.652 7.651ZM413.149 596.046l-7.647-7.651h15.299l-7.652 7.651ZM402.07 588.479l-7.132 7.128-7.128-7.128h14.26ZM431.195 595.606l-7.212-7.211h14.423l-7.211 7.211ZM384.625 587.157h-15.299l7.652-7.651 7.647 7.651ZM402.234 587.159h-14.423l7.212-7.212 7.211 7.212ZM420.797 587.075h-15.295l7.648-7.647 7.647 7.647ZM438.406 587.074h-14.419l7.208-7.207 7.211 7.207Z"/><path fill="#DADDF2" d="m412.219 578.495-8.312 8.307-.079-.079-.084.079-17.028-17.028 17.112-17.112 17.111 17.112-8.72 8.721Z"/><path fill="#3B57AA" d="m294.945 569.688-17.111-17.112-17.112 17.112 17.112 17.111 17.111-17.111Z"/><path fill="#DADDF2" d="m254.219 597.059-17.112-17.112-17.111 17.112 17.111 17.111 17.112-17.111ZM366.799 514.701l-17.111-17.111-17.112 17.111 17.112 17.112 17.111-17.112Z"/><path fill="#3B57AA" d="m394.09 579.014-7.647 7.647v-15.29l7.647 7.643ZM422.615 586.584v-15.299l7.647 7.652-7.647 7.647ZM385.123 585.79l-7.212-7.211 7.212-7.212v14.423ZM421.295 585.708l-7.212-7.211 7.212-7.212v14.423ZM321.966 560.585l-7.868-7.868-8.309 8.308 7.869 7.868 8.308-8.308Z"/><path fill="#DADDF2" d="M385.781 568.84h-.004l-17.107-17.111 17.111-17.112 17.108 17.112-17.108 17.111ZM421.871 568.84l-17.112-17.111 17.112-17.112 17.111 17.112-17.028 17.028-.083.083ZM349.689 568.84l-17.059-17.058-.052-.053 17.111-17.112 17.112 17.112-8.8 8.8-8.312 8.311ZM376.045 578.575l-7.652 7.652v-15.303l7.652 7.651ZM367.072 586.227l-7.207-7.207 7.207-7.208v14.415ZM358.933 578.083l-7.652-7.647h15.299l-7.647 7.647ZM384.184 570.436l-7.208 7.207-7.207-7.207h14.415ZM366.584 569.114h-15.303l7.651-7.651 7.652 7.651ZM384.184 569.115h-14.419l7.211-7.207 7.208 7.207ZM368.392 568.623v-15.299l7.647 7.652-7.647 7.647ZM367.072 567.739l-7.207-7.208 7.207-7.207v14.415ZM304.849 560.095l-8.308-8.311 8.308-8.307 8.311 8.307-8.311 8.311ZM322.892 559.655l-7.867-7.872 7.871-7.867 7.815 7.814.053.053-7.872 7.872Z"/><path fill="#3B57AA" d="m314.094 550.851-8.312-8.308 7.872-7.871 8.307 8.311-7.867 7.868ZM420.938 533.68l-17.112-17.112-17.111 17.112 17.111 17.111 17.112-17.111ZM457.026 497.592l-17.112-17.112-17.111 17.112 17.111 17.111 17.112-17.111Z"/><path fill="#DADDF2" d="m421.023 497.589-17.115-17.11-17.11 17.114 17.115 17.11 17.11-17.114Z"/></g></g><g fill="#B0B3C4" clip-path="url(#r)"><path d="M24.226 341.113c0 .616-.497 1.113-1.113 1.113A1.112 1.112 0 0 1 22 341.113c0-.616.497-1.113 1.113-1.113s1.113.497 1.113 1.113ZM34.218 341.113c0 .616-.497 1.113-1.113 1.113a1.112 1.112 0 0 1-1.113-1.113c0-.616.497-1.113 1.113-1.113s1.113.497 1.113 1.113ZM44.224 341.113c0 .616-.497 1.113-1.113 1.113a1.112 1.112 0 0 1-1.113-1.113c0-.616.497-1.113 1.113-1.113s1.113.497 1.113 1.113ZM54.228 341.113c0 .616-.497 1.113-1.113 1.113a1.111 1.111 0 0 1-1.113-1.113c0-.616.497-1.113 1.113-1.113s1.113.497 1.113 1.113ZM64.222 341.113c0 .616-.497 1.113-1.113 1.113a1.112 1.112 0 0 1-1.113-1.113c0-.616.497-1.113 1.113-1.113s1.113.497 1.113 1.113ZM74.226 341.113c0 .616-.497 1.113-1.113 1.113A1.112 1.112 0 0 1 72 341.113c0-.616.497-1.113 1.113-1.113s1.113.497 1.113 1.113ZM84.218 341.113c0 .616-.497 1.113-1.113 1.113a1.112 1.112 0 0 1-1.113-1.113c0-.616.498-1.113 1.113-1.113.616 0 1.113.497 1.113 1.113ZM24.226 350.006c0 .615-.497 1.112-1.113 1.112a1.111 1.111 0 1 1 0-2.225c.616 0 1.113.497 1.113 1.113ZM34.218 350.006c0 .615-.497 1.112-1.113 1.112a1.111 1.111 0 1 1 0-2.225c.616 0 1.113.497 1.113 1.113ZM44.224 350.006c0 .615-.497 1.112-1.113 1.112a1.111 1.111 0 1 1 0-2.225c.616 0 1.113.497 1.113 1.113ZM54.228 350.006c0 .615-.497 1.112-1.113 1.112a1.111 1.111 0 1 1 0-2.225c.616 0 1.113.497 1.113 1.113ZM64.222 350.006c0 .615-.497 1.112-1.113 1.112a1.111 1.111 0 1 1 0-2.225c.616 0 1.113.497 1.113 1.113ZM74.226 350.006c0 .615-.497 1.112-1.113 1.112a1.111 1.111 0 1 1 0-2.225c.616 0 1.113.497 1.113 1.113ZM84.218 350.006c0 .615-.497 1.112-1.113 1.112a1.111 1.111 0 1 1 0-2.225c.616 0 1.113.497 1.113 1.113ZM23.113 359.997a1.113 1.113 0 1 0 0-2.226 1.113 1.113 0 0 0 0 2.226ZM34.218 358.884c0 .616-.497 1.113-1.113 1.113a1.112 1.112 0 1 1 1.113-1.113ZM43.111 359.997a1.113 1.113 0 1 0 0-2.226 1.113 1.113 0 0 0 0 2.226ZM54.228 358.884c0 .616-.497 1.113-1.113 1.113a1.112 1.112 0 1 1 1.113-1.113ZM64.222 358.884c0 .616-.497 1.113-1.113 1.113a1.112 1.112 0 1 1 1.113-1.113ZM73.113 359.997a1.113 1.113 0 1 0 0-2.226 1.113 1.113 0 0 0 0 2.226ZM84.218 358.884c0 .616-.497 1.113-1.113 1.113a1.112 1.112 0 1 1 1.113-1.113ZM23.113 368.89a1.113 1.113 0 1 0 0-2.226 1.113 1.113 0 0 0 0 2.226ZM34.218 367.777c0 .616-.497 1.113-1.113 1.113a1.112 1.112 0 0 1-1.113-1.113c0-.616.497-1.113 1.113-1.113s1.113.497 1.113 1.113ZM43.111 368.89a1.113 1.113 0 1 0 0-2.226 1.113 1.113 0 0 0 0 2.226ZM54.228 367.777c0 .616-.497 1.113-1.113 1.113a1.111 1.111 0 0 1-1.113-1.113c0-.616.497-1.113 1.113-1.113s1.113.497 1.113 1.113ZM64.222 367.777c0 .616-.497 1.113-1.113 1.113a1.112 1.112 0 0 1-1.113-1.113c0-.616.497-1.113 1.113-1.113s1.113.497 1.113 1.113ZM73.113 368.89a1.113 1.113 0 1 0 0-2.226 1.113 1.113 0 0 0 0 2.226ZM84.218 367.777c0 .616-.497 1.113-1.113 1.113a1.112 1.112 0 0 1-1.113-1.113c0-.616.498-1.113 1.113-1.113.616 0 1.113.497 1.113 1.113ZM24.226 376.668a1.112 1.112 0 1 1-2.226 0c0-.616.497-1.113 1.113-1.113s1.113.497 1.113 1.113ZM34.218 376.668a1.112 1.112 0 1 1-2.226 0c0-.616.497-1.113 1.113-1.113s1.113.497 1.113 1.113ZM44.224 376.668a1.112 1.112 0 1 1-2.226 0c0-.616.497-1.113 1.113-1.113s1.113.497 1.113 1.113ZM54.228 376.668a1.112 1.112 0 1 1-2.226 0c0-.616.497-1.113 1.113-1.113s1.113.497 1.113 1.113ZM64.222 376.668a1.112 1.112 0 1 1-2.226 0c0-.616.497-1.113 1.113-1.113s1.113.497 1.113 1.113ZM74.226 376.668a1.112 1.112 0 1 1-2.226 0c0-.616.497-1.113 1.113-1.113s1.113.497 1.113 1.113ZM84.218 376.668a1.112 1.112 0 1 1-2.226 0c0-.616.498-1.113 1.113-1.113.616 0 1.113.497 1.113 1.113ZM23.113 386.673a1.113 1.113 0 1 0 0-2.226 1.113 1.113 0 0 0 0 2.226ZM34.218 385.56c0 .616-.497 1.113-1.113 1.113a1.112 1.112 0 1 1 1.113-1.113ZM43.111 386.673a1.113 1.113 0 1 0 0-2.226 1.113 1.113 0 0 0 0 2.226ZM54.228 385.56c0 .616-.497 1.113-1.113 1.113a1.112 1.112 0 1 1 1.113-1.113ZM64.222 385.56c0 .616-.497 1.113-1.113 1.113a1.112 1.112 0 1 1 1.113-1.113ZM73.113 386.673a1.113 1.113 0 1 0 0-2.226 1.113 1.113 0 0 0 0 2.226ZM84.218 385.56c0 .616-.497 1.113-1.113 1.113a1.112 1.112 0 1 1 1.113-1.113ZM23.113 395.564a1.113 1.113 0 1 0 0-2.226 1.113 1.113 0 0 0 0 2.226ZM34.218 394.451c0 .616-.497 1.113-1.113 1.113a1.112 1.112 0 0 1-1.113-1.113c0-.616.497-1.113 1.113-1.113s1.113.497 1.113 1.113ZM43.111 395.564a1.113 1.113 0 1 0 0-2.226 1.113 1.113 0 0 0 0 2.226ZM54.228 394.451c0 .616-.497 1.113-1.113 1.113a1.111 1.111 0 0 1-1.113-1.113c0-.616.497-1.113 1.113-1.113s1.113.497 1.113 1.113ZM64.222 394.451c0 .616-.497 1.113-1.113 1.113a1.112 1.112 0 0 1-1.113-1.113c0-.616.497-1.113 1.113-1.113s1.113.497 1.113 1.113ZM73.113 395.564a1.113 1.113 0 1 0 0-2.226 1.113 1.113 0 0 0 0 2.226ZM84.218 394.451c0 .616-.497 1.113-1.113 1.113a1.112 1.112 0 0 1-1.113-1.113c0-.616.498-1.113 1.113-1.113.616 0 1.113.497 1.113 1.113ZM24.226 403.332a1.112 1.112 0 1 1-2.226 0c0-.616.497-1.113 1.113-1.113s1.113.497 1.113 1.113ZM34.218 403.332a1.112 1.112 0 1 1-2.226 0c0-.616.497-1.113 1.113-1.113s1.113.497 1.113 1.113ZM44.224 403.332a1.112 1.112 0 1 1-2.226 0c0-.616.497-1.113 1.113-1.113s1.113.497 1.113 1.113ZM54.228 403.332a1.112 1.112 0 1 1-2.226 0c0-.616.497-1.113 1.113-1.113s1.113.497 1.113 1.113ZM64.222 403.332a1.112 1.112 0 1 1-2.226 0c0-.616.497-1.113 1.113-1.113s1.113.497 1.113 1.113ZM74.226 403.332a1.112 1.112 0 1 1-2.226 0c0-.616.497-1.113 1.113-1.113s1.113.497 1.113 1.113ZM84.218 403.332a1.112 1.112 0 1 1-2.226 0c0-.616.498-1.113 1.113-1.113.616 0 1.113.497 1.113 1.113ZM23.113 413.337a1.113 1.113 0 1 0 0-2.226 1.113 1.113 0 0 0 0 2.226ZM34.218 412.224c0 .616-.497 1.113-1.113 1.113a1.112 1.112 0 1 1 1.113-1.113ZM43.111 413.337a1.113 1.113 0 1 0 0-2.226 1.113 1.113 0 0 0 0 2.226ZM54.228 412.224c0 .616-.497 1.113-1.113 1.113a1.112 1.112 0 1 1 1.113-1.113ZM64.222 412.224c0 .616-.497 1.113-1.113 1.113a1.112 1.112 0 1 1 1.113-1.113ZM73.113 413.337a1.113 1.113 0 1 0 0-2.226 1.113 1.113 0 0 0 0 2.226ZM84.218 412.224c0 .616-.497 1.113-1.113 1.113a1.112 1.112 0 1 1 1.113-1.113ZM24.226 421.115c0 .616-.497 1.113-1.113 1.113A1.112 1.112 0 0 1 22 421.115c0-.616.497-1.113 1.113-1.113s1.113.497 1.113 1.113ZM34.218 421.115c0 .616-.497 1.113-1.113 1.113a1.112 1.112 0 0 1-1.113-1.113c0-.616.497-1.113 1.113-1.113s1.113.497 1.113 1.113ZM44.224 421.115c0 .616-.497 1.113-1.113 1.113a1.112 1.112 0 0 1-1.113-1.113c0-.616.497-1.113 1.113-1.113s1.113.497 1.113 1.113ZM54.228 421.115c0 .616-.497 1.113-1.113 1.113a1.111 1.111 0 0 1-1.113-1.113c0-.616.497-1.113 1.113-1.113s1.113.497 1.113 1.113ZM64.222 421.115c0 .616-.497 1.113-1.113 1.113a1.112 1.112 0 0 1-1.113-1.113c0-.616.497-1.113 1.113-1.113s1.113.497 1.113 1.113ZM74.226 421.115c0 .616-.497 1.113-1.113 1.113A1.112 1.112 0 0 1 72 421.115c0-.616.497-1.113 1.113-1.113s1.113.497 1.113 1.113ZM84.218 421.115c0 .616-.497 1.113-1.113 1.113a1.112 1.112 0 0 1-1.113-1.113c0-.616.498-1.113 1.113-1.113.616 0 1.113.497 1.113 1.113ZM23.113 431.12a1.113 1.113 0 1 0 0-2.226 1.113 1.113 0 0 0 0 2.226ZM34.218 430.007c0 .616-.497 1.113-1.113 1.113a1.112 1.112 0 1 1 0-2.225c.616 0 1.113.497 1.113 1.112ZM43.111 431.12a1.113 1.113 0 1 0 0-2.226 1.113 1.113 0 0 0 0 2.226ZM54.228 430.007c0 .616-.497 1.113-1.113 1.113a1.111 1.111 0 1 1 0-2.225c.616 0 1.113.497 1.113 1.112ZM64.222 430.007c0 .616-.497 1.113-1.113 1.113a1.112 1.112 0 1 1 0-2.225c.616 0 1.113.497 1.113 1.112ZM73.113 431.12a1.113 1.113 0 1 0 0-2.226 1.113 1.113 0 0 0 0 2.226ZM84.218 430.007c0 .616-.497 1.113-1.113 1.113a1.112 1.112 0 1 1 0-2.225c.616 0 1.113.497 1.113 1.112ZM23.113 439.999a1.113 1.113 0 1 0 0-2.226 1.113 1.113 0 0 0 0 2.226ZM34.218 438.886c0 .616-.497 1.113-1.113 1.113a1.112 1.112 0 1 1 1.113-1.113ZM43.111 439.999a1.113 1.113 0 1 0 0-2.226 1.113 1.113 0 0 0 0 2.226ZM54.228 438.886c0 .616-.497 1.113-1.113 1.113a1.112 1.112 0 1 1 1.113-1.113ZM64.222 438.886c0 .616-.497 1.113-1.113 1.113a1.112 1.112 0 1 1 1.113-1.113ZM73.113 439.999a1.113 1.113 0 1 0 0-2.226 1.113 1.113 0 0 0 0 2.226ZM84.218 438.886c0 .616-.497 1.113-1.113 1.113a1.112 1.112 0 1 1 1.113-1.113Z"/></g><g clip-path="url(#s)"><path fill="#E1F4FC" d="M218.5 289.912 99 390.001l119.5 100.088L338 390.001 218.5 289.912Z"/><path fill="#1B274C" d="M178.449 348v-9.998h1.435c.625 0 1.114.018 1.465.052 1.011.102 1.831.385 2.461.849a4.674 4.674 0 0 1 1.538 1.941c.283.65.425 1.363.425 2.139 0 1.221-.342 2.283-1.025 3.186-.767 1.011-1.729 1.592-2.886 1.743-.469.059-.952.088-1.45.088h-1.963Zm.901-.798h1.018c.61 0 1.059-.022 1.347-.066.982-.142 1.763-.63 2.344-1.465.493-.713.74-1.597.74-2.651 0-1.133-.288-2.068-.864-2.806-.611-.786-1.512-1.24-2.703-1.362a14.545 14.545 0 0 0-1.34-.051h-.542v8.401Zm10.873.798v-9.998h.901V348h-.901Zm5.146-1.904.784-.388c.146.366.273.639.381.82.332.552.83.827 1.494.827.591 0 1.067-.224 1.428-.673.254-.313.381-.716.381-1.209 0-.556-.166-1.025-.498-1.406-.215-.244-.623-.523-1.223-.835-.782-.41-1.311-.74-1.59-.989a2.442 2.442 0 0 1-.63-.871 2.688 2.688 0 0 1-.227-1.084c0-.865.33-1.524.989-1.978.43-.303.955-.454 1.575-.454.854 0 1.516.305 1.985.915.166.215.317.489.454.821l-.791.395a3.546 3.546 0 0 0-.366-.666 1.58 1.58 0 0 0-1.333-.667c-.459 0-.845.157-1.158.469-.283.283-.424.652-.424 1.106 0 .498.178.933.534 1.304.205.215.576.459 1.114.732.815.415 1.384.789 1.706 1.121.542.547.813 1.218.813 2.014 0 .859-.3 1.565-.901 2.117-.464.424-1.074.637-1.831.637-.757 0-1.34-.188-1.75-.564-.381-.352-.686-.85-.916-1.494Zm17.026 1.501a5.644 5.644 0 0 1-2.49.549c-1.651 0-2.979-.595-3.985-1.787-.83-.981-1.245-2.094-1.245-3.339 0-.728.154-1.434.462-2.117a5.264 5.264 0 0 1 1.296-1.773c.957-.854 2.122-1.281 3.494-1.281.879 0 1.701.185 2.468.556v.989c-.806-.498-1.636-.747-2.49-.747-.64 0-1.243.129-1.809.388a4.009 4.009 0 0 0-1.443 1.099c-.674.805-1.011 1.762-1.011 2.871 0 1.294.457 2.363 1.37 3.208.815.757 1.794 1.135 2.937 1.135.815 0 1.631-.254 2.446-.762v1.011Zm8.625-9.741c1.426 0 2.647.505 3.662 1.516a4.993 4.993 0 0 1 1.135 1.685c.269.634.403 1.298.403 1.992 0 1.396-.5 2.59-1.501 3.581-1.021 1.011-2.288 1.516-3.802 1.516-1.513 0-2.766-.52-3.757-1.56a5.236 5.236 0 0 1-1.091-1.728 4.972 4.972 0 0 1-.352-1.824c0-1.015.283-1.97.85-2.864.513-.81 1.223-1.425 2.131-1.845.689-.313 1.463-.469 2.322-.469Zm-.132.798c-1.172 0-2.165.413-2.981 1.238-.815.825-1.223 1.858-1.223 3.098 0 1.172.369 2.166 1.106 2.981.386.425.852.759 1.399 1.004a4.287 4.287 0 0 0 1.758.373c1.201 0 2.234-.447 3.098-1.34.806-.83 1.208-1.804 1.208-2.923 0-.576-.107-1.135-.322-1.677a4.4 4.4 0 0 0-.886-1.435c-.825-.879-1.878-1.319-3.157-1.319Zm9.68-.652h.901v6.145c0 .601.027 1.045.08 1.333.122.635.43 1.126.923 1.473.376.263.852.395 1.428.395 1.084 0 1.829-.395 2.234-1.186.21-.415.315-1.084.315-2.007v-6.153h.901v6.138c0 .659-.039 1.182-.117 1.568-.166.825-.586 1.464-1.26 1.918-.517.347-1.201.52-2.051.52-1.362 0-2.326-.5-2.893-1.501-.307-.542-.461-1.374-.461-2.498v-6.145ZM242.152 348v-10.298l7.068 7.874c.254.293.42.512.498.659-.034-.264-.056-.759-.066-1.487v-6.746h.901v10.401l-6.936-7.778a15.662 15.662 0 0 1-.623-.792c.044.225.066.491.066.799l-.007.447V348h-.901Zm14.894 0v-9.199h-2.497v-.799h5.903v.799h-2.505V348h-.901ZM147.702 381.697v-1.033c3.444-.212 6.12-1.139 8.028-2.782 1.908-1.696 2.862-3.789 2.862-6.279 0-2.491-.61-4.372-1.829-5.644-1.165-1.325-2.702-1.987-4.61-1.987-1.908 0-3.365.318-4.372.954-1.007.583-1.51 1.404-1.51 2.464 0 1.695.821 2.941 2.464 3.736 0 1.112-.344 1.987-1.033 2.623-.689.583-1.51.874-2.464.874s-1.802-.371-2.544-1.113c-.742-.795-1.113-1.801-1.113-3.02 0-2.173 1.087-4.001 3.259-5.485 2.173-1.484 4.928-2.226 8.267-2.226 3.338 0 6.041.769 8.108 2.306 2.119 1.483 3.179 3.603 3.179 6.359 0 5.405-3.974 8.611-11.923 9.618v.238c4.08.212 7.366 1.298 9.856 3.259 2.491 1.961 3.736 4.61 3.736 7.949 0 3.338-1.271 6.094-3.815 8.266-2.491 2.173-6.094 3.259-10.81 3.259-3.074 0-5.697-.848-7.87-2.543-2.172-1.749-3.259-3.895-3.259-6.439 0-1.325.371-2.358 1.113-3.1.795-.742 1.696-1.113 2.703-1.113s1.855.318 2.543.954c.742.583 1.113 1.484 1.113 2.703-1.695.795-2.57 1.987-2.623 3.577 0 1.537.557 2.729 1.669 3.577 1.166.795 2.809 1.192 4.929 1.192 2.119 0 3.895-.874 5.325-2.623 1.484-1.802 2.226-4.266 2.226-7.392 0-6.889-3.868-10.599-11.605-11.129Zm51.191 1.829c0 6.624-1.272 11.711-3.816 15.261-2.543 3.498-6.014 5.246-10.413 5.246-4.345 0-7.789-1.775-10.333-5.325-2.491-3.604-3.736-8.691-3.736-15.262 0-6.624 1.245-11.711 3.736-15.261 2.544-3.551 5.988-5.326 10.333-5.326 4.399-.053 7.87 1.722 10.413 5.326 2.544 3.55 3.816 8.664 3.816 15.341Zm-6.28 4.61v-9.539c0-4.981-.715-8.664-2.146-11.048-1.378-2.385-3.286-3.577-5.723-3.577-2.438 0-4.372 1.192-5.803 3.577-1.378 2.384-2.066 6.067-2.066 11.048v9.539c0 5.034.688 8.743 2.066 11.128 1.431 2.385 3.365 3.577 5.803 3.577 2.384 0 4.292-1.166 5.723-3.497 1.431-2.385 2.146-6.121 2.146-11.208Z"/><path fill="#000" d="M222.247 387.638c-1.385 0-2.492-.523-3.323-1.569-.8-1.077-1.2-2.615-1.2-4.615 0-2.031.4-3.569 1.2-4.616.831-1.046 1.938-1.569 3.323-1.569 1.354 0 2.431.523 3.231 1.569.83 1.047 1.246 2.585 1.246 4.616 0 2-.416 3.538-1.246 4.615-.8 1.046-1.877 1.569-3.231 1.569Zm2.261-4.753v-2.908c0-2.739-.753-4.108-2.261-4.108-1.539 0-2.308 1.369-2.308 4.108v2.908c0 2.769.769 4.153 2.308 4.153 1.508 0 2.261-1.384 2.261-4.153Zm-14.723-5.908c-1.354 0-2.446-.523-3.277-1.569-.8-1.077-1.2-2.631-1.2-4.662 0-2 .4-3.523 1.2-4.569.831-1.046 1.923-1.569 3.277-1.569 1.385 0 2.477.538 3.277 1.615.831 1.046 1.246 2.554 1.246 4.523 0 2.031-.415 3.585-1.246 4.662-.8 1.046-1.892 1.569-3.277 1.569Zm2.308-4.754v-2.861c0-2.77-.769-4.154-2.308-4.154-1.507 0-2.261 1.384-2.261 4.154v2.861c0 2.739.754 4.108 2.261 4.108 1.539 0 2.308-1.369 2.308-4.108Zm10.338-7.477L211.078 387.5h-1.477l11.4-22.754h1.43ZM237.706 376.1c0-3.538 1-6.4 3-8.585 2.031-2.215 4.6-3.338 7.708-3.369 3.107 0 5.661 1.123 7.661 3.369 2.031 2.216 3.046 5.077 3.046 8.585 0 3.508-1 6.385-3 8.631-1.969 2.246-4.538 3.369-7.707 3.369-3.139 0-5.708-1.123-7.708-3.369-2-2.246-3-5.123-3-8.631Zm17.862 2.215v-4.384c0-2.739-.662-4.939-1.985-6.6-1.323-1.662-3.046-2.493-5.169-2.493-2.123 0-3.862.831-5.216 2.493-1.353 1.661-2.03 3.861-2.03 6.6v4.384c0 2.8.677 5.016 2.03 6.647 1.354 1.63 3.093 2.446 5.216 2.446s3.846-.816 5.169-2.446c1.323-1.631 1.985-3.847 1.985-6.647Zm14.056 8.585v.6h-8.354v-.6l2.584-.415v-20.723l-2.584-.416v-.6h17.077v6.923h-.739l-2.215-6.184h-8.4v10.661h4.8l1.661-4.154h.785v9h-.785l-1.661-4.154h-4.8v9.647l2.631.415Zm18.624 0v.6h-8.354v-.6l2.585-.415v-20.723l-2.585-.416v-.6h17.077v6.923h-.738l-2.216-6.184h-8.4v10.661h4.8l1.662-4.154h.784v9h-.784l-1.662-4.154h-4.8v9.647l2.631.415ZM204.635 402.5v-6.665h3.178v.532h-2.578v2.285h2.578v.533h-2.578v3.315h-.6Zm7.853-6.763c.951 0 1.765.337 2.442 1.011.328.322.581.697.757 1.123.179.423.268.866.268 1.328 0 .931-.334 1.727-1.001 2.388-.68.674-1.525 1.011-2.534 1.011s-1.844-.347-2.505-1.04a3.478 3.478 0 0 1-.727-1.153 3.301 3.301 0 0 1-.235-1.216c0-.677.189-1.313.567-1.909.341-.54.815-.95 1.42-1.23a3.694 3.694 0 0 1 1.548-.313Zm-.088.533c-.781 0-1.443.275-1.987.825-.544.55-.815 1.238-.815 2.065 0 .781.245 1.444.737 1.987.257.284.568.507.933.669.374.166.765.249 1.171.249.801 0 1.49-.297 2.066-.893.537-.554.806-1.203.806-1.948a3.02 3.02 0 0 0-.215-1.119 2.95 2.95 0 0 0-.591-.957c-.55-.586-1.252-.878-2.105-.878Zm5.022-.435h.659c.537 0 .89.011 1.06.034.498.069.87.287 1.118.654.211.316.317.682.317 1.099 0 .397-.101.747-.303 1.05-.266.4-.675.631-1.225.693l1.885 3.135h-.694l-1.87-3.135h-.347v3.135h-.6v-6.665Zm.6.532v2.466h.42c.271 0 .461-.007.572-.02.319-.039.561-.174.727-.405.143-.205.215-.467.215-.786 0-.618-.234-1.009-.703-1.172-.16-.055-.444-.083-.855-.083h-.376Zm6.84 4.863.523-.258c.097.244.182.426.254.547.221.367.553.551.996.551.394 0 .711-.149.952-.449.169-.208.254-.477.254-.806 0-.371-.111-.683-.332-.937-.143-.163-.415-.348-.816-.557-.52-.273-.874-.493-1.059-.659a1.619 1.619 0 0 1-.42-.581 1.787 1.787 0 0 1-.152-.723c0-.576.22-1.015.66-1.318.286-.202.636-.303 1.049-.303.57 0 1.011.204 1.324.611.11.143.211.325.302.547l-.527.263a2.385 2.385 0 0 0-.244-.444 1.054 1.054 0 0 0-.889-.444c-.306 0-.563.104-.771.312-.189.189-.283.435-.283.737 0 .332.118.622.356.869.137.144.384.306.742.489.544.276.923.525 1.138.747.361.364.542.812.542 1.343 0 .573-.2 1.043-.601 1.411-.309.283-.716.425-1.22.425-.505 0-.894-.126-1.167-.376-.254-.235-.458-.567-.611-.997Zm4.939-5.395h.6v4.097c0 .4.018.696.054.888.081.423.287.751.615.982.251.176.568.263.952.263.723 0 1.22-.263 1.49-.791.14-.276.21-.722.21-1.337v-4.102h.6v4.092c0 .439-.026.788-.078 1.045-.111.55-.39.976-.84 1.279-.345.231-.8.347-1.367.347-.908 0-1.551-.334-1.929-1.001-.205-.362-.307-.917-.307-1.665v-4.097Zm5.822 6.665 1.128-6.865 2.041 4.746c.15.358.272.664.366.918.124-.348.236-.643.337-.884l2.026-4.78 1.119 6.865h-.606l-.649-4.053a31.85 31.85 0 0 1-.103-.869c-.052.166-.13.378-.234.635l-1.89 4.487-1.924-4.477a12.364 12.364 0 0 1-.244-.645 10.45 10.45 0 0 0-.024.318c-.01.13-.033.307-.069.532l-.654 4.072h-.62Zm7.99 0 1.128-6.865 2.041 4.746c.15.358.272.664.366.918.124-.348.236-.643.337-.884l2.027-4.78 1.118 6.865h-.606l-.649-4.053a42.555 42.555 0 0 1-.103-.869c-.052.166-.13.378-.234.635l-1.89 4.487-1.923-4.477a11.558 11.558 0 0 1-.245-.645 10.45 10.45 0 0 0-.024.318c-.01.13-.032.307-.068.532l-.655 4.072h-.62Zm8.391 0v-6.665h3.232v.532h-2.632v2.285h2.632v.533h-2.632v2.783h2.632v.532h-3.232Zm4.767-6.665h.66c.537 0 .89.011 1.059.034.498.069.871.287 1.118.654.212.316.318.682.318 1.099 0 .397-.101.747-.303 1.05-.267.4-.675.631-1.226.693l1.885 3.135h-.693l-1.87-3.135h-.347v3.135h-.601v-6.665Zm.601.532v2.466h.42a5.6 5.6 0 0 0 .571-.02c.319-.039.562-.174.728-.405.143-.205.215-.467.215-.786 0-.618-.235-1.009-.703-1.172-.16-.055-.445-.083-.855-.083h-.376Zm6.84 4.863.522-.258c.098.244.183.426.254.547.222.367.554.551.996.551.394 0 .712-.149.953-.449.169-.208.253-.477.253-.806 0-.371-.11-.683-.332-.937-.143-.163-.415-.348-.815-.557-.521-.273-.874-.493-1.06-.659a1.619 1.619 0 0 1-.42-.581 1.802 1.802 0 0 1-.151-.723c0-.576.22-1.015.659-1.318.287-.202.637-.303 1.05-.303.57 0 1.011.204 1.323.611.111.143.212.325.303.547l-.527.263a2.445 2.445 0 0 0-.244-.444 1.055 1.055 0 0 0-.889-.444c-.306 0-.563.104-.772.312-.188.189-.283.435-.283.737 0 .332.119.622.357.869.136.144.384.306.742.489.543.276.923.525 1.138.747.361.364.542.812.542 1.343 0 .573-.201 1.043-.601 1.411-.309.283-.716.425-1.221.425-.504 0-.893-.126-1.167-.376-.254-.235-.457-.567-.61-.997Zm5.007 1.27v-6.665h3.232v.532h-2.632v2.285h2.632v.533h-2.632v2.783h2.632v.532h-3.232Zm7.009-6.885 2.89 6.885h-.635l-.839-2.002h-2.793l-.83 2.002h-.635l2.842-6.885Zm1.196 4.365-.591-1.425a29.068 29.068 0 0 1-.601-1.504 29.46 29.46 0 0 1-.517 1.357l-.65 1.572h2.359Zm2.399 1.25.523-.258c.097.244.182.426.254.547.221.367.553.551.996.551.394 0 .711-.149.952-.449.169-.208.254-.477.254-.806 0-.371-.111-.683-.332-.937-.144-.163-.415-.348-.816-.557-.521-.273-.874-.493-1.059-.659a1.619 1.619 0 0 1-.42-.581 1.787 1.787 0 0 1-.152-.723c0-.576.22-1.015.66-1.318.286-.202.636-.303 1.049-.303.57 0 1.011.204 1.324.611.11.143.211.325.302.547l-.527.263a2.385 2.385 0 0 0-.244-.444 1.054 1.054 0 0 0-.889-.444c-.306 0-.563.104-.771.312-.189.189-.283.435-.283.737 0 .332.118.622.356.869.137.144.384.306.742.489.544.276.923.525 1.138.747.361.364.542.812.542 1.343 0 .573-.2 1.043-.601 1.411-.309.283-.716.425-1.22.425-.505 0-.894-.126-1.167-.376-.254-.235-.458-.567-.611-.997Zm8.239-5.493c.951 0 1.765.337 2.442 1.011.329.322.581.697.757 1.123.179.423.268.866.268 1.328 0 .931-.333 1.727-1.001 2.388-.68.674-1.525 1.011-2.534 1.011s-1.844-.347-2.505-1.04a3.494 3.494 0 0 1-.727-1.153 3.301 3.301 0 0 1-.235-1.216c0-.677.189-1.313.567-1.909.342-.54.815-.95 1.421-1.23a3.693 3.693 0 0 1 1.547-.313Zm-.087.533a2.69 2.69 0 0 0-1.988.825c-.543.55-.815 1.238-.815 2.065 0 .781.246 1.444.737 1.987.257.284.568.507.933.669a2.86 2.86 0 0 0 1.172.249c.8 0 1.489-.297 2.065-.893.537-.554.806-1.203.806-1.948a3.02 3.02 0 0 0-.215-1.119 2.95 2.95 0 0 0-.591-.957c-.55-.586-1.252-.878-2.104-.878Zm5.021 6.23v-6.865l4.712 5.249c.169.195.28.342.332.439a10.455 10.455 0 0 1-.044-.991v-4.497h.601v6.934l-4.624-5.186a10.393 10.393 0 0 1-.415-.527c.029.149.044.327.044.532l-.005.298v4.614h-.601Z"/><path fill="#0175BE" d="M322.053 409.558v51.372H119.134v-51.372l-1.689-1.413v54.473h206.297v-54.473l-1.689 1.413ZM119.134 318.307h202.919v51.372l1.689 1.416v-54.476H117.445v54.476l1.689-1.416v-51.372Z"/><path fill="#3B57AA" d="M303.29 416H134l.731.612h167.828l.731-.612ZM292.465 425.064H144.822l.731.612h146.181l.731-.612ZM281.645 434.129H155.646l.731.612h124.537l.731-.612ZM270.82 443.193H166.467l.733.612h102.89l.73-.612ZM259.997 452.258h-82.706l.731.612h81.242l.733-.612ZM249.174 461.324h-61.059l.731.615h59.597l.731-.615ZM238.352 470.389h-39.414l.73.611h37.953l.731-.611Z"/></g><g fill="#B0B3C4" clip-path="url(#t)"><path d="M355.226 341.113c0 .616-.497 1.113-1.113 1.113a1.111 1.111 0 0 1-1.113-1.113c0-.616.497-1.113 1.113-1.113s1.113.497 1.113 1.113ZM365.218 341.113c0 .616-.497 1.113-1.113 1.113a1.111 1.111 0 0 1-1.113-1.113c0-.616.497-1.113 1.113-1.113s1.113.497 1.113 1.113ZM375.224 341.113c0 .616-.497 1.113-1.113 1.113a1.111 1.111 0 0 1-1.113-1.113c0-.616.497-1.113 1.113-1.113s1.113.497 1.113 1.113ZM385.228 341.113c0 .616-.497 1.113-1.113 1.113a1.111 1.111 0 0 1-1.113-1.113c0-.616.497-1.113 1.113-1.113s1.113.497 1.113 1.113ZM395.222 341.113c0 .616-.497 1.113-1.113 1.113a1.111 1.111 0 0 1-1.113-1.113c0-.616.497-1.113 1.113-1.113s1.113.497 1.113 1.113ZM405.226 341.113c0 .616-.497 1.113-1.113 1.113a1.111 1.111 0 0 1-1.113-1.113c0-.616.497-1.113 1.113-1.113s1.113.497 1.113 1.113ZM415.218 341.113c0 .616-.497 1.113-1.113 1.113a1.111 1.111 0 0 1-1.113-1.113c0-.616.497-1.113 1.113-1.113s1.113.497 1.113 1.113ZM355.226 350.006c0 .615-.497 1.112-1.113 1.112a1.111 1.111 0 1 1 0-2.225c.616 0 1.113.497 1.113 1.113ZM365.218 350.006c0 .615-.497 1.112-1.113 1.112a1.111 1.111 0 1 1 0-2.225c.616 0 1.113.497 1.113 1.113ZM375.224 350.006c0 .615-.497 1.112-1.113 1.112a1.111 1.111 0 1 1 0-2.225c.616 0 1.113.497 1.113 1.113ZM385.228 350.006c0 .615-.497 1.112-1.113 1.112a1.111 1.111 0 1 1 0-2.225c.616 0 1.113.497 1.113 1.113ZM395.222 350.006c0 .615-.497 1.112-1.113 1.112a1.111 1.111 0 1 1 0-2.225c.616 0 1.113.497 1.113 1.113ZM405.226 350.006c0 .615-.497 1.112-1.113 1.112a1.111 1.111 0 1 1 0-2.225c.616 0 1.113.497 1.113 1.113ZM415.218 350.006c0 .615-.497 1.112-1.113 1.112a1.111 1.111 0 1 1 0-2.225c.616 0 1.113.497 1.113 1.113ZM354.113 359.997a1.113 1.113 0 1 0 0-2.225 1.113 1.113 0 0 0 0 2.225ZM365.218 358.884c0 .616-.497 1.113-1.113 1.113a1.112 1.112 0 1 1 1.113-1.113ZM374.111 359.997a1.113 1.113 0 1 0 0-2.225 1.113 1.113 0 0 0 0 2.225ZM385.228 358.884c0 .616-.497 1.113-1.113 1.113a1.112 1.112 0 1 1 1.113-1.113ZM395.222 358.884c0 .616-.497 1.113-1.113 1.113a1.112 1.112 0 1 1 1.113-1.113ZM404.113 359.997a1.113 1.113 0 1 0 0-2.225 1.113 1.113 0 0 0 0 2.225ZM415.218 358.884c0 .616-.497 1.113-1.113 1.113a1.112 1.112 0 1 1 1.113-1.113ZM354.113 368.89a1.113 1.113 0 1 0 0-2.225 1.113 1.113 0 0 0 0 2.225ZM365.218 367.777c0 .616-.497 1.113-1.113 1.113a1.111 1.111 0 0 1-1.113-1.113c0-.616.497-1.113 1.113-1.113s1.113.497 1.113 1.113ZM374.111 368.89a1.113 1.113 0 1 0 0-2.225 1.113 1.113 0 0 0 0 2.225ZM385.228 367.777c0 .616-.497 1.113-1.113 1.113a1.111 1.111 0 0 1-1.113-1.113c0-.616.497-1.113 1.113-1.113s1.113.497 1.113 1.113ZM395.222 367.777c0 .616-.497 1.113-1.113 1.113a1.111 1.111 0 0 1-1.113-1.113c0-.616.497-1.113 1.113-1.113s1.113.497 1.113 1.113ZM404.113 368.89a1.113 1.113 0 1 0 0-2.225 1.113 1.113 0 0 0 0 2.225ZM415.218 367.777c0 .616-.497 1.113-1.113 1.113a1.111 1.111 0 0 1-1.113-1.113c0-.616.497-1.113 1.113-1.113s1.113.497 1.113 1.113ZM355.226 376.668a1.112 1.112 0 1 1-2.226 0c0-.616.497-1.113 1.113-1.113s1.113.497 1.113 1.113ZM365.218 376.668a1.112 1.112 0 1 1-2.226 0c0-.616.497-1.113 1.113-1.113s1.113.497 1.113 1.113ZM375.224 376.668a1.112 1.112 0 1 1-2.226 0c0-.616.497-1.113 1.113-1.113s1.113.497 1.113 1.113ZM385.228 376.668a1.112 1.112 0 1 1-2.226 0c0-.616.497-1.113 1.113-1.113s1.113.497 1.113 1.113ZM395.222 376.668a1.112 1.112 0 1 1-2.226 0c0-.616.497-1.113 1.113-1.113s1.113.497 1.113 1.113ZM405.226 376.668a1.112 1.112 0 1 1-2.226 0c0-.616.497-1.113 1.113-1.113s1.113.497 1.113 1.113ZM415.218 376.668a1.112 1.112 0 1 1-2.226 0c0-.616.497-1.113 1.113-1.113s1.113.497 1.113 1.113ZM354.113 386.673a1.113 1.113 0 1 0 0-2.225 1.113 1.113 0 0 0 0 2.225ZM365.218 385.56c0 .616-.497 1.113-1.113 1.113a1.112 1.112 0 1 1 1.113-1.113ZM374.111 386.673a1.113 1.113 0 1 0 0-2.225 1.113 1.113 0 0 0 0 2.225ZM385.228 385.56c0 .616-.497 1.113-1.113 1.113a1.112 1.112 0 1 1 1.113-1.113ZM395.222 385.56c0 .616-.497 1.113-1.113 1.113a1.112 1.112 0 1 1 1.113-1.113ZM404.113 386.673a1.113 1.113 0 1 0 0-2.225 1.113 1.113 0 0 0 0 2.225ZM415.218 385.56c0 .616-.497 1.113-1.113 1.113a1.112 1.112 0 1 1 1.113-1.113ZM354.113 395.564a1.113 1.113 0 1 0 0-2.225 1.113 1.113 0 0 0 0 2.225ZM365.218 394.451c0 .616-.497 1.113-1.113 1.113a1.111 1.111 0 0 1-1.113-1.113c0-.616.497-1.113 1.113-1.113s1.113.497 1.113 1.113ZM374.111 395.564a1.113 1.113 0 1 0 0-2.225 1.113 1.113 0 0 0 0 2.225ZM385.228 394.451c0 .616-.497 1.113-1.113 1.113a1.111 1.111 0 0 1-1.113-1.113c0-.616.497-1.113 1.113-1.113s1.113.497 1.113 1.113ZM395.222 394.451c0 .616-.497 1.113-1.113 1.113a1.111 1.111 0 0 1-1.113-1.113c0-.616.497-1.113 1.113-1.113s1.113.497 1.113 1.113ZM404.113 395.564a1.113 1.113 0 1 0 0-2.225 1.113 1.113 0 0 0 0 2.225ZM415.218 394.451c0 .616-.497 1.113-1.113 1.113a1.111 1.111 0 0 1-1.113-1.113c0-.616.497-1.113 1.113-1.113s1.113.497 1.113 1.113ZM355.226 403.332a1.112 1.112 0 1 1-2.226 0c0-.616.497-1.113 1.113-1.113s1.113.497 1.113 1.113ZM365.218 403.332a1.112 1.112 0 1 1-2.226 0c0-.616.497-1.113 1.113-1.113s1.113.497 1.113 1.113ZM375.224 403.332a1.112 1.112 0 1 1-2.226 0c0-.616.497-1.113 1.113-1.113s1.113.497 1.113 1.113ZM385.228 403.332a1.112 1.112 0 1 1-2.226 0c0-.616.497-1.113 1.113-1.113s1.113.497 1.113 1.113ZM395.222 403.332a1.112 1.112 0 1 1-2.226 0c0-.616.497-1.113 1.113-1.113s1.113.497 1.113 1.113ZM405.226 403.332a1.112 1.112 0 1 1-2.226 0c0-.616.497-1.113 1.113-1.113s1.113.497 1.113 1.113ZM415.218 403.332a1.112 1.112 0 1 1-2.226 0c0-.616.497-1.113 1.113-1.113s1.113.497 1.113 1.113ZM354.113 413.337a1.113 1.113 0 1 0 0-2.225 1.113 1.113 0 0 0 0 2.225ZM365.218 412.224c0 .616-.497 1.113-1.113 1.113a1.112 1.112 0 1 1 1.113-1.113ZM374.111 413.337a1.113 1.113 0 1 0 0-2.225 1.113 1.113 0 0 0 0 2.225ZM385.228 412.224c0 .616-.497 1.113-1.113 1.113a1.112 1.112 0 1 1 1.113-1.113ZM395.222 412.224c0 .616-.497 1.113-1.113 1.113a1.112 1.112 0 1 1 1.113-1.113ZM404.113 413.337a1.113 1.113 0 1 0 0-2.225 1.113 1.113 0 0 0 0 2.225ZM415.218 412.224c0 .616-.497 1.113-1.113 1.113a1.112 1.112 0 1 1 1.113-1.113ZM355.226 421.115c0 .616-.497 1.113-1.113 1.113a1.111 1.111 0 0 1-1.113-1.113c0-.616.497-1.113 1.113-1.113s1.113.497 1.113 1.113ZM365.218 421.115c0 .616-.497 1.113-1.113 1.113a1.111 1.111 0 0 1-1.113-1.113c0-.616.497-1.113 1.113-1.113s1.113.497 1.113 1.113ZM375.224 421.115c0 .616-.497 1.113-1.113 1.113a1.111 1.111 0 0 1-1.113-1.113c0-.616.497-1.113 1.113-1.113s1.113.497 1.113 1.113ZM385.228 421.115c0 .616-.497 1.113-1.113 1.113a1.111 1.111 0 0 1-1.113-1.113c0-.616.497-1.113 1.113-1.113s1.113.497 1.113 1.113ZM395.222 421.115c0 .616-.497 1.113-1.113 1.113a1.111 1.111 0 0 1-1.113-1.113c0-.616.497-1.113 1.113-1.113s1.113.497 1.113 1.113ZM405.226 421.115c0 .616-.497 1.113-1.113 1.113a1.111 1.111 0 0 1-1.113-1.113c0-.616.497-1.113 1.113-1.113s1.113.497 1.113 1.113ZM415.218 421.115c0 .616-.497 1.113-1.113 1.113a1.111 1.111 0 0 1-1.113-1.113c0-.616.497-1.113 1.113-1.113s1.113.497 1.113 1.113ZM354.113 431.12a1.113 1.113 0 1 0 0-2.225 1.113 1.113 0 0 0 0 2.225ZM365.218 430.007c0 .616-.497 1.113-1.113 1.113a1.111 1.111 0 1 1 0-2.225c.616 0 1.113.497 1.113 1.112ZM374.111 431.12a1.113 1.113 0 1 0 0-2.225 1.113 1.113 0 0 0 0 2.225ZM385.228 430.007c0 .616-.497 1.113-1.113 1.113a1.111 1.111 0 1 1 0-2.225c.616 0 1.113.497 1.113 1.112ZM395.222 430.007c0 .616-.497 1.113-1.113 1.113a1.111 1.111 0 1 1 0-2.225c.616 0 1.113.497 1.113 1.112ZM404.113 431.12a1.113 1.113 0 1 0 0-2.225 1.113 1.113 0 0 0 0 2.225ZM415.218 430.007c0 .616-.497 1.113-1.113 1.113a1.111 1.111 0 1 1 0-2.225c.616 0 1.113.497 1.113 1.112ZM354.113 439.999a1.113 1.113 0 1 0 0-2.225 1.113 1.113 0 0 0 0 2.225ZM365.218 438.886c0 .616-.497 1.113-1.113 1.113a1.112 1.112 0 1 1 1.113-1.113ZM374.111 439.999a1.113 1.113 0 1 0 0-2.225 1.113 1.113 0 0 0 0 2.225ZM385.228 438.886c0 .616-.497 1.113-1.113 1.113a1.112 1.112 0 1 1 1.113-1.113ZM395.222 438.886c0 .616-.497 1.113-1.113 1.113a1.112 1.112 0 1 1 1.113-1.113ZM404.113 439.999a1.113 1.113 0 1 0 0-2.225 1.113 1.113 0 0 0 0 2.225ZM415.218 438.886c0 .616-.497 1.113-1.113 1.113a1.112 1.112 0 1 1 1.113-1.113Z"/></g></g><defs><clipPath id="a"><path fill="#fff" d="M0 0h440v660H0z"/></clipPath><clipPath id="c"><path fill="#fff" d="M81 180H56v38h25z"/></clipPath><clipPath id="f"><path fill="#fff" d="M359 180h25v38h-25z"/></clipPath><clipPath id="j"><path fill="#fff" d="M0 220V0h220v220z"/></clipPath><clipPath id="l"><path fill="#fff" d="M440 220V0H220v220z"/></clipPath><clipPath id="n"><path fill="#fff" d="M0 440v220h220V440z"/></clipPath><clipPath id="p"><path fill="#fff" d="M440 440v220H220V440z"/></clipPath><clipPath id="r"><path fill="#fff" d="M22 340h62v100H22z"/></clipPath><clipPath id="s"><path fill="#fff" d="M99 290h239v200H99z"/></clipPath><clipPath id="t"><path fill="#fff" d="M353 340h62v100h-62z"/></clipPath><linearGradient id="d" x1="80.408" x2="56.408" y1="187.001" y2="187.001" gradientUnits="userSpaceOnUse"><stop stop-color="#00F260"/><stop offset="1" stop-color="#0575E6"/></linearGradient><linearGradient id="e" x1="80" x2="56" y1="211" y2="211" gradientUnits="userSpaceOnUse"><stop stop-color="#00F260"/><stop offset="1" stop-color="#0575E6"/></linearGradient><linearGradient id="g" x1="359.592" x2="383.592" y1="187.001" y2="187.001" gradientUnits="userSpaceOnUse"><stop stop-color="#00F260"/><stop offset="1" stop-color="#0575E6"/></linearGradient><linearGradient id="h" x1="360" x2="384" y1="211" y2="211" gradientUnits="userSpaceOnUse"><stop stop-color="#00F260"/><stop offset="1" stop-color="#0575E6"/></linearGradient><linearGradient id="i" x1="21" x2="419" y1="247" y2="247" gradientUnits="userSpaceOnUse"><stop stop-color="#003865"/><stop offset=".16" stop-color="#2D9EE0"/><stop offset=".418" stop-color="#2F80ED"/><stop offset=".625" stop-color="#2D9EE0"/><stop offset=".87" stop-color="#2D9EE0"/><stop offset="1" stop-color="#003865"/></linearGradient><radialGradient id="b" cx="0" cy="0" r="1" gradientTransform="matrix(440 150.48 -716.182 2094.099 0 282.48)" gradientUnits="userSpaceOnUse"><stop offset=".054" stop-color="#D4E4FF"/><stop offset=".308" stop-color="#fff"/><stop offset=".723" stop-color="#fff"/><stop offset=".923" stop-color="#D4E4FF"/></radialGradient></defs></svg>