<svg xmlns="http://www.w3.org/2000/svg" version="1.1" xmlns:xlink="http://www.w3.org/1999/xlink" xmlns:svgjs="http://svgjs.dev/svgjs" width="256" height="256"><svg xmlns="http://www.w3.org/2000/svg" width="256" height="256" fill="none"><g clip-path="url(#a)"><mask id="SvgjsMask1005" width="157" height="160" x="100" y="96" maskUnits="userSpaceOnUse" style="mask-type:luminance"><path fill="#fff" d="M256 127.995 134.309 96 100 224.005 221.692 256 256 127.995Z"></path></mask><g mask="url(#b)"><path fill="#E07F1D" d="M152.065 151.806c-2.142 11.084-10.628 18.784-18.959 17.198-8.328-1.585-13.345-11.856-11.203-22.943 2.142-11.084 10.629-18.785 18.96-17.199 8.329 1.587 13.346 11.86 11.202 22.944Zm68.415-30.296c-7.411-4.082-17.933.597-23.498 10.449-5.575 9.849-4.082 21.143 3.33 25.225 7.41 4.079 17.935-.595 23.502-10.449 7.245-12.822-1.559-24.25-3.334-25.225Zm9.08 40.527c-8.39-2.075-17.117 3.994-20.177 16.144-3.059 12.149 2.375 19.483 10.772 21.56 8.386 2.074 16.552-1.895 19.616-14.047 3.978-15.814-8.203-23.159-10.211-23.657Zm-50.289-54.215c-7.953-2.091-16.748 4.975-19.643 15.779-2.896 10.803 1.203 21.255 9.156 23.346 7.953 2.091 16.748-4.971 19.643-15.774 2.896-10.804-1.204-21.26-9.156-23.351Zm-18.126 60.275c-6.332 5.278-13.238 10.239-25.572 15.875-12.334 5.636-18.158 10.234-20.421 18.678-2.263 8.443-1.119 23.754 12.822 27.419 13.94 3.666 21.489 2.42 32.519 5.32 11.031 2.901 17.255 9.058 31.193 12.723 13.942 3.665 23.239-7.771 25.502-16.214 2.263-8.444 1.124-13.859-7.463-26.431-5.499-8.063-10.217-14.691-16.24-30.155-2.977-7.646-8.17-9.895-13.838-11.385-5.668-1.491-12.168-1.103-18.502 4.17Z"></path></g><mask id="SvgjsMask1004" width="128" height="136" x="0" y="0" maskUnits="userSpaceOnUse" style="mask-type:luminance"><path fill="#fff" d="M127.368 0H0l.63 136h127.368l-.63-136Z"></path></mask><g mask="url(#c)"><path fill="#E07F1D" d="M32.223 50.755c.864 11.56-5.37 21.416-13.928 22.016-8.556.6-16.194-8.285-17.058-19.848-.864-11.56 5.37-21.418 13.928-22.018 8.557-.599 16.195 8.288 17.058 19.85Zm58.73-47.923C82.629.715 73.602 8.104 70.794 19.334c-2.817 11.231 1.653 22.05 9.978 24.167 8.325 2.116 17.356-5.27 20.165-16.502 3.656-14.617-7.988-23.662-9.982-24.167Zm19.674 37.854c-8.745.13-15.65 8.43-15.397 21.288.252 12.857 7.514 18.718 16.268 18.589 8.742-.13 15.658-6.2 15.41-19.062-.332-16.733-14.187-20.845-16.281-20.815ZM47.061 0c-8.324 0-15.028 9.308-14.974 20.787.053 11.478 6.843 20.782 15.167 20.782s15.03-9.304 14.976-20.782C62.177 9.308 55.385 0 47.061 0Zm-1.627 64.554c-4.776 6.89-10.197 13.617-20.738 22.43-10.542 8.812-15.003 14.895-14.962 23.867.042 8.969 5.242 23.868 19.833 23.868 14.591 0 21.63-3.206 33.175-3.206 11.546 0 19.266 4.487 33.854 4.487 14.592 0 20.621-13.776 20.579-22.747-.041-8.971-2.597-14.048-14.335-24.286-7.52-6.567-13.895-11.915-23.9-25.691-4.947-6.813-10.618-7.689-16.55-7.689-5.932-.001-12.176 2.08-16.956 8.967Z"></path></g></g><defs><clipPath id="SvgjsClipPath1003"><path fill="#fff" d="M0 0h256v256H0z"></path></clipPath></defs></svg><style>@media (prefers-color-scheme: light) { :root { filter: none; } }
@media (prefers-color-scheme: dark) { :root { filter: none; } }
</style></svg>