<svg viewBox="0 0 432 45" fill="none" xmlns="http://www.w3.org/2000/svg">
<rect width="432" height="45" rx="8" fill="white" fill-opacity="0.4"/>
<rect width="432" height="45" rx="8" fill="url(#paint0_linear_2439_5886)" fill-opacity="0.2" style="mix-blend-mode:plus-darker"/>
<rect width="432" height="45" rx="8" fill="url(#paint1_linear_2439_5886)" fill-opacity="0.2" style="mix-blend-mode:plus-lighter"/>
<rect x="0.5" y="0.5" width="431" height="44" rx="7.5" stroke="url(#paint2_linear_2439_5886)" stroke-opacity="0.6"/>
<g clip-path="url(#clip0_2439_5886)">
<path d="M52.1652 18.7413C56.4332 11.0931 41.5968 6.89396 43.1982 17.7849C42.5207 14.1727 35.8615 13.9154 35.4448 18.2885C35.0753 10.7018 19.978 14.4335 26.1952 25.0889C28.7168 29.4112 42.8504 29.9438 53.3681 26.9983C63.3568 24.2013 57.3643 14.2125 52.1688 18.7413H52.1652Z" fill="url(#paint3_linear_2439_5886)"/>
<path style="mix-blend-mode:screen" d="M58.0859 20.7578C58.4373 24.2577 53.4375 23.8736 53.8541 21.3665C54.0824 19.9897 56.2671 19.9064 55.9736 21.5295C55.4012 20.3303 54.028 22.2324 55.7816 22.2034C56.8721 22.1853 57.0352 20.8846 56.3975 20.1817C54.8251 18.4535 52.1984 20.4897 53.6041 22.8773C52.4665 22.323 52.1984 21.0476 52.4339 20.2143C52.7708 19.0296 53.6694 18.3847 54.47 18.3485C55.4918 18.305 57.8685 18.5622 58.0895 20.765L58.0859 20.7578Z" fill="url(#paint4_linear_2439_5886)"/>
<path style="mix-blend-mode:screen" d="M42.1789 18.2495C42.534 21.7493 37.5342 21.3653 37.9508 18.8545C38.1791 17.4777 40.3602 17.398 40.0667 19.0212C39.4979 17.8219 38.1247 19.7277 39.8747 19.6951C40.9652 19.6769 41.1319 18.3799 40.4906 17.6734C38.9182 15.9452 36.2951 17.9813 37.6936 20.3653C36.5596 19.811 36.2878 18.5357 36.5233 17.7024C36.8567 16.5176 37.7588 15.8691 38.5595 15.8329C39.5812 15.7894 41.9579 16.043 42.1753 18.2495H42.1789Z" fill="url(#paint5_linear_2439_5886)"/>
<path style="mix-blend-mode:screen" d="M32.6721 18.6449C33.0743 22.6556 27.3426 22.2172 27.8245 19.3405C28.0853 17.7609 30.5889 17.6667 30.2519 19.5289C29.5961 18.1558 28.0237 20.3369 30.0309 20.3006C31.2809 20.2789 31.4693 18.7934 30.7338 17.9855C28.9331 16.0037 25.926 18.3369 27.531 21.0723C26.2303 20.4383 25.9224 18.9746 26.1905 18.0217C26.5781 16.6667 27.6071 15.924 28.5237 15.8805C29.694 15.8298 32.4185 16.1232 32.6721 18.6485V18.6449Z" fill="url(#paint6_linear_2439_5886)"/>
<path style="mix-blend-mode:screen" d="M51.9066 16.0116C52.4356 21.2976 44.8851 20.718 45.5155 16.9282C45.8597 14.845 49.1567 14.7254 48.7147 17.1782C47.8488 15.3667 45.7764 18.2434 48.4212 18.1963C50.0697 18.1673 50.3161 16.2073 49.3487 15.1421C46.9756 12.5299 43.0084 15.6058 45.1279 19.2108C43.4142 18.3738 43.0048 16.4428 43.3598 15.1856C43.8671 13.3958 45.2257 12.4175 46.4358 12.3668C47.9756 12.298 51.5697 12.6856 51.903 16.0152L51.9066 16.0116Z" fill="url(#paint7_linear_2439_5886)"/>
<path d="M35.4685 15.5248C35.4685 15.5248 33.5809 13.3763 35.617 10.1047C36.8307 8.15548 38.8307 5.85847 37.2401 3.44189C39.7835 5.7534 39.7654 7.74608 38.5807 10.6481C37.5988 13.0575 40.0806 15.3436 40.0806 15.3436L35.4685 15.5284V15.5248Z" fill="url(#paint8_radial_2439_5886)"/>
<path d="M31.2373 17.9218C31.2373 17.9218 28.5272 17.0016 28.654 13.1503C28.7265 10.8569 29.3134 7.86785 26.7266 6.5708C30.0851 7.29903 31.0634 9.03448 31.4945 12.1394C31.8496 14.7118 35.1393 15.4509 35.1393 15.4509L31.2373 17.9182V17.9218Z" fill="url(#paint9_radial_2439_5886)"/>
<path d="M28.7744 22.1112C28.7744 22.1112 25.9665 22.6691 24.1514 19.2707C23.0681 17.2454 22.0826 14.3651 19.1914 14.5353C22.463 13.4883 24.1803 14.4991 26.1042 16.9773C27.6983 19.0279 30.9192 18.0243 30.9192 18.0243L28.7708 22.1148L28.7744 22.1112Z" fill="url(#paint10_radial_2439_5886)"/>
<path d="M28.7349 26.9681C28.7349 26.9681 26.5828 28.8557 23.3149 26.8196C21.362 25.6095 19.0723 23.6059 16.6484 25.2001C18.9599 22.6567 20.9526 22.6748 23.8547 23.8559C26.2604 24.8377 28.5465 22.356 28.5465 22.356L28.7313 26.9681H28.7349Z" fill="url(#paint11_radial_2439_5886)"/>
<path d="M31.1323 31.1988C31.1323 31.1988 30.212 33.9089 26.3607 33.7784C24.0673 33.7024 21.0819 33.119 19.7812 35.7059C20.5095 32.3473 22.2413 31.3691 25.3499 30.938C27.9259 30.5829 28.665 27.2896 28.665 27.2896L31.1323 31.1952V31.1988Z" fill="url(#paint12_radial_2439_5886)"/>
<path d="M31.4769 38.7948C31.8211 38.6209 32.158 38.4543 32.4768 38.284C35.8789 36.4688 35.3209 33.6646 35.3209 33.6646L31.2305 31.5161C31.2305 31.5161 32.2377 34.737 30.1835 36.3311C29.14 37.1427 28.3611 37.918 27.8828 38.784C29.0784 38.7369 30.2813 38.755 31.4769 38.7912V38.7948Z" fill="url(#paint13_radial_2439_5886)"/>
<path d="M37.0661 38.5763C37.0117 38.7104 36.9646 38.8372 36.9139 38.9676C37.9646 39.0002 39.0153 39.0328 40.066 39.0618C42.0405 35.8228 40.1783 33.6997 40.1783 33.6997L35.5625 33.8845C35.5625 33.8845 38.0443 36.1706 37.0661 38.5763Z" fill="url(#paint14_radial_2439_5886)"/>
<path d="M44.1448 37.0839C44.2535 37.8629 44.3948 38.5549 44.6013 39.1672C44.8694 39.1708 45.1375 39.1781 45.4056 39.1817C45.8621 39.1418 46.3222 39.1056 46.7787 39.0621C46.815 39.0585 46.8548 39.0549 46.8947 39.0476C46.8476 38.0477 46.9599 37.0042 46.9889 36.0731C47.1157 32.2218 44.4056 31.3052 44.4056 31.3052L40.5 33.7725C40.5 33.7725 43.7934 34.5116 44.1448 37.0839Z" fill="url(#paint15_radial_2439_5886)"/>
<path d="M46.8714 27.1127C46.8714 27.1127 49.6793 26.5548 51.4944 29.9532C52.5777 31.9785 53.5632 34.8552 56.4544 34.6885C53.1828 35.7356 51.4654 34.7247 49.5416 32.2466C47.9511 30.1959 44.7266 31.2031 44.7266 31.2031L46.875 27.1127H46.8714Z" fill="url(#paint16_radial_2439_5886)"/>
<path d="M46.9141 22.2502C46.9141 22.2502 49.0625 20.3626 52.3378 22.3988C54.287 23.6089 56.5804 25.6124 59.0006 24.0219C56.6927 26.5653 54.7 26.5471 51.7943 25.3624C49.3886 24.3842 47.1025 26.866 47.1025 26.866L46.9177 22.2502H46.9141Z" fill="url(#paint17_radial_2439_5886)"/>
<path d="M44.5156 18.031C44.5156 18.031 45.4359 15.321 49.2872 15.4478C51.5806 15.5239 54.566 16.1108 55.8666 13.5239C55.142 16.8789 53.4066 17.8607 50.298 18.2882C47.722 18.6433 46.9865 21.9367 46.9865 21.9367L44.5193 18.0346L44.5156 18.031Z" fill="url(#paint18_radial_2439_5886)"/>
<path d="M40.3232 15.5642C40.3232 15.5642 39.7652 12.76 43.1636 10.9412C45.1889 9.85791 48.0656 8.87244 47.8953 5.98486C48.9424 9.25286 47.9316 10.9738 45.457 12.8976C43.4064 14.4918 44.41 17.7127 44.41 17.7127L40.3232 15.5642Z" fill="url(#paint19_radial_2439_5886)"/>
<path d="M47.9326 24.2952C47.755 18.7121 43.0886 14.3282 37.5054 14.5057C31.9223 14.6796 27.542 19.3497 27.7159 24.9292C27.8935 30.5123 32.56 34.8962 38.1431 34.7187C43.7226 34.5448 48.1065 29.8747 47.9326 24.2952Z" fill="url(#paint20_radial_2439_5886)"/>
<path style="mix-blend-mode:screen" d="M44.6164 21.0268C44.5222 18.0269 41.3412 15.69 37.508 15.8096C33.6748 15.9291 30.6423 18.458 30.7365 21.4579C30.8271 24.4614 34.0154 26.7947 37.8449 26.6751C41.6781 26.5555 44.7106 24.0266 44.6164 21.0268Z" fill="url(#paint21_linear_2439_5886)"/>
<path d="M23.7912 31.1289C19.929 21.0061 39.2145 18.2453 37.2617 31.5456C38.0914 27.1363 46.1925 25.9226 46.6997 31.263C47.2323 23.5386 62.9274 26.5168 56.1088 37.2084C52.8227 42.364 20.4507 43.4509 16.94 37.6504C13.6358 32.205 19.795 27.3972 23.7876 31.1289H23.7912Z" fill="url(#paint22_linear_2439_5886)"/>
<path style="mix-blend-mode:screen" d="M16.8929 33.8529C16.4618 38.1245 22.5666 37.6607 22.0594 34.5956C21.7804 32.9145 19.1139 32.8131 19.4725 34.7949C20.1718 33.3312 21.8456 35.6536 19.708 35.6173C18.3748 35.5956 18.1755 34.0087 18.9581 33.1464C20.8783 31.0378 24.0847 33.5232 22.371 36.4361C23.7586 35.7586 24.0847 34.2007 23.7985 33.1826C23.3891 31.737 22.2913 30.9472 21.313 30.9037C20.0667 30.853 17.1647 31.161 16.8965 33.8529H16.8929Z" fill="url(#paint23_linear_2439_5886)"/>
<path style="mix-blend-mode:screen" d="M38.5062 32.1155C38.0751 36.3871 44.1799 35.9197 43.6691 32.8546C43.3901 31.1735 40.7271 31.0757 41.0858 33.0575C41.7814 31.5938 43.4553 33.9198 41.3213 33.8799C39.988 33.8582 39.7888 32.2749 40.5713 31.4126C42.4916 29.3004 45.6943 31.7858 43.9843 34.6987C45.3683 34.0212 45.698 32.4633 45.4117 31.4489C45.0023 30.0033 43.9045 29.2098 42.9263 29.17C41.68 29.1156 38.7779 29.4272 38.5098 32.1191L38.5062 32.1155Z" fill="url(#paint24_linear_2439_5886)"/>
<path style="mix-blend-mode:screen" d="M47.8374 32.2661C47.3446 37.1645 54.3444 36.6282 53.7574 33.1175C53.4386 31.19 50.3844 31.0741 50.7938 33.3458C51.5909 31.6683 53.5147 34.3312 51.0655 34.2878C49.5366 34.2624 49.3083 32.4472 50.2068 31.4618C52.4024 29.0416 56.0798 31.8893 54.1161 35.2297C55.703 34.4544 56.0798 32.6682 55.7537 31.5016C55.2827 29.8459 54.0255 28.9365 52.906 28.8894C51.4785 28.8278 48.149 29.1829 47.841 32.2661H47.8374Z" fill="url(#paint25_linear_2439_5886)"/>
<path style="mix-blend-mode:screen" d="M25.0053 28.2384C24.3568 34.6947 33.5811 33.9845 32.8094 29.3543C32.3891 26.8109 28.3603 26.666 28.9001 29.6586C29.9581 27.4486 32.4869 30.9593 29.2552 30.9013C27.2408 30.8687 26.9401 28.4703 28.1248 27.1696C31.0232 23.9777 35.8636 27.7348 33.2804 32.1368C35.3745 31.1151 35.8709 28.7601 35.4361 27.2239C34.8202 25.0392 33.1572 23.8436 31.679 23.7784C29.7986 23.6951 25.4111 24.1661 25.0017 28.2348L25.0053 28.2384Z" fill="url(#paint26_linear_2439_5886)"/>
</g>
<path d="M98.0447 20.5795C97.95 20.2727 97.8194 19.9981 97.6527 19.7557C97.4898 19.5095 97.2929 19.2992 97.0618 19.125C96.8345 18.9508 96.5732 18.8201 96.2777 18.733C95.9822 18.642 95.6603 18.5966 95.3118 18.5966C94.6868 18.5966 94.13 18.7538 93.6413 19.0682C93.1527 19.3826 92.7682 19.8447 92.4879 20.4545C92.2114 21.0606 92.0732 21.7992 92.0732 22.6705C92.0732 23.5492 92.2114 24.2936 92.4879 24.9034C92.7644 25.5133 93.1489 25.9773 93.6413 26.2955C94.1338 26.6098 94.7057 26.767 95.3572 26.767C95.9482 26.767 96.4595 26.6534 96.8913 26.4261C97.3269 26.1989 97.6622 25.8769 97.897 25.4602C98.1319 25.0398 98.2493 24.5473 98.2493 23.983L98.7266 24.0568H95.5675V22.4091H100.289V23.8068C100.289 24.803 100.077 25.6648 99.6527 26.392C99.2285 27.1193 98.6451 27.6799 97.9027 28.0739C97.1603 28.464 96.308 28.6591 95.3459 28.6591C94.2739 28.6591 93.3326 28.4186 92.522 27.9375C91.7152 27.4527 91.0845 26.7652 90.63 25.875C90.1792 24.9811 89.9538 23.9205 89.9538 22.6932C89.9538 21.7538 90.0864 20.9148 90.3516 20.1761C90.6205 19.4375 90.9955 18.8106 91.4766 18.2955C91.9576 17.7765 92.522 17.3826 93.1697 17.1136C93.8175 16.8409 94.522 16.7045 95.2834 16.7045C95.9273 16.7045 96.5277 16.7992 97.0845 16.9886C97.6413 17.1742 98.1357 17.4394 98.5675 17.7841C99.0031 18.1288 99.361 18.5379 99.6413 19.0114C99.9216 19.4848 100.105 20.0076 100.192 20.5795H98.0447ZM102.327 28.5V16.8636H109.896V18.6307H104.435V21.7898H109.504V23.5568H104.435V26.733H109.941V28.5H102.327ZM111.535 18.6307V16.8636H120.819V18.6307H117.222V28.5H115.131V18.6307H111.535ZM136.538 20.7898H134.413C134.352 20.4413 134.24 20.1326 134.077 19.8636C133.915 19.5909 133.712 19.3598 133.469 19.1705C133.227 18.9811 132.951 18.839 132.64 18.7443C132.333 18.6458 132.002 18.5966 131.646 18.5966C131.013 18.5966 130.452 18.7557 129.964 19.0739C129.475 19.3883 129.093 19.8504 128.816 20.4602C128.54 21.0663 128.401 21.8068 128.401 22.6818C128.401 23.572 128.54 24.322 128.816 24.9318C129.096 25.5379 129.479 25.9962 129.964 26.3068C130.452 26.6136 131.011 26.767 131.64 26.767C131.988 26.767 132.314 26.7216 132.617 26.6307C132.924 26.536 133.199 26.3977 133.441 26.2159C133.687 26.0341 133.894 25.8106 134.06 25.5455C134.231 25.2803 134.348 24.9773 134.413 24.6364L136.538 24.6477C136.458 25.2008 136.286 25.7197 136.021 26.2045C135.759 26.6894 135.416 27.1174 134.992 27.4886C134.568 27.8561 134.072 28.1439 133.504 28.3523C132.935 28.5568 132.305 28.6591 131.612 28.6591C130.589 28.6591 129.676 28.4223 128.873 27.9489C128.07 27.4754 127.437 26.7917 126.975 25.8977C126.513 25.0038 126.282 23.9318 126.282 22.6818C126.282 21.428 126.515 20.3561 126.981 19.4659C127.447 18.572 128.081 17.8883 128.884 17.4148C129.687 16.9413 130.596 16.7045 131.612 16.7045C132.259 16.7045 132.862 16.7955 133.418 16.9773C133.975 17.1591 134.471 17.4261 134.907 17.7784C135.343 18.1269 135.701 18.5549 135.981 19.0625C136.265 19.5663 136.451 20.142 136.538 20.7898ZM148.866 22.6818C148.866 23.9356 148.631 25.0095 148.161 25.9034C147.695 26.7936 147.059 27.4754 146.252 27.9489C145.449 28.4223 144.538 28.6591 143.519 28.6591C142.5 28.6591 141.587 28.4223 140.781 27.9489C139.978 27.4716 139.341 26.7879 138.871 25.8977C138.406 25.0038 138.173 23.9318 138.173 22.6818C138.173 21.428 138.406 20.3561 138.871 19.4659C139.341 18.572 139.978 17.8883 140.781 17.4148C141.587 16.9413 142.5 16.7045 143.519 16.7045C144.538 16.7045 145.449 16.9413 146.252 17.4148C147.059 17.8883 147.695 18.572 148.161 19.4659C148.631 20.3561 148.866 21.428 148.866 22.6818ZM146.746 22.6818C146.746 21.7992 146.608 21.0549 146.332 20.4489C146.059 19.839 145.68 19.3788 145.195 19.0682C144.71 18.7538 144.152 18.5966 143.519 18.5966C142.887 18.5966 142.328 18.7538 141.843 19.0682C141.358 19.3788 140.978 19.839 140.701 20.4489C140.428 21.0549 140.292 21.7992 140.292 22.6818C140.292 23.5644 140.428 24.3106 140.701 24.9205C140.978 25.5265 141.358 25.9867 141.843 26.3011C142.328 26.6117 142.887 26.767 143.519 26.767C144.152 26.767 144.71 26.6117 145.195 26.3011C145.68 25.9867 146.059 25.5265 146.332 24.9205C146.608 24.3106 146.746 23.5644 146.746 22.6818ZM161.256 22.6818C161.256 23.9356 161.022 25.0095 160.552 25.9034C160.086 26.7936 159.45 27.4754 158.643 27.9489C157.84 28.4223 156.929 28.6591 155.91 28.6591C154.891 28.6591 153.978 28.4223 153.171 27.9489C152.368 27.4716 151.732 26.7879 151.262 25.8977C150.796 25.0038 150.563 23.9318 150.563 22.6818C150.563 21.428 150.796 20.3561 151.262 19.4659C151.732 18.572 152.368 17.8883 153.171 17.4148C153.978 16.9413 154.891 16.7045 155.91 16.7045C156.929 16.7045 157.84 16.9413 158.643 17.4148C159.45 17.8883 160.086 18.572 160.552 19.4659C161.022 20.3561 161.256 21.428 161.256 22.6818ZM159.137 22.6818C159.137 21.7992 158.999 21.0549 158.722 20.4489C158.45 19.839 158.071 19.3788 157.586 19.0682C157.101 18.7538 156.542 18.5966 155.91 18.5966C155.277 18.5966 154.719 18.7538 154.234 19.0682C153.749 19.3788 153.368 19.839 153.092 20.4489C152.819 21.0549 152.683 21.7992 152.683 22.6818C152.683 23.5644 152.819 24.3106 153.092 24.9205C153.368 25.5265 153.749 25.9867 154.234 26.3011C154.719 26.6117 155.277 26.767 155.91 26.767C156.542 26.767 157.101 26.6117 157.586 26.3011C158.071 25.9867 158.45 25.5265 158.722 24.9205C158.999 24.3106 159.137 23.5644 159.137 22.6818ZM163.249 28.5V16.8636H165.357V26.733H170.482V28.5H163.249ZM174.42 16.8636V28.5H172.312V16.8636H174.42ZM186.265 16.8636V28.5H184.39L178.907 20.5739H178.81V28.5H176.702V16.8636H178.589L184.066 24.7955H184.168V16.8636H186.265ZM196.357 20.5795C196.263 20.2727 196.132 19.9981 195.965 19.7557C195.802 19.5095 195.605 19.2992 195.374 19.125C195.147 18.9508 194.886 18.8201 194.59 18.733C194.295 18.642 193.973 18.5966 193.624 18.5966C192.999 18.5966 192.442 18.7538 191.954 19.0682C191.465 19.3826 191.081 19.8447 190.8 20.4545C190.524 21.0606 190.386 21.7992 190.386 22.6705C190.386 23.5492 190.524 24.2936 190.8 24.9034C191.077 25.5133 191.461 25.9773 191.954 26.2955C192.446 26.6098 193.018 26.767 193.67 26.767C194.261 26.767 194.772 26.6534 195.204 26.4261C195.639 26.1989 195.975 25.8769 196.21 25.4602C196.444 25.0398 196.562 24.5473 196.562 23.983L197.039 24.0568H193.88V22.4091H198.602V23.8068C198.602 24.803 198.389 25.6648 197.965 26.392C197.541 27.1193 196.958 27.6799 196.215 28.0739C195.473 28.464 194.621 28.6591 193.658 28.6591C192.586 28.6591 191.645 28.4186 190.835 27.9375C190.028 27.4527 189.397 26.7652 188.942 25.875C188.492 24.9811 188.266 23.9205 188.266 22.6932C188.266 21.7538 188.399 20.9148 188.664 20.1761C188.933 19.4375 189.308 18.8106 189.789 18.2955C190.27 17.7765 190.835 17.3826 191.482 17.1136C192.13 16.8409 192.835 16.7045 193.596 16.7045C194.24 16.7045 194.84 16.7992 195.397 16.9886C195.954 17.1742 196.448 17.4394 196.88 17.7841C197.316 18.1288 197.674 18.5379 197.954 19.0114C198.234 19.4848 198.418 20.0076 198.505 20.5795H196.357ZM204.609 28.5V16.8636H209.063C209.904 16.8636 210.603 16.9962 211.16 17.2614C211.72 17.5227 212.139 17.8807 212.415 18.3352C212.696 18.7898 212.836 19.3049 212.836 19.8807C212.836 20.3542 212.745 20.7595 212.563 21.0966C212.381 21.4299 212.137 21.7008 211.83 21.9091C211.523 22.1174 211.181 22.267 210.802 22.358V22.4716C211.215 22.4943 211.611 22.6212 211.989 22.8523C212.372 23.0795 212.684 23.4015 212.927 23.8182C213.169 24.2348 213.29 24.7386 213.29 25.3295C213.29 25.9318 213.145 26.4735 212.853 26.9545C212.561 27.4318 212.122 27.8087 211.535 28.0852C210.948 28.3617 210.209 28.5 209.319 28.5H204.609ZM206.717 26.7386H208.984C209.749 26.7386 210.3 26.5928 210.637 26.3011C210.978 26.0057 211.148 25.6269 211.148 25.1648C211.148 24.8201 211.063 24.5095 210.893 24.233C210.722 23.9527 210.48 23.733 210.165 23.5739C209.851 23.411 209.476 23.3295 209.04 23.3295H206.717V26.7386ZM206.717 21.8125H208.802C209.165 21.8125 209.493 21.7462 209.785 21.6136C210.076 21.4773 210.306 21.286 210.472 21.0398C210.643 20.7898 210.728 20.4943 210.728 20.1534C210.728 19.7027 210.569 19.3314 210.251 19.0398C209.936 18.7481 209.469 18.6023 208.847 18.6023H206.717V21.8125ZM215.124 28.5V16.8636H222.692V18.6307H217.232V21.7898H222.3V23.5568H217.232V26.733H222.738V28.5H215.124ZM228.786 28.5H224.843V16.8636H228.866C230.021 16.8636 231.013 17.0966 231.843 17.5625C232.676 18.0246 233.317 18.6894 233.763 19.5568C234.21 20.4242 234.434 21.4621 234.434 22.6705C234.434 23.8826 234.209 24.9242 233.758 25.7955C233.311 26.6667 232.665 27.3352 231.82 27.8011C230.979 28.267 229.968 28.5 228.786 28.5ZM226.951 26.6761H228.684C229.495 26.6761 230.171 26.5284 230.712 26.233C231.254 25.9337 231.661 25.4886 231.934 24.8977C232.207 24.303 232.343 23.5606 232.343 22.6705C232.343 21.7803 232.207 21.0417 231.934 20.4545C231.661 19.8636 231.258 19.4223 230.724 19.1307C230.193 18.8352 229.534 18.6875 228.746 18.6875H226.951V26.6761ZM242.854 28.5L239.57 16.8636H241.837L243.934 25.4148H244.042L246.281 16.8636H248.343L250.587 25.4205H250.69L252.786 16.8636H255.053L251.769 28.5H249.69L247.36 20.3352H247.269L244.934 28.5H242.854ZM258.623 16.8636V28.5H256.515V16.8636H258.623ZM260.394 18.6307V16.8636H269.678V18.6307H266.082V28.5H263.991V18.6307H260.394ZM271.468 28.5V16.8636H273.576V21.7898H278.968V16.8636H281.082V28.5H278.968V23.5568H273.576V28.5H271.468ZM291.406 28.6591C290.587 28.6591 289.86 28.5189 289.224 28.2386C288.591 27.9583 288.091 27.5682 287.724 27.0682C287.356 26.5682 287.161 25.9905 287.138 25.3352H289.275C289.294 25.6496 289.398 25.9242 289.587 26.1591C289.777 26.3902 290.029 26.5701 290.343 26.6989C290.657 26.8277 291.01 26.892 291.4 26.892C291.817 26.892 292.186 26.8201 292.508 26.6761C292.83 26.5284 293.082 26.3239 293.263 26.0625C293.445 25.8011 293.534 25.5 293.531 25.1591C293.534 24.8068 293.443 24.4962 293.258 24.2273C293.072 23.9583 292.803 23.7481 292.451 23.5966C292.103 23.4451 291.682 23.3693 291.19 23.3693H290.161V21.7443H291.19C291.595 21.7443 291.949 21.6742 292.252 21.5341C292.559 21.3939 292.799 21.197 292.974 20.9432C293.148 20.6856 293.233 20.3883 293.229 20.0511C293.233 19.7216 293.159 19.4356 293.008 19.1932C292.86 18.947 292.65 18.7557 292.377 18.6193C292.108 18.483 291.792 18.4148 291.428 18.4148C291.072 18.4148 290.743 18.4792 290.44 18.608C290.137 18.7367 289.892 18.9205 289.707 19.1591C289.521 19.3939 289.423 19.6742 289.411 20H287.383C287.398 19.3485 287.585 18.7765 287.945 18.2841C288.309 17.7879 288.794 17.4015 289.4 17.125C290.006 16.8447 290.686 16.7045 291.44 16.7045C292.216 16.7045 292.89 16.8504 293.462 17.142C294.038 17.4299 294.483 17.8182 294.798 18.3068C295.112 18.7955 295.269 19.3352 295.269 19.9261C295.273 20.5814 295.08 21.1307 294.69 21.5739C294.303 22.017 293.796 22.3068 293.167 22.4432V22.5341C293.985 22.6477 294.612 22.9508 295.048 23.4432C295.487 23.9318 295.705 24.5398 295.701 25.267C295.701 25.9186 295.515 26.5019 295.144 27.017C294.777 27.5284 294.269 27.9299 293.621 28.2216C292.978 28.5133 292.239 28.6591 291.406 28.6591ZM301.952 28.7216C301.017 28.7216 300.214 28.4848 299.543 28.0114C298.877 27.5341 298.363 26.8466 298.004 25.9489C297.647 25.0473 297.469 23.9621 297.469 22.6932C297.473 21.4242 297.653 20.3447 298.009 19.4545C298.369 18.5606 298.882 17.8788 299.549 17.4091C300.219 16.9394 301.021 16.7045 301.952 16.7045C302.884 16.7045 303.685 16.9394 304.356 17.4091C305.026 17.8788 305.54 18.5606 305.896 19.4545C306.255 20.3485 306.435 21.428 306.435 22.6932C306.435 23.9659 306.255 25.053 305.896 25.9545C305.54 26.8523 305.026 27.5379 304.356 28.0114C303.689 28.4848 302.888 28.7216 301.952 28.7216ZM301.952 26.9432C302.68 26.9432 303.254 26.5852 303.674 25.8693C304.098 25.1496 304.31 24.0909 304.31 22.6932C304.31 21.7689 304.214 20.9924 304.021 20.3636C303.827 19.7348 303.555 19.2614 303.202 18.9432C302.85 18.6212 302.433 18.4602 301.952 18.4602C301.229 18.4602 300.657 18.8201 300.237 19.5398C299.816 20.2557 299.604 21.3068 299.6 22.6932C299.596 23.6212 299.689 24.4015 299.879 25.0341C300.072 25.6667 300.344 26.1439 300.697 26.4659C301.049 26.7841 301.468 26.9432 301.952 26.9432ZM314.545 26.3182V25.7045C314.545 25.2538 314.639 24.839 314.829 24.4602C315.022 24.0814 315.302 23.7765 315.67 23.5455C316.037 23.3144 316.482 23.1989 317.005 23.1989C317.543 23.1989 317.994 23.3144 318.357 23.5455C318.721 23.7727 318.996 24.0758 319.181 24.4545C319.371 24.8333 319.465 25.25 319.465 25.7045V26.3182C319.465 26.7689 319.371 27.1837 319.181 27.5625C318.992 27.9413 318.713 28.2462 318.346 28.4773C317.982 28.7083 317.535 28.8239 317.005 28.8239C316.475 28.8239 316.026 28.7083 315.658 28.4773C315.291 28.2462 315.013 27.9413 314.823 27.5625C314.638 27.1837 314.545 26.7689 314.545 26.3182ZM316.028 25.7045V26.3182C316.028 26.6174 316.1 26.892 316.244 27.142C316.388 27.392 316.641 27.517 317.005 27.517C317.372 27.517 317.624 27.3939 317.761 27.1477C317.901 26.8977 317.971 26.6212 317.971 26.3182V25.7045C317.971 25.4015 317.905 25.125 317.772 24.875C317.639 24.6212 317.384 24.4943 317.005 24.4943C316.649 24.4943 316.397 24.6212 316.249 24.875C316.102 25.125 316.028 25.4015 316.028 25.7045ZM308.63 19.6591V19.0455C308.63 18.5909 308.727 18.1742 308.92 17.7955C309.113 17.4167 309.393 17.1136 309.761 16.8864C310.128 16.6553 310.573 16.5398 311.096 16.5398C311.63 16.5398 312.079 16.6553 312.442 16.8864C312.81 17.1136 313.086 17.4167 313.272 17.7955C313.458 18.1742 313.55 18.5909 313.55 19.0455V19.6591C313.55 20.1136 313.456 20.5303 313.266 20.9091C313.081 21.2841 312.804 21.5852 312.437 21.8125C312.069 22.0398 311.622 22.1534 311.096 22.1534C310.562 22.1534 310.111 22.0398 309.744 21.8125C309.38 21.5852 309.103 21.2822 308.914 20.9034C308.725 20.5246 308.63 20.1098 308.63 19.6591ZM310.124 19.0455V19.6591C310.124 19.9621 310.194 20.2386 310.335 20.4886C310.478 20.7348 310.732 20.858 311.096 20.858C311.46 20.858 311.71 20.7348 311.846 20.4886C311.986 20.2386 312.056 19.9621 312.056 19.6591V19.0455C312.056 18.7424 311.99 18.4659 311.857 18.2159C311.725 17.9621 311.471 17.8352 311.096 17.8352C310.736 17.8352 310.484 17.9621 310.34 18.2159C310.196 18.4697 310.124 18.7462 310.124 19.0455ZM309.278 28.5L317.278 16.8636H318.698L310.698 28.5H309.278ZM336.303 22.6818C336.303 23.9356 336.068 25.0095 335.599 25.9034C335.133 26.7936 334.496 27.4754 333.69 27.9489C332.887 28.4223 331.976 28.6591 330.957 28.6591C329.938 28.6591 329.025 28.4223 328.218 27.9489C327.415 27.4716 326.779 26.7879 326.309 25.8977C325.843 25.0038 325.61 23.9318 325.61 22.6818C325.61 21.428 325.843 20.3561 326.309 19.4659C326.779 18.572 327.415 17.8883 328.218 17.4148C329.025 16.9413 329.938 16.7045 330.957 16.7045C331.976 16.7045 332.887 16.9413 333.69 17.4148C334.496 17.8883 335.133 18.572 335.599 19.4659C336.068 20.3561 336.303 21.428 336.303 22.6818ZM334.184 22.6818C334.184 21.7992 334.046 21.0549 333.769 20.4489C333.496 19.839 333.118 19.3788 332.633 19.0682C332.148 18.7538 331.589 18.5966 330.957 18.5966C330.324 18.5966 329.765 18.7538 329.281 19.0682C328.796 19.3788 328.415 19.839 328.138 20.4489C327.866 21.0549 327.729 21.7992 327.729 22.6818C327.729 23.5644 327.866 24.3106 328.138 24.9205C328.415 25.5265 328.796 25.9867 329.281 26.3011C329.765 26.6117 330.324 26.767 330.957 26.767C331.589 26.767 332.148 26.6117 332.633 26.3011C333.118 25.9867 333.496 25.5265 333.769 24.9205C334.046 24.3106 334.184 23.5644 334.184 22.6818ZM338.296 28.5V16.8636H345.751V18.6307H340.404V21.7898H345.239V23.5568H340.404V28.5H338.296ZM347.671 28.5V16.8636H355.126V18.6307H349.779V21.7898H354.614V23.5568H349.779V28.5H347.671Z" fill="white"/>
<g clip-path="url(#clip1_2439_5886)">
<path d="M401.255 38.4578C400.645 38.4484 400.148 37.9422 400.148 37.3328V35.3453L398.686 36.8078C398.47 37.0234 398.189 37.1359 397.889 37.1359C397.589 37.1359 397.298 37.0141 397.092 36.8078C396.651 36.3672 396.651 35.6453 397.092 35.2047L400.158 32.1391V30.1703L395.958 33.6203C395.751 33.7891 395.498 33.8734 395.245 33.8734C395.067 33.8734 394.88 33.8266 394.72 33.7422C394.336 33.4984 394.139 33.0484 394.214 32.6078L395.105 27.2453L393.408 28.2297L392.283 32.4203C392.151 32.9172 391.701 33.2547 391.195 33.2547C391.092 33.2547 390.998 33.2453 390.905 33.2172C390.305 33.0578 389.939 32.4297 390.108 31.8297L390.642 29.8234L388.917 30.8172C388.748 30.9203 388.551 30.9672 388.355 30.9672C387.961 30.9672 387.595 30.7609 387.389 30.4234C387.098 29.8891 387.286 29.2047 387.811 28.8953L389.536 27.9016L387.53 27.3672C386.93 27.2078 386.564 26.5797 386.733 25.9797C386.864 25.4828 387.314 25.1453 387.82 25.1453C387.923 25.1453 388.017 25.1547 388.111 25.1828L392.301 26.3078L393.998 25.3234L388.908 23.4109C388.486 23.2516 388.195 22.8578 388.176 22.3984C388.195 21.9391 388.486 21.5453 388.908 21.3859L393.998 19.4734L392.301 18.4891L388.111 19.6141C388.017 19.6422 387.914 19.6516 387.82 19.6516C387.314 19.6516 386.864 19.3047 386.733 18.8172C386.573 18.2172 386.93 17.5891 387.53 17.4297L389.536 16.8953L387.811 15.9016C387.286 15.6016 387.089 14.9172 387.389 14.3828C387.595 14.0453 387.961 13.8391 388.355 13.8391C388.551 13.8391 388.748 13.8953 388.917 13.9891L390.642 14.9828L390.108 12.9766C389.948 12.3766 390.305 11.7484 390.905 11.5891C390.998 11.5609 391.101 11.5516 391.195 11.5516C391.701 11.5516 392.151 11.8984 392.283 12.3859L393.408 16.5766L395.105 17.5609L394.214 12.1984C394.139 11.7484 394.336 11.3078 394.72 11.0641C394.889 10.9797 395.067 10.9328 395.245 10.9328C395.508 10.9328 395.761 11.0266 395.958 11.1859L400.158 14.6359V12.6766L397.092 9.61094C396.876 9.39531 396.764 9.11406 396.764 8.81406C396.764 8.51406 396.886 8.22344 397.092 8.01719C397.308 7.80156 397.589 7.68906 397.889 7.68906C398.189 7.68906 398.48 7.81094 398.686 8.01719L400.148 9.47969V7.49219C400.148 6.88281 400.645 6.37656 401.255 6.36719C401.864 6.37656 402.361 6.88281 402.361 7.49219V9.47969L403.823 8.01719C404.039 7.80156 404.32 7.68906 404.62 7.68906C404.92 7.68906 405.211 7.81094 405.417 8.01719C405.633 8.23281 405.745 8.51406 405.745 8.81406C405.745 9.11406 405.623 9.40469 405.417 9.61094L402.351 12.6766V14.6359L406.551 11.1859C406.758 11.0172 407.011 10.9328 407.264 10.9328C407.442 10.9328 407.63 10.9797 407.789 11.0641C408.173 11.3078 408.38 11.7578 408.305 12.2078L407.414 17.5703L409.111 16.5859L410.236 12.3953C410.367 11.8984 410.817 11.5609 411.323 11.5609C411.426 11.5609 411.52 11.5703 411.614 11.5984C412.214 11.7578 412.58 12.3859 412.411 12.9859L411.876 14.9922L413.601 13.9984C413.77 13.8953 413.967 13.8484 414.164 13.8484C414.558 13.8484 414.923 14.0547 415.13 14.3922C415.42 14.9266 415.233 15.6109 414.708 15.9203L412.983 16.9141L414.989 17.4484C415.589 17.6078 415.955 18.2359 415.786 18.8359C415.655 19.3328 415.205 19.6703 414.698 19.6703C414.595 19.6703 414.501 19.6609 414.408 19.6328L410.217 18.5078L408.52 19.4922L413.611 21.4047C414.033 21.5641 414.323 21.9578 414.342 22.4172C414.323 22.8766 414.033 23.2703 413.611 23.4297L408.52 25.3422L410.217 26.3266L414.408 25.2016C414.501 25.1734 414.605 25.1641 414.698 25.1641C415.205 25.1641 415.655 25.5109 415.786 25.9984C415.945 26.5984 415.589 27.2266 414.989 27.3859L412.983 27.9203L414.708 28.9141C415.233 29.2141 415.43 29.8984 415.13 30.4328C414.923 30.7703 414.558 30.9766 414.164 30.9766C413.967 30.9766 413.77 30.9203 413.601 30.8266L411.876 29.8328L412.411 31.8391C412.57 32.4391 412.214 33.0672 411.614 33.2266C411.52 33.2547 411.417 33.2641 411.323 33.2641C410.817 33.2641 410.367 32.9172 410.236 32.4297L409.111 28.2391L407.414 27.2547L408.305 32.6172C408.38 33.0672 408.183 33.5078 407.798 33.7516C407.63 33.8359 407.451 33.8828 407.273 33.8828C407.011 33.8828 406.758 33.7891 406.561 33.6297L402.361 30.1797V32.1484L405.426 35.2141C405.867 35.6547 405.867 36.3766 405.426 36.8172C405.211 37.0328 404.93 37.1453 404.63 37.1453C404.33 37.1453 404.039 37.0234 403.833 36.8172L402.37 35.3547V37.3422C402.37 37.9516 401.873 38.4578 401.264 38.4672L401.255 38.4578ZM396.942 29.8891L400.148 27.2547V24.3297L397.617 25.7922L396.942 29.8891ZM405.576 29.8891L404.901 25.7922L402.37 24.3297V27.2547L405.576 29.8891ZM406.008 23.8703L409.898 22.4078L406.008 20.9453L403.476 22.4078L406.008 23.8703ZM396.511 23.8703L399.042 22.4078L396.511 20.9453L392.62 22.4078L396.511 23.8703ZM402.361 20.4859L404.892 19.0234L405.567 14.9266L402.361 17.5609V20.4859ZM400.148 20.4859V17.5609L396.942 14.9266L397.617 19.0234L400.148 20.4859Z" fill="white"/>
<path d="M401.235 38.7117C400.626 38.7023 400.129 38.1961 400.129 37.5867V35.5992L398.666 37.0617C398.451 37.2773 398.169 37.3898 397.869 37.3898C397.569 37.3898 397.279 37.268 397.072 37.0617C396.632 36.6211 396.632 35.8992 397.072 35.4586L400.138 32.393V30.4336L395.938 33.8836C395.732 34.0523 395.479 34.1367 395.226 34.1367C395.047 34.1367 394.86 34.0898 394.701 34.0055C394.316 33.7617 394.119 33.3117 394.194 32.8711L395.085 27.5086L393.388 28.493L392.263 32.6836C392.132 33.1805 391.682 33.518 391.176 33.518C391.072 33.518 390.979 33.5086 390.885 33.4805C390.285 33.3211 389.919 32.693 390.088 32.093L390.622 30.0867L388.897 31.0805C388.729 31.1836 388.532 31.2305 388.335 31.2305C387.941 31.2305 387.576 31.0242 387.369 30.6867C387.079 30.1523 387.266 29.468 387.791 29.1586L389.516 28.1648L387.51 27.6305C386.91 27.4711 386.544 26.843 386.713 26.243C386.844 25.7461 387.294 25.4086 387.801 25.4086C387.904 25.4086 387.997 25.418 388.091 25.4461L392.282 26.5711L393.979 25.5867L388.888 23.6742C388.466 23.5148 388.176 23.1211 388.157 22.6617C388.176 22.2023 388.466 21.8086 388.888 21.6492L393.979 19.7367L392.282 18.7523L388.091 19.8773C387.997 19.9055 387.894 19.9148 387.801 19.9148C387.294 19.9148 386.844 19.568 386.713 19.0805C386.554 18.4805 386.91 17.8523 387.51 17.693L389.516 17.1586L387.791 16.1648C387.266 15.8648 387.069 15.1805 387.369 14.6461C387.576 14.3086 387.941 14.1023 388.335 14.1023C388.532 14.1023 388.729 14.1586 388.897 14.2523L390.622 15.2461L390.088 13.2398C389.929 12.6398 390.285 12.0117 390.885 11.8523C390.979 11.8242 391.082 11.8148 391.176 11.8148C391.682 11.8148 392.132 12.1617 392.263 12.6492L393.388 16.8398L395.085 17.8242L394.194 12.4617C394.119 12.0117 394.316 11.5711 394.701 11.3273C394.869 11.243 395.047 11.1961 395.226 11.1961C395.488 11.1961 395.741 11.2898 395.938 11.4492L400.138 14.8992V12.9305L397.072 9.86484C396.857 9.64922 396.744 9.36797 396.744 9.06797C396.744 8.76797 396.866 8.47734 397.072 8.27109C397.288 8.05547 397.569 7.94297 397.869 7.94297C398.169 7.94297 398.46 8.06484 398.666 8.27109L400.129 9.73359V7.74609C400.129 7.13672 400.626 6.63047 401.235 6.62109C401.844 6.63047 402.341 7.13672 402.341 7.74609V9.73359L403.804 8.27109C404.019 8.05547 404.301 7.94297 404.601 7.94297C404.901 7.94297 405.191 8.06484 405.397 8.27109C405.613 8.48672 405.726 8.76797 405.726 9.06797C405.726 9.36797 405.604 9.65859 405.397 9.86484L402.332 12.9305V14.8992L406.532 11.4492C406.738 11.2805 406.991 11.1961 407.244 11.1961C407.422 11.1961 407.61 11.243 407.769 11.3273C408.154 11.5711 408.36 12.0211 408.285 12.4711L407.394 17.8336L409.091 16.8492L410.216 12.6586C410.347 12.1617 410.797 11.8242 411.304 11.8242C411.407 11.8242 411.501 11.8336 411.594 11.8617C412.194 12.0211 412.56 12.6492 412.391 13.2492L411.857 15.2555L413.582 14.2617C413.751 14.1586 413.947 14.1117 414.144 14.1117C414.538 14.1117 414.904 14.318 415.11 14.6555C415.401 15.1898 415.213 15.8742 414.688 16.1836L412.963 17.1773L414.969 17.7117C415.569 17.8711 415.935 18.4992 415.766 19.0992C415.635 19.5961 415.185 19.9336 414.679 19.9336C414.576 19.9336 414.482 19.9242 414.388 19.8961L410.197 18.7711L408.501 19.7555L413.591 21.668C414.013 21.8273 414.304 22.2211 414.322 22.6805C414.304 23.1398 414.013 23.5336 413.591 23.693L408.501 25.6055L410.197 26.5898L414.388 25.4648C414.482 25.4367 414.585 25.4273 414.679 25.4273C415.185 25.4273 415.635 25.7742 415.766 26.2617C415.926 26.8617 415.569 27.4898 414.969 27.6492L412.963 28.1836L414.688 29.1773C415.213 29.4773 415.41 30.1617 415.11 30.6961C414.904 31.0336 414.538 31.2398 414.144 31.2398C413.947 31.2398 413.751 31.1836 413.582 31.0898L411.857 30.0961L412.391 32.1023C412.551 32.7023 412.194 33.3305 411.594 33.4898C411.501 33.518 411.397 33.5273 411.304 33.5273C410.797 33.5273 410.347 33.1805 410.216 32.693L409.091 28.5023L407.394 27.518L408.285 32.8805C408.36 33.3305 408.163 33.7711 407.779 34.0148C407.61 34.0992 407.432 34.1461 407.254 34.1461C406.991 34.1461 406.738 34.0523 406.541 33.893L402.341 30.443V32.4023L405.407 35.468C405.847 35.9086 405.847 36.6305 405.407 37.0711C405.191 37.2867 404.91 37.3992 404.61 37.3992C404.31 37.3992 404.019 37.2773 403.813 37.0711L402.351 35.6086V37.5961C402.351 38.2055 401.854 38.7117 401.244 38.7211L401.235 38.7117ZM396.922 30.143L400.129 27.5086V24.5836L397.597 26.0461L396.922 30.143ZM405.557 30.143L404.882 26.0461L402.351 24.5836V27.5086L405.557 30.143ZM405.988 24.1242L409.879 22.6617L405.988 21.1992L403.457 22.6617L405.988 24.1242ZM396.491 24.1242L399.022 22.6617L396.491 21.1992L392.601 22.6617L396.491 24.1242ZM402.341 20.7398L404.872 19.2773L405.547 15.1805L402.341 17.8148V20.7398ZM400.129 20.7398V17.8148L396.922 15.1805L397.597 19.2773L400.129 20.7398Z" fill="url(#paint27_linear_2439_5886)"/>
</g>
<defs>
<linearGradient id="paint0_linear_2439_5886" x1="216" y1="-4.5627e-07" x2="214.168" y2="44.9253" gradientUnits="userSpaceOnUse">
<stop stop-color="white"/>
<stop offset="1" stop-color="#121212"/>
</linearGradient>
<linearGradient id="paint1_linear_2439_5886" x1="18.3114" y1="1.82556" x2="22.164" y2="58.2376" gradientUnits="userSpaceOnUse">
<stop offset="0.18" stop-color="white"/>
<stop offset="1" stop-opacity="0.38"/>
</linearGradient>
<linearGradient id="paint2_linear_2439_5886" x1="0" y1="0" x2="1.03564" y2="51.883" gradientUnits="userSpaceOnUse">
<stop stop-color="white"/>
<stop offset="1" stop-color="#EEEDED" stop-opacity="0.5"/>
</linearGradient>
<linearGradient id="paint3_linear_2439_5886" x1="41.7236" y1="14.6292" x2="41.7236" y2="27.6396" gradientUnits="userSpaceOnUse">
<stop stop-color="#CFF9FF"/>
<stop offset="0.21" stop-color="#C3F5FF"/>
<stop offset="0.58" stop-color="#A4ECFF"/>
<stop offset="1" stop-color="#7AE0FF"/>
</linearGradient>
<linearGradient id="paint4_linear_2439_5886" x1="55.2273" y1="18.3956" x2="55.2273" y2="22.7541" gradientUnits="userSpaceOnUse">
<stop stop-color="white"/>
<stop offset="1"/>
</linearGradient>
<linearGradient id="paint5_linear_2439_5886" x1="39.3203" y1="15.8872" x2="39.3203" y2="20.2458" gradientUnits="userSpaceOnUse">
<stop stop-color="white"/>
<stop offset="1"/>
</linearGradient>
<linearGradient id="paint6_linear_2439_5886" x1="29.3969" y1="15.9385" x2="29.3969" y2="20.9347" gradientUnits="userSpaceOnUse">
<stop stop-color="white"/>
<stop offset="1"/>
</linearGradient>
<linearGradient id="paint7_linear_2439_5886" x1="47.7691" y1="12.269" x2="47.4575" y2="19.2216" gradientUnits="userSpaceOnUse">
<stop stop-color="white"/>
<stop offset="1"/>
</linearGradient>
<radialGradient id="paint8_radial_2439_5886" cx="0" cy="0" r="1" gradientUnits="userSpaceOnUse" gradientTransform="translate(37.2278 9.44636) rotate(-1.81) scale(4.652 4.652)">
<stop stop-color="#FFCA00"/>
<stop offset="0.41" stop-color="#FEC700"/>
<stop offset="0.6" stop-color="#FEC000"/>
<stop offset="0.75" stop-color="#FEB300"/>
<stop offset="0.87" stop-color="#FEA100"/>
<stop offset="0.97" stop-color="#FE8A00"/>
<stop offset="1" stop-color="#FE8300"/>
</radialGradient>
<radialGradient id="paint9_radial_2439_5886" cx="0" cy="0" r="1" gradientUnits="userSpaceOnUse" gradientTransform="translate(30.9747 12.1799) rotate(-1.81) scale(4.97445)">
<stop stop-color="#FFCA00"/>
<stop offset="0.41" stop-color="#FEC700"/>
<stop offset="0.6" stop-color="#FEC000"/>
<stop offset="0.75" stop-color="#FEB300"/>
<stop offset="0.87" stop-color="#FEA100"/>
<stop offset="0.97" stop-color="#FE8A00"/>
<stop offset="1" stop-color="#FE8300"/>
</radialGradient>
<radialGradient id="paint10_radial_2439_5886" cx="0" cy="0" r="1" gradientUnits="userSpaceOnUse" gradientTransform="translate(25.1207 18.1222) rotate(-1.81) scale(5.03242)">
<stop stop-color="#FFCA00"/>
<stop offset="0.41" stop-color="#FEC700"/>
<stop offset="0.6" stop-color="#FEC000"/>
<stop offset="0.75" stop-color="#FEB300"/>
<stop offset="0.87" stop-color="#FEA100"/>
<stop offset="0.97" stop-color="#FE8A00"/>
<stop offset="1" stop-color="#FE8300"/>
</radialGradient>
<radialGradient id="paint11_radial_2439_5886" cx="0" cy="0" r="1" gradientUnits="userSpaceOnUse" gradientTransform="translate(22.6699 25.205) rotate(-1.81) scale(4.652 4.652)">
<stop stop-color="#FFCA00"/>
<stop offset="0.41" stop-color="#FEC700"/>
<stop offset="0.6" stop-color="#FEC000"/>
<stop offset="0.75" stop-color="#FEB300"/>
<stop offset="0.87" stop-color="#FEA100"/>
<stop offset="0.97" stop-color="#FE8A00"/>
<stop offset="1" stop-color="#FE8300"/>
</radialGradient>
<radialGradient id="paint12_radial_2439_5886" cx="0" cy="0" r="1" gradientUnits="userSpaceOnUse" gradientTransform="translate(25.3964 31.4577) rotate(-1.81) scale(4.97445 4.97445)">
<stop stop-color="#FFCA00"/>
<stop offset="0.41" stop-color="#FEC700"/>
<stop offset="0.6" stop-color="#FEC000"/>
<stop offset="0.75" stop-color="#FEB300"/>
<stop offset="0.87" stop-color="#FEA100"/>
<stop offset="0.97" stop-color="#FE8A00"/>
<stop offset="1" stop-color="#FE8300"/>
</radialGradient>
<radialGradient id="paint13_radial_2439_5886" cx="0" cy="0" r="1" gradientUnits="userSpaceOnUse" gradientTransform="translate(31.3417 37.3145) rotate(-1.81) scale(5.03242 5.03242)">
<stop stop-color="#FFCA00"/>
<stop offset="0.41" stop-color="#FEC700"/>
<stop offset="0.6" stop-color="#FEC000"/>
<stop offset="0.75" stop-color="#FEB300"/>
<stop offset="0.87" stop-color="#FEA100"/>
<stop offset="0.97" stop-color="#FE8A00"/>
<stop offset="1" stop-color="#FE8300"/>
</radialGradient>
<radialGradient id="paint14_radial_2439_5886" cx="0" cy="0" r="1" gradientUnits="userSpaceOnUse" gradientTransform="translate(38.4249 39.7611) rotate(-1.81) scale(4.652 4.652)">
<stop stop-color="#FFCA00"/>
<stop offset="0.41" stop-color="#FEC700"/>
<stop offset="0.6" stop-color="#FEC000"/>
<stop offset="0.75" stop-color="#FEB300"/>
<stop offset="0.87" stop-color="#FEA100"/>
<stop offset="0.97" stop-color="#FE8A00"/>
<stop offset="1" stop-color="#FE8300"/>
</radialGradient>
<radialGradient id="paint15_radial_2439_5886" cx="0" cy="0" r="1" gradientUnits="userSpaceOnUse" gradientTransform="translate(44.6742 37.0337) rotate(-1.81) scale(4.97445)">
<stop stop-color="#FFCA00"/>
<stop offset="0.41" stop-color="#FEC700"/>
<stop offset="0.6" stop-color="#FEC000"/>
<stop offset="0.75" stop-color="#FEB300"/>
<stop offset="0.87" stop-color="#FEA100"/>
<stop offset="0.97" stop-color="#FE8A00"/>
<stop offset="1" stop-color="#FE8300"/>
</radialGradient>
<radialGradient id="paint16_radial_2439_5886" cx="0" cy="0" r="1" gradientUnits="userSpaceOnUse" gradientTransform="translate(50.5347 31.0881) rotate(-1.81) scale(5.03242 5.03242)">
<stop stop-color="#FFCA00"/>
<stop offset="0.41" stop-color="#FEC700"/>
<stop offset="0.6" stop-color="#FEC000"/>
<stop offset="0.75" stop-color="#FEB300"/>
<stop offset="0.87" stop-color="#FEA100"/>
<stop offset="0.97" stop-color="#FE8A00"/>
<stop offset="1" stop-color="#FE8300"/>
</radialGradient>
<radialGradient id="paint17_radial_2439_5886" cx="0" cy="0" r="1" gradientUnits="userSpaceOnUse" gradientTransform="translate(52.9851 24.0035) rotate(-1.81) scale(4.652)">
<stop stop-color="#FFCA00"/>
<stop offset="0.41" stop-color="#FEC700"/>
<stop offset="0.6" stop-color="#FEC000"/>
<stop offset="0.75" stop-color="#FEB300"/>
<stop offset="0.87" stop-color="#FEA100"/>
<stop offset="0.97" stop-color="#FE8A00"/>
<stop offset="1" stop-color="#FE8300"/>
</radialGradient>
<radialGradient id="paint18_radial_2439_5886" cx="0" cy="0" r="1" gradientUnits="userSpaceOnUse" gradientTransform="translate(50.2574 17.7551) rotate(-1.81) scale(4.97445 4.97445)">
<stop stop-color="#FFCA00"/>
<stop offset="0.41" stop-color="#FEC700"/>
<stop offset="0.6" stop-color="#FEC000"/>
<stop offset="0.75" stop-color="#FEB300"/>
<stop offset="0.87" stop-color="#FEA100"/>
<stop offset="0.97" stop-color="#FE8A00"/>
<stop offset="1" stop-color="#FE8300"/>
</radialGradient>
<radialGradient id="paint19_radial_2439_5886" cx="0" cy="0" r="1" gradientUnits="userSpaceOnUse" gradientTransform="translate(44.3083 11.8972) rotate(-1.81) scale(5.03242 5.03242)">
<stop stop-color="#FFCA00"/>
<stop offset="0.41" stop-color="#FEC700"/>
<stop offset="0.6" stop-color="#FEC000"/>
<stop offset="0.75" stop-color="#FEB300"/>
<stop offset="0.87" stop-color="#FEA100"/>
<stop offset="0.97" stop-color="#FE8A00"/>
<stop offset="1" stop-color="#FE8300"/>
</radialGradient>
<radialGradient id="paint20_radial_2439_5886" cx="0" cy="0" r="1" gradientUnits="userSpaceOnUse" gradientTransform="translate(38.5238 21.9863) rotate(-1.81) scale(10.1119 10.1119)">
<stop stop-color="#FFCA00"/>
<stop offset="0.27" stop-color="#FEC600"/>
<stop offset="0.53" stop-color="#FEBA00"/>
<stop offset="0.78" stop-color="#FEA700"/>
<stop offset="1" stop-color="#FE9000"/>
</radialGradient>
<linearGradient id="paint21_linear_2439_5886" x1="38.1149" y1="14.9302" x2="37.4958" y2="23.8995" gradientUnits="userSpaceOnUse">
<stop stop-color="#E0CC4E"/>
<stop offset="0.14" stop-color="#AC9C3B"/>
<stop offset="0.3" stop-color="#786D29"/>
<stop offset="0.46" stop-color="#4D461A"/>
<stop offset="0.61" stop-color="#2B270F"/>
<stop offset="0.75" stop-color="#131106"/>
<stop offset="0.89" stop-color="#040401"/>
<stop offset="1"/>
</linearGradient>
<linearGradient id="paint22_linear_2439_5886" x1="36.9139" y1="26.245" x2="36.9139" y2="41.8024" gradientUnits="userSpaceOnUse">
<stop stop-color="#99E8FF"/>
<stop offset="0.28" stop-color="#96E6FF"/>
<stop offset="0.48" stop-color="#8CDFFF"/>
<stop offset="0.65" stop-color="#7DD5FF"/>
<stop offset="0.81" stop-color="#67C6FF"/>
<stop offset="0.96" stop-color="#4AB2FF"/>
<stop offset="1" stop-color="#42ADFF"/>
</linearGradient>
<linearGradient id="paint23_linear_2439_5886" x1="20.3819" y1="30.969" x2="20.3819" y2="36.2948" gradientUnits="userSpaceOnUse">
<stop stop-color="white"/>
<stop offset="1"/>
</linearGradient>
<linearGradient id="paint24_linear_2439_5886" x1="41.9952" y1="29.2279" x2="41.9952" y2="34.5538" gradientUnits="userSpaceOnUse">
<stop stop-color="white"/>
<stop offset="1"/>
</linearGradient>
<linearGradient id="paint25_linear_2439_5886" x1="51.8372" y1="28.9619" x2="51.8372" y2="35.0631" gradientUnits="userSpaceOnUse">
<stop stop-color="white"/>
<stop offset="1"/>
</linearGradient>
<linearGradient id="paint26_linear_2439_5886" x1="30.0559" y1="23.6661" x2="30.4363" y2="32.1585" gradientUnits="userSpaceOnUse">
<stop stop-color="white"/>
<stop offset="1"/>
</linearGradient>
<linearGradient id="paint27_linear_2439_5886" x1="401.242" y1="12.886" x2="401.242" y2="39.1338" gradientUnits="userSpaceOnUse">
<stop stop-color="#99E8FF"/>
<stop offset="0.28" stop-color="#96E6FF"/>
<stop offset="0.48" stop-color="#8CDFFF"/>
<stop offset="0.65" stop-color="#7DD5FF"/>
<stop offset="0.81" stop-color="#67C6FF"/>
<stop offset="0.96" stop-color="#4AB2FF"/>
<stop offset="1" stop-color="#42ADFF"/>
</linearGradient>
<clipPath id="clip0_2439_5886">
<rect width="43" height="38.1163" fill="white" transform="translate(16 3.44189)"/>
</clipPath>
<clipPath id="clip1_2439_5886">
<rect width="30" height="32.8125" fill="white" transform="translate(386 6.09375)"/>
</clipPath>
</defs>
</svg>
