<svg width="20" height="20" viewBox="0 0 20 20" fill="none" xmlns="http://www.w3.org/2000/svg">
<circle cx="10.1074" cy="10.4043" r="6" fill="white"/>
<path d="M18.1986 10.539L18.8986 8.37786C19.0486 7.92231 18.8875 7.42231 18.4986 7.13897L16.6597 5.80564L15.9597 3.64453C15.8881 3.42117 15.7471 3.22644 15.5573 3.08858C15.3675 2.95073 15.1387 2.87692 14.9042 2.87786H12.6319L10.7986 1.54453C10.4042 1.2612 9.88194 1.2612 9.4875 1.54453L7.65417 2.87786H5.38194C4.89861 2.87786 4.47639 3.18342 4.32639 3.64453L3.62639 5.80564L1.7875 7.13897C1.39861 7.42231 1.2375 7.92231 1.3875 8.37786L2.0875 10.539L1.3875 12.7001C1.2375 13.1556 1.39861 13.6556 1.7875 13.939L3.62639 15.2723L4.32639 17.4334C4.47639 17.8945 4.89861 18.2001 5.38194 18.2001H7.65417L9.4875 19.5334C9.6875 19.6779 9.91528 19.7501 10.1431 19.7501C10.3708 19.7501 10.5986 19.6779 10.7986 19.5334L12.6319 18.2001H14.9042C15.3875 18.2001 15.8097 17.8945 15.9597 17.4334L16.6597 15.2723L18.4986 13.939C18.8875 13.6556 19.0486 13.1556 18.8986 12.7001L18.1986 10.539ZM13.8708 8.7112L9.42639 13.1556C9.31528 13.2612 9.17639 13.3168 9.03194 13.3168C8.8875 13.3168 8.74861 13.2612 8.6375 13.1556L6.41528 10.9334C6.19861 10.7168 6.19861 10.3612 6.41528 10.1445C6.63194 9.92786 6.9875 9.92786 7.20417 10.1445L9.03194 11.9779L13.0819 7.92231C13.2986 7.70564 13.6542 7.70564 13.8708 7.92231C14.0875 8.13897 14.0875 8.49453 13.8708 8.7112Z" fill="url(#paint0)"/>
<defs>
<linearGradient id="paint0" x1="1.33203" y1="10.5411" x2="18.9541" y2="10.5411" gradientUnits="userSpaceOnUse">
<stop stop-color="#73E49A"/>
<stop offset="0.989583" stop-color="#32C665"/>
</linearGradient>
</defs>
</svg>