<svg width="40" height="40" viewBox="0 0 40 40" fill="none" xmlns="http://www.w3.org/2000/svg">
<rect width="40" height="40" rx="8" fill="white"/>
<rect x="0.5" y="0.5" width="39" height="39" rx="7.5" stroke="#003057" stroke-opacity="0.15" stroke-linecap="round"/>
<path d="M19.6719 18.8743C20.2685 19.015 20.8948 18.9572 21.4557 18.7099C22.0165 18.4626 22.4815 18.0392 22.7801 17.5038C23.0786 16.9685 23.1945 16.3503 23.1102 15.7432C23.0258 15.136 22.7459 14.5729 22.3127 14.1392C21.8795 13.7055 21.3167 13.4248 20.7096 13.3398C20.1026 13.2547 19.4843 13.3699 18.9486 13.6678C18.4129 13.9657 17.9889 14.4302 17.7409 14.9908C17.493 15.5514 17.4345 16.1775 17.5744 16.7743C17.6946 17.2846 17.9544 17.7513 18.3249 18.1222C18.6954 18.4931 19.1618 18.7536 19.6719 18.8743ZM19.9609 14.3498C20.3431 14.2732 20.7399 14.3216 21.0925 14.4879C21.4451 14.6541 21.7349 14.9294 21.919 15.273C22.1031 15.6167 22.1718 16.0104 22.1149 16.3961C22.058 16.7818 21.8785 17.1389 21.603 17.4147C21.3275 17.6905 20.9705 17.8704 20.5849 17.9277C20.1993 17.985 19.8055 17.9167 19.4617 17.733C19.1179 17.5492 18.8423 17.2597 18.6756 16.9073C18.509 16.5549 18.4602 16.1582 18.5364 15.7758C18.6067 15.4241 18.7795 15.101 19.033 14.8472C19.2864 14.5934 19.6093 14.4207 19.9609 14.3498Z" fill="#003057"/>
<path d="M33 6H13C12.6022 6 12.2206 6.15804 11.9393 6.43934C11.658 6.72064 11.5 7.10218 11.5 7.5V11H8C7.60218 11 7.22064 11.158 6.93934 11.4393C6.65804 11.7206 6.5 12.1022 6.5 12.5V32.5C6.5 32.8978 6.65804 33.2794 6.93934 33.5607C7.22064 33.842 7.60218 34 8 34H28C28.3978 34 28.7794 33.842 29.0607 33.5607C29.342 33.2794 29.5 32.8978 29.5 32.5V29H33C33.3978 29 33.7794 28.842 34.0607 28.5607C34.342 28.2794 34.5 27.8978 34.5 27.5V7.5C34.5 7.10218 34.342 6.72064 34.0607 6.43934C33.7794 6.15804 33.3978 6 33 6ZM8 12H28C28.1326 12 28.2598 12.0527 28.3536 12.1464C28.4473 12.2402 28.5 12.3674 28.5 12.5V29.334L25.575 23.829C25.4673 23.6264 25.3065 23.4569 25.1098 23.3387C24.9131 23.2205 24.688 23.158 24.4585 23.158H24.4555C24.2262 23.1581 24.0012 23.2203 23.8045 23.338C23.6077 23.4557 23.4465 23.6245 23.338 23.8265L20.667 28.8025L15.979 19.9795C15.8385 19.7157 15.629 19.4949 15.3728 19.3409C15.1166 19.1869 14.8234 19.1053 14.5245 19.105H14.521C14.2223 19.1051 13.9291 19.1862 13.6728 19.3395C13.4164 19.4929 13.2064 19.7128 13.065 19.976L7.5 30.343V12.5C7.5 12.3674 7.55268 12.2402 7.64645 12.1464C7.74021 12.0527 7.86739 12 8 12ZM7.5 32.5C7.4545 32.458 13.947 20.4915 13.9435 20.454C13.9985 20.3484 14.0814 20.2598 14.1832 20.1981C14.2851 20.1364 14.4019 20.1038 14.521 20.104C14.6401 20.1038 14.7569 20.1364 14.8588 20.1981C14.9606 20.2598 15.0435 20.3484 15.0985 20.454L21.7655 33H8C7.86739 33 7.74021 32.9473 7.64645 32.8536C7.55268 32.7598 7.5 32.6326 7.5 32.5ZM28 33H22.9L21.234 29.865L24.2175 24.3C24.2399 24.2561 24.274 24.2193 24.3162 24.1938C24.3583 24.1682 24.4067 24.155 24.456 24.1555C24.5053 24.1552 24.5538 24.1686 24.5959 24.1943C24.6381 24.22 24.6722 24.257 24.6945 24.301L28.5 31.465V32.5C28.5 32.6326 28.4473 32.7598 28.3536 32.8536C28.2598 32.9473 28.1326 33 28 33ZM33.5 27.5C33.5 27.6326 33.4473 27.7598 33.3536 27.8536C33.2598 27.9473 33.1326 28 33 28H29.5V12.5C29.5 12.1022 29.342 11.7206 29.0607 11.4393C28.7794 11.158 28.3978 11 28 11H12.5V7.5C12.5 7.36739 12.5527 7.24021 12.6464 7.14645C12.7402 7.05268 12.8674 7 13 7H33C33.1326 7 33.2598 7.05268 33.3536 7.14645C33.4473 7.24021 33.5 7.36739 33.5 7.5V27.5Z" fill="#003057"/>
</svg>